<svg xmlns="http://www.w3.org/2000/svg" id="Group_30936" width="256" height="256.001" viewBox="0 0 256 256.001">
    <defs>
        <linearGradient id="linear-gradient" x1=".843" x2=".206" y1=".135" y2=".886" gradientUnits="objectBoundingBox">
            <stop offset="0" stop-color="#b6509e"/>
            <stop offset="1" stop-color="#2ebac6"/>
        </linearGradient>
        <linearGradient id="linear-gradient-2" x1=".5" x2=".5" y1="1.142" y2="-.105" gradientUnits="objectBoundingBox">
            <stop offset="0" stop-color="#f9a606"/>
            <stop offset="1" stop-color="#fbcc5f"/>
        </linearGradient>
        <style>
            .cls-1{fill:#fff}
        </style>
    </defs>
    <circle id="Ellipse_1585" cx="128" cy="128" r="128" class="cls-1"/>
    <g id="Group_17823" transform="translate(-20 -20)">
        <path id="Subtraction_108" fill="url(#linear-gradient)" d="M128 256a128.976 128.976 0 0 1-25.8-2.6 127.309 127.309 0 0 1-45.77-19.261 128.366 128.366 0 0 1-46.375-56.315A127.357 127.357 0 0 1 2.6 153.8a129.251 129.251 0 0 1 0-51.593 127.31 127.31 0 0 1 19.26-45.77 128.372 128.372 0 0 1 56.317-46.378A127.33 127.33 0 0 1 102.2 2.6a129.244 129.244 0 0 1 51.593 0 127.308 127.308 0 0 1 45.77 19.26 128.367 128.367 0 0 1 46.375 56.316A127.343 127.343 0 0 1 253.4 102.2a129.248 129.248 0 0 1 0 51.593 127.3 127.3 0 0 1-19.26 45.77 128.382 128.382 0 0 1-56.316 46.375A127.4 127.4 0 0 1 153.8 253.4 128.977 128.977 0 0 1 128 256zm0-242.287a115.145 115.145 0 0 0-23.033 2.322A113.657 113.657 0 0 0 64.1 33.232a114.622 114.622 0 0 0-41.4 50.283 113.7 113.7 0 0 0-6.659 21.452 115.4 115.4 0 0 0 0 46.065 113.66 113.66 0 0 0 17.2 40.866 114.627 114.627 0 0 0 50.282 41.407 113.75 113.75 0 0 0 21.453 6.658 115.381 115.381 0 0 0 46.065 0 113.609 113.609 0 0 0 40.866-17.2 114.622 114.622 0 0 0 41.393-50.278 113.741 113.741 0 0 0 6.659-21.453 115.4 115.4 0 0 0 0-46.065 113.662 113.662 0 0 0-17.2-40.865A114.619 114.619 0 0 0 172.485 22.7a113.74 113.74 0 0 0-21.453-6.659A115.145 115.145 0 0 0 128 13.714z" transform="translate(20 20)"/>
        <g id="Badge_Dai" transform="translate(49.714 49.714)">
            <circle id="Ellipse_1272" cx="98.285" cy="98.285" r="98.285" fill="url(#linear-gradient-2)"/>
            <path id="Path_7539" d="M255.073 188.843h-11.664c-6.421-17.822-23.687-30.043-46.456-30.043h-37.447v30.043H146.5v10.779h13.006v11.3H146.5V221.7h13.006v29.682h37.447c22.507 0 39.642-12.122 46.227-29.682h11.893v-10.776H245.8a48.891 48.891 0 0 0 .36-5.832v-.262c0-1.769-.1-3.506-.262-5.209h9.206v-10.778zM169.99 168.4h26.963c16.708 0 29.125 8.223 34.859 20.411H169.99V168.4zm26.963 73.288H169.99V221.67h61.756c-5.766 11.991-18.146 20.017-34.793 20.017zm38.364-36.366a38.768 38.768 0 0 1-.393 5.57H169.99v-11.3h64.967a42.631 42.631 0 0 1 .36 5.471z" class="cls-1" transform="translate(-98.504 -106.774)"/>
        </g>
    </g>
</svg>