<svg width="26" height="26" viewBox="0 0 26 26" fill="none" xmlns="http://www.w3.org/2000/svg">
<g clip-path="url(#clip0_105_2148)">
<path d="M22.2206 8.48462C19.8665 6.11441 16.6023 4.64111 13.0039 4.64162C9.40555 4.64113 6.14137 6.11441 3.78712 8.48462C1.44845 10.8379 0 14.0776 0 17.6503C0 18.1639 0.415805 18.5796 0.928956 18.5796H9.4208C9.83612 20.1782 11.2782 21.367 13.0042 21.367C14.7307 21.367 16.1725 20.1782 16.5878 18.5794H25.0797C25.5931 18.5794 26.0086 18.1637 26.0086 17.6501C26.0084 14.0774 24.5599 10.8377 22.2213 8.48443L22.2206 8.48462ZM13.0039 19.5088C11.9793 19.5088 11.1462 18.6749 11.1462 17.6504C11.1462 16.6259 11.9793 15.792 13.0039 15.792C14.0279 15.792 14.8615 16.6259 14.8615 17.6504C14.8618 18.6748 14.028 19.5088 13.0039 19.5088ZM15.3583 14.7987L17.3326 10.5633C17.5493 10.0978 17.348 9.54522 16.8837 9.32842C16.4201 9.11234 15.8667 9.31395 15.6493 9.77749L13.6801 14.0019C13.4599 13.9611 13.2353 13.9334 13.0039 13.9334C11.2777 13.9334 9.83584 15.1222 9.42028 16.7211H1.89624C2.09311 14.344 3.04682 12.1825 4.50411 10.461L5.50732 11.4643C5.68874 11.6458 5.92631 11.7366 6.16413 11.7366C6.4017 11.7366 6.63951 11.6458 6.82095 11.4643C7.18379 11.1014 7.18379 10.5134 6.82095 10.1505L5.81843 9.14781C7.53877 7.69021 9.69945 6.74181 12.0752 6.54435V8.35807C12.0752 8.87165 12.491 9.28739 13.0041 9.28739C13.517 9.28739 13.9331 8.87167 13.9331 8.35807L13.9328 6.54435C16.3085 6.74178 18.4692 7.69021 20.1897 9.14756L19.1875 10.1502C18.8246 10.5132 18.8246 11.1011 19.1875 11.4641C19.3689 11.6456 19.6065 11.7363 19.8443 11.7363C20.0819 11.7363 20.3197 11.6456 20.5011 11.4641L21.5041 10.4607C22.9614 12.1825 23.915 14.3438 24.1122 16.7211H16.5875C16.3882 15.9539 15.9515 15.2897 15.3582 14.7987L15.3583 14.7987Z" fill="white"/>
</g>
<defs>
<clipPath id="clip0_105_2148">
<rect width="26" height="26" fill="white"/>
</clipPath>
</defs>
</svg>
