<svg width="26" height="26" viewBox="0 0 26 26" fill="none" xmlns="http://www.w3.org/2000/svg">
<g clip-path="url(#clip0_105_2177)">
<path fill-rule="evenodd" clip-rule="evenodd" d="M10.2493 5.65826V5.66455C10.2493 5.68657 10.2503 5.7086 10.2522 5.73062L10.2539 5.75821L10.2585 5.79112C10.2796 5.96633 10.3439 6.10282 10.4291 6.20931C10.5961 6.43486 10.8638 6.58152 11.1663 6.58152C11.1663 6.58152 12.0832 6.51085 12.0832 5.6527V4.74786C12.0832 4.50488 12.1796 4.27086 12.3519 4.09951C12.5232 3.9272 12.757 3.83088 13 3.83088H24.9193C25.4254 3.83088 25.8361 3.42019 25.8361 2.9139C25.8361 2.40786 25.4254 1.99716 24.9193 1.99716H13C12.2703 1.99716 11.5707 2.28685 11.0554 2.80306C10.5392 3.3183 10.2493 4.01792 10.2493 4.74787V5.65271L10.2493 5.65826Z" fill="white"/>
<path fill-rule="evenodd" clip-rule="evenodd" d="M13.917 20.347V21.2518C13.917 21.4948 13.8207 21.7286 13.6484 21.9002C13.4768 22.0725 13.243 22.1688 13 22.1688H1.08068C0.574638 22.1688 0.163696 22.5795 0.163696 23.0856C0.163696 23.5918 0.574626 24.0025 1.08068 24.0025H13C13.7299 24.0025 14.4296 23.7129 14.9449 23.1966C15.4611 22.6814 15.7508 21.9818 15.7508 21.2518V20.347C15.7508 19.4997 14.834 21.2518 14.834 21.2518C14.3277 19.4181 13.917 19.8288 13.917 20.3351L13.917 20.347Z" fill="white"/>
<path fill-rule="evenodd" clip-rule="evenodd" d="M8.41547 6.582H5.66483C4.14571 6.582 2.91418 7.81359 2.91418 9.33265V13C2.91418 13.5063 3.32536 13.917 3.83117 13.917C4.33697 13.917 4.74815 13.5063 4.74815 13V9.33265C4.74815 8.82636 5.1586 8.41566 5.66489 8.41566H8.41553C8.92133 8.41566 9.33251 8.00497 9.33251 7.49868C9.33251 6.99263 8.92134 6.58194 8.41553 6.58194L8.41547 6.582Z" fill="white"/>
<path fill-rule="evenodd" clip-rule="evenodd" d="M17.5846 19.4183H20.3353C21.8544 19.4183 23.0859 18.1867 23.0859 16.6676V13C23.0859 12.494 22.6745 12.0833 22.1689 12.0833C21.6631 12.0833 21.252 12.494 21.252 13V16.6676C21.252 17.1737 20.8415 17.5846 20.3352 17.5846H17.5846C17.0788 17.5846 16.6676 17.9953 16.6676 18.5014C16.6676 19.0076 17.0788 19.4184 17.5846 19.4184L17.5846 19.4183Z" fill="white"/>
<path fill-rule="evenodd" clip-rule="evenodd" d="M23.0863 12.9999V9.33252C23.0863 7.8134 21.8547 6.58188 20.3357 6.58188H13.9172C13.4117 6.58188 13.0002 6.99257 13.0002 7.49861C13.0002 8.0049 13.4117 8.4156 13.9172 8.4156H20.3357C20.842 8.4156 21.2524 8.82629 21.2524 9.33258V13C21.2524 13.5062 21.6636 13.9169 22.1694 13.9169C22.6752 13.9169 23.0864 13.5063 23.0864 13L23.0863 12.9999Z" fill="white"/>
<path fill-rule="evenodd" clip-rule="evenodd" d="M2.91461 12.9999V16.6675C2.91461 18.1866 4.1462 19.4181 5.66526 19.4181H12.0837C12.5893 19.4181 13.0004 19.0074 13.0004 18.5012C13.0004 17.9951 12.5893 17.5844 12.0837 17.5844H5.66526C5.15897 17.5844 4.74852 17.1735 4.74852 16.6674V12.9998C4.74852 12.4938 4.33735 12.0831 3.83153 12.0831C3.32573 12.0831 2.91455 12.4938 2.91455 12.9998L2.91461 12.9999Z" fill="white"/>
<path fill-rule="evenodd" clip-rule="evenodd" d="M13.0002 10.2497C11.4818 10.2497 10.2495 11.482 10.2495 13.0003C10.2495 14.5187 11.4818 15.751 13.0002 15.751C14.5185 15.751 15.7506 14.5186 15.7506 13.0003C15.7506 11.482 14.5185 10.2497 13.0002 10.2497ZM13.0002 12.0834C13.5062 12.0834 13.9169 12.4941 13.9169 13.0004C13.9169 13.5064 13.5062 13.9171 13.0002 13.9171C12.4939 13.9171 12.0832 13.5064 12.0832 13.0004C12.0832 12.4941 12.4939 12.0834 13.0002 12.0834Z" fill="white"/>
<path fill-rule="evenodd" clip-rule="evenodd" d="M22.4376 1.72915L24.2713 3.56287C24.6295 3.9208 25.2101 3.92055 25.568 3.56287C25.9257 3.20494 25.9262 2.62439 25.568 2.26617L23.7343 0.432447C23.3761 0.0742769 22.7956 0.0745185 22.4376 0.432447C22.0797 0.790375 22.0794 1.37093 22.4376 1.72915Z" fill="white"/>
<path fill-rule="evenodd" clip-rule="evenodd" d="M3.56327 24.2712L1.72955 22.4375C1.37138 22.0793 0.790815 22.0796 0.432843 22.4375C0.0749152 22.7954 0.0746736 23.376 0.432843 23.7342L2.26656 25.5679C2.62473 25.9261 3.20529 25.9256 3.56327 25.5679C3.92095 25.21 3.92119 24.6295 3.56327 24.2712Z" fill="white"/>
<path fill-rule="evenodd" clip-rule="evenodd" d="M23.7343 5.39621L25.568 3.56249C25.9262 3.20432 25.9257 2.62376 25.568 2.26579C25.2101 1.90786 24.6295 1.90762 24.2713 2.26579L22.4376 4.09951C22.0794 4.45744 22.0797 5.03824 22.4376 5.39596C22.7955 5.75389 23.3761 5.75413 23.7343 5.39621V5.39621Z" fill="white"/>
<path fill-rule="evenodd" clip-rule="evenodd" d="M2.26656 20.6035L0.432843 22.4372C0.0746736 22.7954 0.0749152 23.3759 0.432843 23.7339C0.790771 24.0918 1.37133 24.0921 1.72955 23.7339L3.56327 21.9002C3.92119 21.542 3.92095 20.9615 3.56327 20.6035C3.20534 20.2458 2.62478 20.2456 2.26656 20.6035Z" fill="white"/>
<path fill-rule="evenodd" clip-rule="evenodd" d="M15.7508 20.3353C15.7508 20.8415 15.3404 21.252 14.8341 21.252C14.3276 21.252 13.9171 20.8415 13.9171 20.3353C13.9171 19.8287 14.3276 19.4183 14.8341 19.4183C15.3404 19.4183 15.7508 19.8287 15.7508 20.3353Z" fill="white"/>
</g>
<defs>
<clipPath id="clip0_105_2177">
<rect width="26" height="26" fill="white"/>
</clipPath>
</defs>
</svg>
