<?xml version="1.0" encoding="iso-8859-1"?>
<!-- Generator: Adobe Illustrator 16.0.0, SVG Export Plug-In . SVG Version: 6.00 Build 0)  -->
<!DOCTYPE svg PUBLIC "-//W3C//DTD SVG 1.1//EN" "http://www.w3.org/Graphics/SVG/1.1/DTD/svg11.dtd">
<svg version="1.1" id="Capa_1" xmlns="http://www.w3.org/2000/svg" xmlns:xlink="http://www.w3.org/1999/xlink" x="0px" y="0px"
	 width="512px" height="512px" viewBox="0 0 512 512" style="enable-background:new 0 0 512 512;" xml:space="preserve">
<g>
	<path d="M448.007,256c0-12-1.25-23.656-3.344-35.031l65.031-37.531l-64-110.875l-65.031,37.563
		c-17.719-15.126-38.25-27.032-60.656-34.97V0h-128v75.156c-22.422,7.938-42.938,19.844-60.656,34.969L66.304,72.563l-64,110.875
		L67.351,221c-2.109,11.344-3.344,23-3.344,35c0,11.969,1.234,23.625,3.344,35L2.304,328.562l64,110.875l65.063-37.562
		c17.719,15.156,38.219,27.031,60.641,34.969V512h128v-75.156c22.406-7.938,42.939-19.812,60.625-34.969l65.064,37.562l64-110.875
		l-65.031-37.53C446.757,279.656,448.007,267.969,448.007,256z M256.006,352c-53.031,0-96-42.969-96-96s42.969-96,96-96
		c53.032,0,96,42.969,96,96S309.038,352,256.006,352z"/>
</g>
<g>
</g>
<g>
</g>
<g>
</g>
<g>
</g>
<g>
</g>
<g>
</g>
<g>
</g>
<g>
</g>
<g>
</g>
<g>
</g>
<g>
</g>
<g>
</g>
<g>
</g>
<g>
</g>
<g>
</g>
</svg>
