<svg width="26" height="26" viewBox="0 0 26 26" fill="none" xmlns="http://www.w3.org/2000/svg">
<path d="M8.28598 8.02167H19.5302L16.4803 11.0877C16.1704 11.3987 16.1704 11.9038 16.4803 12.2154C16.6349 12.3709 16.8382 12.449 17.0411 12.449C17.244 12.449 17.4467 12.3709 17.6019 12.2154L22.0052 7.78842C22.0419 7.75159 22.0747 7.71126 22.1035 7.66799C22.1108 7.6563 22.1163 7.64344 22.1233 7.63145C22.143 7.59871 22.1619 7.56627 22.1765 7.53089C22.1835 7.51482 22.1864 7.49728 22.1925 7.48061C22.2035 7.44788 22.2151 7.41601 22.2221 7.38211C22.2323 7.33066 22.2381 7.27805 22.2381 7.22426C22.2381 7.17077 22.2326 7.11786 22.2221 7.06641C22.2151 7.03192 22.2035 7.00006 22.1925 6.9679C22.1864 6.95124 22.1837 6.934 22.1765 6.91763C22.1619 6.88226 22.1428 6.84952 22.1233 6.81707C22.1163 6.80508 22.1114 6.79222 22.1035 6.78053C22.0747 6.73698 22.0416 6.69664 22.0052 6.6601L17.6025 2.2337C17.2926 1.9221 16.7908 1.9221 16.4809 2.2337C16.171 2.54471 16.171 3.04981 16.4809 3.3614L19.5301 6.42715H8.28579C4.81978 6.42715 2 9.26227 2 12.7471C2 13.1876 2.35527 13.5445 2.79308 13.5445C3.2309 13.5445 3.58617 13.1876 3.58617 12.7471C3.58588 10.1418 5.69391 8.02172 8.28579 8.02172L8.28598 8.02167ZM23.2069 12.4545C22.7691 12.4545 22.4138 12.8114 22.4138 13.2519C22.4138 15.8578 20.3058 17.9773 17.714 17.9773L6.46969 17.977L9.51967 14.911C9.82958 14.6 9.82958 14.0949 9.51967 13.7833C9.20975 13.4717 8.70798 13.4717 8.39807 13.7833L3.99473 18.2103C3.9581 18.2471 3.92525 18.2874 3.89647 18.331C3.8892 18.3421 3.88455 18.3541 3.87786 18.3658C3.8578 18.3988 3.83832 18.4321 3.8235 18.4681C3.81681 18.4836 3.8139 18.5011 3.80838 18.5175C3.79704 18.5502 3.78512 18.5827 3.77814 18.6172C3.76797 18.6689 3.76215 18.7212 3.76215 18.775C3.76215 18.8285 3.76768 18.8808 3.77814 18.9329C3.78512 18.9674 3.79704 18.9998 3.80838 19.0325C3.8139 19.0489 3.81681 19.0659 3.8235 19.0819C3.83832 19.1182 3.85809 19.1509 3.87786 19.1842C3.88455 19.1956 3.8892 19.2079 3.89647 19.219C3.92525 19.2626 3.95839 19.3029 3.99473 19.3398L8.39747 23.7664C8.55214 23.922 8.75536 24 8.95829 24C9.16122 24 9.36385 23.922 9.5191 23.7664C9.82902 23.4554 9.82902 22.9503 9.5191 22.6387L6.46995 19.573H17.7142C21.1802 19.573 24 16.7379 24 13.253C23.9997 12.8113 23.6444 12.4544 23.2066 12.4544L23.2069 12.4545Z" fill="url(#paint0_linear_105_2162)"/>
<defs>
<linearGradient id="paint0_linear_105_2162" x1="2" y1="13" x2="24" y2="13" gradientUnits="userSpaceOnUse">
<stop stop-color="#16C9C8"/>
<stop offset="1" stop-color="#5777F0"/>
</linearGradient>
</defs>
</svg>
