<svg width="16" height="17" viewBox="0 0 16 17" fill="none" xmlns="http://www.w3.org/2000/svg">
<path d="M2.17688 2.84365H13.0613C13.1884 2.84358 13.3154 2.85289 13.4416 2.87154C13.3988 2.52501 13.2957 2.19207 13.1385 1.89279C12.9814 1.59351 12.7733 1.33409 12.527 1.13017C12.2806 0.926245 12.001 0.782046 11.7051 0.706263C11.4092 0.630481 11.1031 0.624686 10.8051 0.689226L1.85375 2.45401H1.84355C1.28166 2.57809 0.781997 2.94519 0.446601 3.48035C0.951907 3.06531 1.55679 2.84272 2.17688 2.84365ZM13.0613 3.78633H2.17688C1.59973 3.78706 1.0464 4.05214 0.638289 4.52342C0.230182 4.99469 0.000630226 5.63367 0 6.30015V13.8416C0.000630226 14.5081 0.230182 15.1471 0.638289 15.6183C1.0464 16.0896 1.59973 16.3547 2.17688 16.3554H13.0613C13.6384 16.3547 14.1918 16.0896 14.5999 15.6183C15.008 15.1471 15.2375 14.5081 15.2382 13.8416V6.30015C15.2375 5.63367 15.008 4.99469 14.5999 4.52342C14.1918 4.05214 13.6384 3.78706 13.0613 3.78633ZM11.4456 11.3278C11.2304 11.3278 11.0199 11.2541 10.8409 11.116C10.6619 10.9779 10.5224 10.7816 10.44 10.5519C10.3577 10.3222 10.3361 10.0695 10.3781 9.82567C10.4201 9.58185 10.5238 9.35789 10.676 9.18211C10.8282 9.00633 11.0221 8.88662 11.2333 8.83812C11.4444 8.78962 11.6633 8.81452 11.8622 8.90965C12.061 9.00478 12.231 9.16588 12.3506 9.37258C12.4702 9.57928 12.5341 9.82229 12.5341 10.0709C12.5341 10.4042 12.4194 10.7239 12.2153 10.9597C12.0111 11.1954 11.7343 11.3278 11.4456 11.3278Z" fill="#FEFEFE"/>
</svg>
