<?xml version="1.0" encoding="utf-8" standalone="no"?>
<!DOCTYPE svg PUBLIC "-//W3C//DTD SVG 1.1//EN"
  "http://www.w3.org/Graphics/SVG/1.1/DTD/svg11.dtd">
<svg xmlns:xlink="http://www.w3.org/1999/xlink" width="648pt" height="432pt" viewBox="0 0 648 432" xmlns="http://www.w3.org/2000/svg" version="1.1">
 <metadata>
  <rdf:RDF xmlns:dc="http://purl.org/dc/elements/1.1/" xmlns:cc="http://creativecommons.org/ns#" xmlns:rdf="http://www.w3.org/1999/02/22-rdf-syntax-ns#">
   <cc:Work>
    <dc:type rdf:resource="http://purl.org/dc/dcmitype/StillImage"/>
    <dc:date>2024-05-30T20:48:29.127556</dc:date>
    <dc:format>image/svg+xml</dc:format>
    <dc:creator>
     <cc:Agent>
      <dc:title>Matplotlib v3.8.3, https://matplotlib.org/</dc:title>
     </cc:Agent>
    </dc:creator>
   </cc:Work>
  </rdf:RDF>
 </metadata>
 <defs>
  <style type="text/css">*{stroke-linejoin: round; stroke-linecap: butt}</style>
 </defs>
 <g id="figure_1">
  <g id="patch_1">
   <path d="M 0 432 
L 648 432 
L 648 0 
L 0 0 
z
" style="fill: #ffffff"/>
  </g>
  <g id="axes_1">
   <g id="matplotlib.axis_1"/>
   <g id="matplotlib.axis_2"/>
   <g id="patch_2">
    <path d="M 213.518573 155.683599 
C 198.612395 173.44809 188.433104 194.693909 183.92883 217.442157 
C 179.424555 240.190404 180.739625 263.712168 187.751551 285.81656 
C 194.763477 307.920952 207.247578 327.899691 224.041047 343.891897 
C 240.834516 359.884103 261.399248 371.377344 283.819781 377.301105 
L 318.990553 244.1851 
z
" style="fill: #2883fa; stroke: #ffffff; stroke-width: 0.39; stroke-linejoin: miter"/>
   </g>
   <g id="patch_3">
    <path d="M 283.819781 377.301105 
C 288.002517 378.406232 292.235018 379.313602 296.503193 380.020194 
C 300.771367 380.726786 305.070475 381.231815 309.386204 381.533601 
L 318.990553 244.1851 
z
" style="fill: #c295ff; stroke: #ffffff; stroke-width: 0.39; stroke-linejoin: miter"/>
   </g>
   <g id="patch_4">
    <path d="M 309.386204 381.533601 
C 338.386853 383.561525 367.297894 376.353194 391.951896 360.947665 
C 416.605897 345.542137 435.75847 322.716991 446.648834 295.762397 
L 318.990553 244.1851 
z
" style="fill: #4eff9a; stroke: #ffffff; stroke-width: 0.39; stroke-linejoin: miter"/>
   </g>
   <g id="patch_5">
    <path d="M 456.668391 293.264241 
C 467.558754 266.309648 469.637227 236.586117 462.604203 208.378198 
C 455.57118 180.170279 439.781646 154.901742 417.511612 136.214964 
L 329.01011 241.686944 
z
" style="fill: #fa3680; stroke: #ffffff; stroke-width: 0.39; stroke-linejoin: miter"/>
   </g>
   <g id="patch_6">
    <path d="M 408.21238 128.411982 
C 385.942346 109.725204 358.315871 98.563384 329.315222 96.535461 
C 300.314573 94.507538 271.403532 101.71587 246.749531 117.1214 
L 319.710879 233.883962 
z
" style="fill: #ffa15a; stroke: #ffffff; stroke-width: 0.39; stroke-linejoin: miter"/>
   </g>
   <g id="patch_7">
    <path d="M 246.029205 127.422537 
C 239.912391 131.244747 234.105373 135.541715 228.661792 140.273748 
C 223.218211 145.005781 218.15488 150.158263 213.518572 155.683601 
L 318.990553 244.1851 
z
" style="fill: #19d3f3; stroke: #ffffff; stroke-width: 0.39; stroke-linejoin: miter"/>
   </g>
   <g id="text_1">
    <!-- FLOWW -->
    <g style="fill: #262626" transform="translate(111.040856 290.462236) scale(0.14 -0.14)">
     <defs>
      <path id="CMSS17-46" d="M 2918 1984 
L 2918 2373 
L 1101 2373 
L 1101 3968 
L 1882 3968 
C 1958 3968 2035 3968 2112 3968 
L 3168 3968 
L 3168 4375 
L 563 4375 
L 563 -32 
L 1101 -32 
L 1101 1984 
L 2918 1984 
z
" transform="scale(0.015625)"/>
      <path id="CMSS17-4c" d="M 1670 414 
C 1594 414 1517 414 1440 414 
L 1101 414 
L 1101 4416 
L 563 4416 
L 563 0 
L 3002 0 
L 3002 414 
L 1670 414 
z
" transform="scale(0.015625)"/>
      <path id="CMSS17-4f" d="M 4096 2178 
C 4096 3503 3219 4497 2214 4497 
C 1210 4497 333 3497 333 2178 
C 333 847 1222 -128 2214 -128 
C 3206 -128 4096 847 4096 2178 
z
M 2214 273 
C 1510 273 870 1057 870 2261 
C 870 3433 1549 4096 2214 4096 
C 2880 4096 3558 3433 3558 2261 
C 3558 1051 2912 273 2214 273 
z
" transform="scale(0.015625)"/>
      <path id="CMSS17-57" d="M 5581 4416 
L 5094 4416 
L 4557 2437 
C 4474 2118 4397 1801 4320 1482 
C 4205 1011 4122 681 4109 515 
L 4102 515 
C 4090 687 4006 1049 3904 1457 
C 3827 1795 3744 2131 3654 2462 
L 3123 4416 
L 2586 4416 
L 2080 2562 
L 1824 1549 
C 1632 747 1626 632 1613 505 
L 1606 505 
C 1606 543 1581 753 1402 1498 
C 1312 1868 1222 2244 1126 2601 
L 634 4416 
L 83 4416 
L 1299 0 
L 1830 0 
L 2336 1839 
L 2592 2851 
C 2765 3564 2803 3742 2816 3901 
L 2822 3901 
C 2822 3876 2880 3474 3130 2545 
L 3808 0 
L 4365 0 
L 5581 4416 
z
" transform="scale(0.015625)"/>
     </defs>
     <use xlink:href="#CMSS17-46" transform="scale(0.996264)"/>
     <use xlink:href="#CMSS17-4c" transform="translate(53.289559 0) scale(0.996264)"/>
     <use xlink:href="#CMSS17-4f" transform="translate(103.976665 0) scale(0.996264)"/>
     <use xlink:href="#CMSS17-57" transform="translate(170.398466 0) scale(0.996264)"/>
     <use xlink:href="#CMSS17-57" transform="translate(258.640632 0) scale(0.996264)"/>
    </g>
    <!-- Rewards Pool -->
    <g style="fill: #262626" transform="translate(84.593768 304.797316) scale(0.14 -0.14)">
     <defs>
      <path id="CMSS17-52" d="M 2522 2109 
L 2534 2115 
C 3533 2459 3539 3147 3539 3268 
C 3539 3873 2925 4453 2003 4453 
L 570 4453 
L 570 32 
L 1094 32 
L 1094 2048 
L 2035 2048 
L 3168 32 
L 3706 32 
L 2522 2109 
z
M 1094 2437 
L 1094 4096 
L 1933 4096 
C 2746 4096 3034 3637 3034 3267 
C 3034 2922 2778 2437 1933 2437 
L 1094 2437 
z
" transform="scale(0.015625)"/>
      <path id="CMSS17-65" d="M 2502 1377 
C 2502 1590 2490 2003 2285 2345 
C 2061 2713 1696 2816 1421 2816 
C 755 2816 192 2188 192 1375 
C 192 582 774 -64 1510 -64 
C 1798 -64 2150 19 2470 248 
C 2470 274 2458 414 2451 420 
C 2451 433 2432 630 2432 656 
C 2125 407 1773 325 1517 325 
C 1107 325 666 667 646 1377 
L 2502 1377 
z
M 698 1728 
C 781 2084 1062 2421 1421 2421 
C 1517 2421 1965 2421 2080 1728 
L 698 1728 
z
" transform="scale(0.015625)"/>
      <path id="CMSS17-77" d="M 4013 2752 
L 3526 2752 
L 3187 1601 
C 3117 1358 2918 685 2893 371 
L 2886 371 
C 2874 564 2765 1024 2586 1633 
L 2259 2752 
L 1818 2752 
L 1498 1658 
C 1338 1101 1216 627 1203 371 
L 1197 371 
C 1171 749 909 1633 870 1773 
L 582 2752 
L 83 2752 
L 915 0 
L 1402 0 
C 1734 1096 1990 1943 2010 2370 
C 2022 2160 2131 1707 2195 1484 
L 2618 0 
L 3181 0 
L 4013 2752 
z
" transform="scale(0.015625)"/>
      <path id="CMSS17-61" d="M 2406 1791 
C 2406 2392 1978 2808 1402 2808 
C 1120 2808 813 2757 461 2553 
L 499 2135 
C 659 2248 934 2432 1395 2432 
C 1722 2432 1920 2180 1920 1782 
L 1920 1536 
C 896 1536 256 1238 256 726 
C 256 461 416 -64 947 -64 
C 1043 -64 1562 -64 1933 217 
L 1933 -19 
L 2406 -19 
L 2406 1791 
z
M 1920 816 
C 1920 701 1920 548 1728 434 
C 1562 325 1350 325 1261 325 
C 941 325 723 511 723 744 
C 723 1211 1722 1211 1920 1211 
L 1920 816 
z
" transform="scale(0.015625)"/>
      <path id="CMSS17-72" d="M 954 1363 
C 954 1965 1395 2368 1958 2368 
L 1958 2789 
C 1549 2789 1165 2585 934 2253 
L 934 2758 
L 480 2758 
L 480 0 
L 954 0 
L 954 1363 
z
" transform="scale(0.015625)"/>
      <path id="CMSS17-64" d="M 2611 4416 
L 2138 4416 
L 2138 2438 
C 1939 2603 1613 2756 1254 2756 
C 672 2756 211 2131 211 1347 
C 211 562 666 -64 1235 -64 
C 1677 -64 1971 172 2125 306 
L 2125 -13 
L 2611 -13 
L 2611 4416 
z
M 2125 836 
C 2125 747 2125 653 1926 482 
C 1798 375 1645 325 1498 325 
C 1152 325 698 576 698 1340 
C 698 2134 1210 2368 1562 2368 
C 1798 2368 1990 2254 2125 2065 
L 2125 836 
z
" transform="scale(0.015625)"/>
      <path id="CMSS17-73" d="M 2061 2627 
C 1683 2807 1389 2807 1197 2807 
C 742 2807 198 2648 198 2003 
C 198 1359 902 1218 1094 1179 
C 1389 1122 1715 1058 1715 740 
C 1715 337 1254 337 1171 337 
C 915 337 563 407 243 638 
L 166 210 
C 531 0 883 -64 1178 -64 
C 1965 -64 2163 416 2163 781 
C 2163 1094 1984 1305 1862 1401 
C 1651 1568 1574 1587 1050 1696 
C 960 1709 646 1779 646 2066 
C 646 2432 1050 2432 1139 2432 
C 1555 2432 1811 2303 1984 2208 
L 2061 2627 
z
" transform="scale(0.015625)"/>
      <path id="CMSS17-50" d="M 2106 1856 
C 2874 1856 3501 2453 3501 3158 
C 3501 3850 2899 4453 2067 4453 
L 570 4453 
L 570 0 
L 1107 0 
L 1107 1856 
L 2106 1856 
z
M 1926 4096 
C 2669 4096 2995 3627 2995 3157 
C 2995 2720 2694 2226 1926 2226 
L 1094 2226 
L 1094 4096 
L 1926 4096 
z
" transform="scale(0.015625)"/>
      <path id="CMSS17-6f" d="M 2829 1356 
C 2829 2176 2221 2816 1504 2816 
C 768 2816 173 2157 173 1356 
C 173 544 787 -64 1498 -64 
C 2227 -64 2829 563 2829 1356 
z
M 1504 337 
C 1050 337 659 709 659 1408 
C 659 2151 1114 2427 1498 2427 
C 1914 2427 2342 2126 2342 1408 
C 2342 683 1926 337 1504 337 
z
" transform="scale(0.015625)"/>
      <path id="CMSS17-6c" d="M 947 4416 
L 474 4416 
L 474 0 
L 947 0 
L 947 4416 
z
" transform="scale(0.015625)"/>
     </defs>
     <use xlink:href="#CMSS17-52" transform="scale(0.996264)"/>
     <use xlink:href="#CMSS17-65" transform="translate(60.416155 0) scale(0.996264)"/>
     <use xlink:href="#CMSS17-77" transform="translate(102.054977 0) scale(0.996264)"/>
     <use xlink:href="#CMSS17-61" transform="translate(163.272068 0) scale(0.996264)"/>
     <use xlink:href="#CMSS17-72" transform="translate(205.591535 0) scale(0.996264)"/>
     <use xlink:href="#CMSS17-64" transform="translate(237.501307 0) scale(0.996264)"/>
     <use xlink:href="#CMSS17-73" transform="translate(285.70625 0) scale(0.996264)"/>
     <use xlink:href="#CMSS17-50" transform="translate(352.848905 0) scale(0.996264)"/>
     <use xlink:href="#CMSS17-6f" transform="translate(409.982038 0) scale(0.996264)"/>
     <use xlink:href="#CMSS17-6f" transform="translate(459.4281 0) scale(0.996264)"/>
     <use xlink:href="#CMSS17-6c" transform="translate(506.271723 0) scale(0.996264)"/>
    </g>
   </g>
   <g id="text_2">
    <!-- $\bf{32}\%$ -->
    <g style="fill: #262626" transform="translate(200.463365 273.809652) scale(0.14 -0.14)">
     <defs>
      <path id="CMBX12-33" d="M 1670 2112 
C 2387 2112 2387 1454 2387 1151 
C 2387 866 2387 196 1696 196 
C 1562 196 1139 196 832 424 
C 1107 481 1203 678 1203 868 
C 1203 1128 1018 1312 755 1312 
C 486 1312 301 1128 301 862 
C 301 278 941 -64 1728 -64 
C 2784 -64 3290 513 3290 1147 
C 3290 1459 3130 2061 2138 2232 
C 2701 2406 3091 2804 3091 3310 
C 3091 3792 2630 4197 1741 4197 
C 1024 4197 499 3818 499 3298 
C 499 2977 749 2874 915 2874 
C 1101 2874 1325 2996 1325 3292 
C 1325 3441 1261 3659 960 3704 
C 1229 3968 1664 3968 1702 3968 
C 2272 3968 2272 3522 2272 3329 
C 2272 3135 2246 2837 2042 2573 
C 1875 2352 1709 2340 1466 2340 
C 1389 2321 1261 2321 1235 2309 
C 1197 2290 1197 2245 1197 2220 
C 1197 2112 1235 2112 1363 2112 
L 1670 2112 
z
" transform="scale(0.015625)"/>
      <path id="CMBX12-32" d="M 3232 1368 
L 2963 1368 
C 2944 1234 2899 858 2803 795 
C 2752 750 2253 750 2157 750 
L 1165 750 
C 1408 954 1990 1438 2086 1509 
C 2797 2038 3232 2362 3232 2974 
C 3232 3725 2547 4178 1702 4178 
C 979 4178 358 3770 358 3165 
C 358 2827 634 2732 781 2732 
C 979 2732 1210 2865 1210 3159 
C 1210 3427 1011 3560 813 3586 
C 1069 3879 1408 3904 1542 3904 
C 2131 3904 2413 3427 2413 2968 
C 2413 2471 2074 2013 1811 1739 
L 422 293 
C 358 235 358 223 358 108 
L 358 0 
L 3046 0 
L 3232 1368 
z
" transform="scale(0.015625)"/>
      <path id="CMR17-25" d="M 4640 959 
C 4640 1698 4275 2240 3846 2240 
C 3411 2240 2970 1736 2970 959 
C 2970 183 3405 -320 3846 -320 
C 4275 -320 4640 215 4640 959 
z
M 3853 -218 
C 3686 -218 3270 -66 3270 959 
C 3270 1991 3686 2138 3853 2138 
C 4205 2138 4525 1634 4525 959 
C 4525 285 4205 -218 3853 -218 
z
M 4083 4577 
C 4128 4647 4134 4653 4134 4685 
C 4134 4761 4077 4800 4026 4800 
C 3962 4800 3936 4756 3891 4706 
C 3520 4190 3008 4134 2746 4134 
C 2106 4134 1715 4494 1594 4607 
C 1510 4682 1389 4800 1171 4800 
C 736 4800 294 4296 294 3519 
C 294 2743 730 2240 1171 2240 
C 1600 2240 1965 2778 1965 3527 
C 1965 3969 1830 4270 1811 4308 
C 2202 4064 2586 4032 2752 4032 
C 3162 4032 3456 4183 3616 4289 
L 3622 4283 
L 858 -84 
C 800 -174 800 -187 800 -206 
C 800 -276 858 -320 915 -320 
C 973 -320 992 -289 1037 -218 
L 4083 4577 
z
M 1178 2342 
C 1011 2342 595 2494 595 3519 
C 595 4551 1011 4698 1178 4698 
C 1530 4698 1850 4194 1850 3519 
C 1850 2845 1530 2342 1178 2342 
z
" transform="scale(0.015625)"/>
     </defs>
     <use xlink:href="#CMBX12-33" transform="scale(0.996264)"/>
     <use xlink:href="#CMBX12-32" transform="translate(56.039851 0) scale(0.996264)"/>
     <use xlink:href="#CMR17-25" transform="translate(112.079701 0) scale(0.996264)"/>
    </g>
    <!-- \fontsize{12}{0} -->
    <g style="fill: #262626" transform="translate(213.999351 288.144732) scale(0.14 -0.14)"/>
   </g>
   <g id="text_3">
    <!-- $f$USD : XRD -->
    <g style="fill: #262626" transform="translate(216.541321 403.506597) scale(0.14 -0.14)">
     <defs>
      <path id="CMMI12-66" d="M 2854 2566 
C 2982 2566 3034 2566 3034 2688 
C 3034 2752 2982 2752 2867 2752 
L 2349 2752 
C 2470 3429 2560 3897 2611 4107 
C 2650 4265 2784 4416 2950 4416 
C 3085 4416 3219 4358 3283 4298 
C 3034 4272 2957 4082 2957 3969 
C 2957 3837 3053 3759 3174 3759 
C 3302 3759 3494 3870 3494 4119 
C 3494 4393 3226 4544 2944 4544 
C 2669 4544 2400 4334 2272 4078 
C 2157 3848 2093 3611 1946 2752 
L 1517 2752 
C 1395 2752 1331 2752 1331 2637 
C 1331 2566 1370 2566 1498 2566 
L 1907 2566 
C 1792 1976 1530 542 1382 -137 
C 1274 -689 1178 -1152 858 -1152 
C 838 -1152 653 -1152 538 -1031 
C 864 -1005 864 -726 864 -720 
C 864 -593 768 -517 646 -517 
C 518 -517 326 -625 326 -867 
C 326 -1140 608 -1280 858 -1280 
C 1510 -1280 1779 -118 1850 199 
C 1965 688 2278 2376 2310 2566 
L 2854 2566 
z
" transform="scale(0.015625)"/>
      <path id="CMSS17-55" d="M 3552 4384 
L 3066 4384 
L 3066 1449 
C 3066 604 2547 229 2074 229 
C 1587 229 1101 623 1101 1443 
L 1101 4384 
L 563 4384 
L 563 1454 
C 563 539 1274 -128 2067 -128 
C 2861 -128 3552 539 3552 1454 
L 3552 4384 
z
" transform="scale(0.015625)"/>
      <path id="CMSS17-53" d="M 2797 4169 
C 2515 4334 2208 4480 1690 4480 
C 864 4480 333 3879 333 3266 
C 333 3025 403 2753 653 2475 
C 902 2196 1184 2121 1542 2033 
C 1690 1994 1939 1924 1984 1906 
C 2342 1767 2515 1444 2515 1140 
C 2515 742 2202 318 1645 318 
C 1453 318 890 318 358 819 
L 269 318 
C 794 -64 1363 -128 1651 -128 
C 2438 -128 3002 488 3002 1186 
C 3002 1440 2925 1763 2656 2061 
C 2394 2347 2163 2410 1638 2549 
C 1338 2626 1146 2677 986 2873 
C 877 3013 819 3146 819 3317 
C 819 3673 1126 4060 1690 4060 
C 1971 4060 2336 4002 2707 3660 
L 2797 4169 
z
" transform="scale(0.015625)"/>
      <path id="CMSS17-44" d="M 570 4416 
L 570 0 
L 2144 0 
C 3194 0 4000 980 4000 2170 
C 4000 3398 3194 4416 2144 4416 
L 570 4416 
z
M 1094 357 
L 1094 4059 
L 2003 4059 
C 2861 4059 3475 3277 3475 2170 
C 3475 1107 2867 357 2003 357 
L 1094 357 
z
" transform="scale(0.015625)"/>
      <path id="CMSS17-3a" d="M 1088 2749 
L 576 2749 
L 576 2240 
L 1088 2240 
L 1088 2749 
z
M 576 510 
L 576 0 
L 1088 0 
L 1088 510 
L 576 510 
z
" transform="scale(0.015625)"/>
      <path id="CMSS17-58" d="M 2214 2329 
L 3661 4416 
L 3072 4416 
L 1952 2762 
L 800 4416 
L 166 4416 
L 1690 2329 
L 83 0 
L 672 0 
L 1952 1941 
L 3277 0 
L 3910 0 
L 2214 2329 
z
" transform="scale(0.015625)"/>
     </defs>
     <use xlink:href="#CMMI12-66" transform="scale(0.996264)"/>
     <use xlink:href="#CMSS17-55" transform="translate(58.720305 0) scale(0.996264)"/>
     <use xlink:href="#CMSS17-53" transform="translate(122.860045 0) scale(0.996264)"/>
     <use xlink:href="#CMSS17-44" transform="translate(174.908561 0) scale(0.996264)"/>
     <use xlink:href="#CMSS17-3a" transform="translate(273.680516 0) scale(0.996264)"/>
     <use xlink:href="#CMSS17-58" transform="translate(330.933833 0) scale(0.996264)"/>
     <use xlink:href="#CMSS17-52" transform="translate(393.151688 0) scale(0.996264)"/>
     <use xlink:href="#CMSS17-44" transform="translate(453.567843 0) scale(0.996264)"/>
    </g>
    <!-- LP Rewards -->
    <g style="fill: #262626" transform="translate(224.587838 417.841677) scale(0.14 -0.14)">
     <use xlink:href="#CMSS17-4c" transform="scale(0.996264)"/>
     <use xlink:href="#CMSS17-50" transform="translate(50.687105 0) scale(0.996264)"/>
     <use xlink:href="#CMSS17-52" transform="translate(141.651804 0) scale(0.996264)"/>
     <use xlink:href="#CMSS17-65" transform="translate(202.067959 0) scale(0.996264)"/>
     <use xlink:href="#CMSS17-77" transform="translate(243.706781 0) scale(0.996264)"/>
     <use xlink:href="#CMSS17-61" transform="translate(304.923873 0) scale(0.996264)"/>
     <use xlink:href="#CMSS17-72" transform="translate(347.243339 0) scale(0.996264)"/>
     <use xlink:href="#CMSS17-64" transform="translate(379.153112 0) scale(0.996264)"/>
     <use xlink:href="#CMSS17-73" transform="translate(427.358055 0) scale(0.996264)"/>
    </g>
   </g>
   <g id="text_4">
    <!-- $\bf{3}\%$ -->
    <g style="fill: #262626" transform="translate(291.7308 360.170809) scale(0.135 -0.135)">
     <use xlink:href="#CMBX12-33" transform="scale(0.996264)"/>
     <use xlink:href="#CMR17-25" transform="translate(56.039851 0) scale(0.996264)"/>
    </g>
    <!-- \fontsize{12}{0} -->
    <g style="fill: #262626" transform="translate(301.000665 373.993938) scale(0.135 -0.135)"/>
   </g>
   <g id="text_5">
    <!-- Team -->
    <g style="fill: #262626" transform="translate(406.544164 387.787103) scale(0.14 -0.14)">
     <defs>
      <path id="CMSS17-54" d="M 2317 3968 
L 2848 3968 
C 2925 3968 3002 3968 3078 3968 
L 3878 3968 
L 3878 4376 
L 218 4376 
L 218 3968 
L 1018 3968 
C 1094 3968 1171 3968 1248 3968 
L 1779 3968 
L 1779 -32 
L 2317 -32 
L 2317 3968 
z
" transform="scale(0.015625)"/>
      <path id="CMSS17-6d" d="M 4288 1877 
C 4288 2308 4179 2816 3462 2816 
C 2982 2816 2694 2516 2566 2331 
C 2451 2670 2182 2816 1798 2816 
C 1363 2816 1088 2568 941 2389 
L 941 2758 
L 474 2758 
L 474 0 
L 960 0 
L 960 1559 
C 960 1939 1101 2428 1555 2428 
C 2138 2428 2138 2016 2138 1829 
L 2138 0 
L 2624 0 
L 2624 1559 
C 2624 1939 2765 2428 3219 2428 
C 3802 2428 3802 2016 3802 1829 
L 3802 0 
L 4288 0 
L 4288 1877 
z
" transform="scale(0.015625)"/>
     </defs>
     <use xlink:href="#CMSS17-54" transform="scale(0.996264)"/>
     <use xlink:href="#CMSS17-65" transform="translate(56.012199 0) scale(0.996264)"/>
     <use xlink:href="#CMSS17-61" transform="translate(97.651021 0) scale(0.996264)"/>
     <use xlink:href="#CMSS17-6d" transform="translate(142.572941 0) scale(0.996264)"/>
    </g>
   </g>
   <g id="text_6">
    <!-- $\bf{20}\%$ -->
    <g style="fill: #262626" transform="translate(363.823641 333.914536) scale(0.14 -0.14)">
     <defs>
      <path id="CMBX12-30" d="M 3309 2038 
C 3309 2648 3309 4178 1798 4178 
C 282 4178 282 2654 282 2038 
C 282 1428 282 -64 1792 -64 
C 3302 -64 3309 1409 3309 2038 
z
M 1798 146 
C 1594 146 1440 228 1312 362 
C 1152 521 1050 621 1050 2114 
C 1050 2559 1050 2964 1101 3295 
C 1190 3924 1651 3968 1792 3968 
C 1997 3968 2394 3873 2483 3340 
C 2541 3015 2541 2501 2541 2114 
C 2541 615 2445 527 2253 336 
C 2125 209 1952 146 1798 146 
z
" transform="scale(0.015625)"/>
     </defs>
     <use xlink:href="#CMBX12-32" transform="scale(0.996264)"/>
     <use xlink:href="#CMBX12-30" transform="translate(56.039851 0) scale(0.996264)"/>
     <use xlink:href="#CMR17-25" transform="translate(112.079701 0) scale(0.996264)"/>
    </g>
    <!-- \fontsize{12}{0} -->
    <g style="fill: #262626" transform="translate(377.359627 348.249616) scale(0.14 -0.14)"/>
   </g>
   <g id="text_7">
    <!-- SUPER -->
    <g style="fill: #262626" transform="translate(489.323022 198.035833) scale(0.14 -0.14)">
     <defs>
      <path id="CMSS17-45" d="M 1958 433 
C 1446 433 1216 433 1101 433 
L 1101 2107 
L 3085 2107 
L 3085 2496 
L 1101 2496 
L 1101 4009 
L 1926 4009 
C 2003 4009 2080 4009 2157 4009 
L 3251 4009 
L 3251 4416 
L 563 4416 
L 563 0 
L 3334 0 
L 3334 433 
L 1958 433 
z
" transform="scale(0.015625)"/>
     </defs>
     <use xlink:href="#CMSS17-53" transform="scale(0.996264)"/>
     <use xlink:href="#CMSS17-55" transform="translate(52.048516 0) scale(0.996264)"/>
     <use xlink:href="#CMSS17-50" transform="translate(116.188256 0) scale(0.996264)"/>
     <use xlink:href="#CMSS17-45" transform="translate(175.923843 0) scale(0.996264)"/>
     <use xlink:href="#CMSS17-52" transform="translate(231.815856 0) scale(0.996264)"/>
    </g>
    <!-- Holders -->
    <g style="fill: #262626" transform="translate(489.323022 212.370913) scale(0.14 -0.14)">
     <defs>
      <path id="CMSS17-48" d="M 3674 4416 
L 3136 4416 
L 3136 2501 
L 1101 2501 
L 1101 4416 
L 563 4416 
L 563 0 
L 1101 0 
L 1101 2112 
L 3136 2112 
L 3136 0 
L 3674 0 
L 3674 4416 
z
" transform="scale(0.015625)"/>
     </defs>
     <use xlink:href="#CMSS17-48" transform="scale(0.996264)"/>
     <use xlink:href="#CMSS17-6f" transform="translate(66.061519 0) scale(0.996264)"/>
     <use xlink:href="#CMSS17-6c" transform="translate(112.905143 0) scale(0.996264)"/>
     <use xlink:href="#CMSS17-64" transform="translate(135.085866 0) scale(0.996264)"/>
     <use xlink:href="#CMSS17-65" transform="translate(183.290809 0) scale(0.996264)"/>
     <use xlink:href="#CMSS17-72" transform="translate(224.929631 0) scale(0.996264)"/>
     <use xlink:href="#CMSS17-73" transform="translate(256.839404 0) scale(0.996264)"/>
    </g>
   </g>
   <g id="text_8">
    <!-- $\bf{20}\%$ -->
    <g style="fill: #262626" transform="translate(422.349398 211.359331) scale(0.14 -0.14)">
     <use xlink:href="#CMBX12-32" transform="scale(0.996264)"/>
     <use xlink:href="#CMBX12-30" transform="translate(56.039851 0) scale(0.996264)"/>
     <use xlink:href="#CMR17-25" transform="translate(112.079701 0) scale(0.996264)"/>
    </g>
    <!-- \fontsize{12}{0} -->
    <g style="fill: #262626" transform="translate(435.885385 225.694411) scale(0.14 -0.14)"/>
   </g>
   <g id="text_9">
    <!-- SUPERy -->
    <g style="fill: #262626" transform="translate(331.236091 65.385144) scale(0.14 -0.14)">
     <defs>
      <path id="CMSS17-79" d="M 2675 2752 
L 2176 2752 
C 1632 1294 1446 702 1434 383 
L 1427 383 
C 1408 696 1126 1460 902 2007 
L 602 2752 
L 83 2752 
L 1216 13 
C 1146 -178 1043 -465 1011 -529 
C 870 -885 774 -885 672 -885 
C 646 -885 442 -885 211 -809 
L 250 -1229 
C 410 -1261 570 -1280 685 -1280 
C 845 -1280 1165 -1280 1459 -497 
L 2675 2752 
z
" transform="scale(0.015625)"/>
     </defs>
     <use xlink:href="#CMSS17-53" transform="scale(0.996264)"/>
     <use xlink:href="#CMSS17-55" transform="translate(52.048516 0) scale(0.996264)"/>
     <use xlink:href="#CMSS17-50" transform="translate(116.188256 0) scale(0.996264)"/>
     <use xlink:href="#CMSS17-45" transform="translate(175.923843 0) scale(0.996264)"/>
     <use xlink:href="#CMSS17-52" transform="translate(231.815856 0) scale(0.996264)"/>
     <use xlink:href="#CMSS17-79" transform="translate(292.232011 0) scale(0.996264)"/>
    </g>
    <!-- Holders -->
    <g style="fill: #262626" transform="translate(331.236091 79.720224) scale(0.14 -0.14)">
     <use xlink:href="#CMSS17-48" transform="scale(0.996264)"/>
     <use xlink:href="#CMSS17-6f" transform="translate(66.061519 0) scale(0.996264)"/>
     <use xlink:href="#CMSS17-6c" transform="translate(112.905143 0) scale(0.996264)"/>
     <use xlink:href="#CMSS17-64" transform="translate(135.085866 0) scale(0.996264)"/>
     <use xlink:href="#CMSS17-65" transform="translate(183.290809 0) scale(0.996264)"/>
     <use xlink:href="#CMSS17-72" transform="translate(224.929631 0) scale(0.996264)"/>
     <use xlink:href="#CMSS17-73" transform="translate(256.839404 0) scale(0.996264)"/>
    </g>
   </g>
   <g id="text_10">
    <!-- $\bf{20}\%$ -->
    <g style="fill: #262626" transform="translate(313.858367 120.324545) scale(0.14 -0.14)">
     <use xlink:href="#CMBX12-32" transform="scale(0.996264)"/>
     <use xlink:href="#CMBX12-30" transform="translate(56.039851 0) scale(0.996264)"/>
     <use xlink:href="#CMR17-25" transform="translate(112.079701 0) scale(0.996264)"/>
    </g>
    <!-- \fontsize{12}{0} -->
    <g style="fill: #262626" transform="translate(327.394354 134.659625) scale(0.14 -0.14)"/>
   </g>
   <g id="text_11">
    <!-- Service -->
    <g style="fill: #262626" transform="translate(170.698657 115.810861) scale(0.14 -0.14)">
     <defs>
      <path id="CMSS17-76" d="M 2675 2752 
L 2176 2752 
L 1747 1556 
C 1613 1165 1421 627 1389 352 
L 1382 352 
C 1370 468 1318 634 1286 749 
C 1248 890 1197 1056 1158 1172 
L 595 2752 
L 83 2752 
L 1094 0 
L 1664 0 
L 2675 2752 
z
" transform="scale(0.015625)"/>
      <path id="CMSS17-69" d="M 979 4183 
L 442 4183 
L 442 3648 
L 979 3648 
L 979 4183 
z
M 947 2739 
L 474 2739 
L 474 0 
L 947 0 
L 947 2739 
z
" transform="scale(0.015625)"/>
      <path id="CMSS17-63" d="M 2464 2541 
C 2464 2585 2170 2714 2093 2739 
C 1882 2816 1613 2816 1542 2816 
C 710 2816 211 2093 211 1363 
C 211 595 768 -64 1517 -64 
C 1946 -64 2253 76 2502 242 
L 2464 664 
C 2189 453 1869 337 1523 337 
C 1024 337 698 774 698 1369 
C 698 1831 909 2414 1549 2414 
C 1901 2414 2099 2343 2394 2145 
L 2464 2541 
z
" transform="scale(0.015625)"/>
     </defs>
     <use xlink:href="#CMSS17-53" transform="scale(0.996264)"/>
     <use xlink:href="#CMSS17-65" transform="translate(52.048516 0) scale(0.996264)"/>
     <use xlink:href="#CMSS17-72" transform="translate(93.687338 0) scale(0.996264)"/>
     <use xlink:href="#CMSS17-76" transform="translate(125.597111 0) scale(0.996264)"/>
     <use xlink:href="#CMSS17-69" transform="translate(168.597252 0) scale(0.996264)"/>
     <use xlink:href="#CMSS17-63" transform="translate(190.777976 0) scale(0.996264)"/>
     <use xlink:href="#CMSS17-65" transform="translate(232.416798 0) scale(0.996264)"/>
    </g>
    <!-- Providers -->
    <g style="fill: #262626" transform="translate(158.029674 130.145942) scale(0.14 -0.14)">
     <use xlink:href="#CMSS17-50" transform="scale(0.996264)"/>
     <use xlink:href="#CMSS17-72" transform="translate(59.735586 0) scale(0.996264)"/>
     <use xlink:href="#CMSS17-6f" transform="translate(91.645359 0) scale(0.996264)"/>
     <use xlink:href="#CMSS17-76" transform="translate(138.488982 0) scale(0.996264)"/>
     <use xlink:href="#CMSS17-69" transform="translate(181.489124 0) scale(0.996264)"/>
     <use xlink:href="#CMSS17-64" transform="translate(203.669847 0) scale(0.996264)"/>
     <use xlink:href="#CMSS17-65" transform="translate(251.87479 0) scale(0.996264)"/>
     <use xlink:href="#CMSS17-72" transform="translate(293.513612 0) scale(0.996264)"/>
     <use xlink:href="#CMSS17-73" transform="translate(325.423385 0) scale(0.996264)"/>
    </g>
   </g>
   <g id="text_12">
    <!-- $\bf{5}\%$ -->
    <g style="fill: #262626" transform="translate(237.114347 164.025729) scale(0.14 -0.14)">
     <defs>
      <path id="CMBX12-35" d="M 986 3315 
C 1203 3264 1376 3264 1472 3264 
C 1626 3264 1990 3264 2419 3527 
C 2618 3647 2950 3936 2950 4083 
C 2950 4115 2950 4192 2874 4192 
C 2867 4192 2854 4192 2790 4159 
C 2496 4054 2182 3982 1824 3982 
C 1459 3982 1152 4052 851 4160 
C 806 4173 787 4186 768 4186 
C 691 4186 691 4122 691 4014 
L 691 2163 
C 691 2042 691 1972 819 1972 
C 883 1972 896 1979 947 2042 
C 1024 2132 1254 2414 1798 2414 
C 2387 2414 2387 1815 2387 1312 
C 2387 852 2387 190 1600 190 
C 1363 190 960 279 742 640 
C 1082 640 1165 895 1165 1035 
C 1165 1264 998 1435 762 1435 
C 570 1435 358 1321 358 1022 
C 358 470 864 -64 1626 -64 
C 2611 -64 3232 503 3232 1293 
C 3232 2070 2701 2624 1824 2624 
C 1568 2624 1261 2573 986 2369 
L 986 3315 
z
" transform="scale(0.015625)"/>
     </defs>
     <use xlink:href="#CMBX12-35" transform="scale(0.996264)"/>
     <use xlink:href="#CMR17-25" transform="translate(56.039851 0) scale(0.996264)"/>
    </g>
    <!-- \fontsize{12}{0} -->
    <g style="fill: #262626" transform="translate(246.727544 178.360809) scale(0.14 -0.14)"/>
   </g>
   <g id="text_13">
    <!-- FLOWW Tokenomics -->
    <g style="fill: #262626" transform="translate(232.192134 28.781342) scale(0.22 -0.22)">
     <defs>
      <path id="CMSS17-6b" d="M 1696 1688 
L 2688 2739 
L 2074 2739 
L 954 1554 
L 954 4416 
L 480 4416 
L 480 0 
L 947 0 
L 947 892 
L 1376 1344 
L 2278 0 
L 2822 0 
L 1696 1688 
z
" transform="scale(0.015625)"/>
      <path id="CMSS17-6e" d="M 2618 1877 
C 2618 2283 2522 2816 1798 2816 
C 1389 2816 1120 2606 941 2389 
L 941 2758 
L 474 2758 
L 474 0 
L 960 0 
L 960 1559 
C 960 1964 1114 2428 1549 2428 
C 2112 2428 2131 2048 2131 1829 
L 2131 0 
L 2618 0 
L 2618 1877 
z
" transform="scale(0.015625)"/>
     </defs>
     <use xlink:href="#CMSS17-46" transform="scale(0.996264)"/>
     <use xlink:href="#CMSS17-4c" transform="translate(53.289559 0) scale(0.996264)"/>
     <use xlink:href="#CMSS17-4f" transform="translate(103.976665 0) scale(0.996264)"/>
     <use xlink:href="#CMSS17-57" transform="translate(170.398466 0) scale(0.996264)"/>
     <use xlink:href="#CMSS17-57" transform="translate(258.640632 0) scale(0.996264)"/>
     <use xlink:href="#CMSS17-54" transform="translate(378.111911 0) scale(0.996264)"/>
     <use xlink:href="#CMSS17-6f" transform="translate(434.12411 0) scale(0.996264)"/>
     <use xlink:href="#CMSS17-6b" transform="translate(480.967733 0) scale(0.996264)"/>
     <use xlink:href="#CMSS17-65" transform="translate(523.967769 0) scale(0.996264)"/>
     <use xlink:href="#CMSS17-6e" transform="translate(565.606591 0) scale(0.996264)"/>
     <use xlink:href="#CMSS17-6f" transform="translate(613.811534 0) scale(0.996264)"/>
     <use xlink:href="#CMSS17-6d" transform="translate(660.655157 0) scale(0.996264)"/>
     <use xlink:href="#CMSS17-69" transform="translate(734.884412 0) scale(0.996264)"/>
     <use xlink:href="#CMSS17-63" transform="translate(757.065135 0) scale(0.996264)"/>
     <use xlink:href="#CMSS17-73" transform="translate(798.703957 0) scale(0.996264)"/>
    </g>
   </g>
  </g>
 </g>
</svg>
