<?xml version="1.0" encoding="UTF-8"?>
<svg id="Layer_2" data-name="Layer 2" xmlns="http://www.w3.org/2000/svg" viewBox="0 0 1024 1024">
  <defs>
    <style>
      .cls-1 {
        fill: #33f;
      }

      .cls-1, .cls-2, .cls-3 {
        stroke-width: 0px;
      }

      .cls-2 {
        fill: #000;
      }

      .cls-3 {
        fill: #fff;
      }
    </style>
  </defs>
  <g id="S_t_light">
    <rect class="cls-3" width="1024" height="1024"/>
    <g>
      <polygon class="cls-1" points="295.53 493.26 223.46 428.15 223.46 224.07 383.79 83.74 544.11 224.07 544.11 428.15 472.04 507.88 544.11 572.99 544.11 777.07 383.79 917.4 223.46 777.07 223.46 572.99 295.53 493.26 295.53 493.26"/>
      <path class="cls-2" d="M559.11,428.16v-204.09l-5.12-11.28-160.33-140.33h-19.75l-160.33,140.33-5.12,11.28v204.09l65.88,66.18-65.88,78.65v204.09l5.12,11.28,160.33,140.33h19.75l160.33-140.33,5.12-11.28v-204.09l-65.88-66.18,65.88-78.65ZM529.11,422.38l-58.14,64.32-72.18-65.21v-197.72h-30v211.05l93.2,84.2,67.12,60.64v190.61l-145.32,127.2-145.33-127.2v-191.5l58.14-64.32,72.19,65.21v197.73h30v-211.06l-93.21-84.2-67.12-60.64v-190.61l145.33-127.2,145.32,127.2v191.5Z"/>
    </g>
    <g>
      <polygon class="cls-1" points="684.43 557.99 574.11 557.99 574.11 443.16 894.76 443.16 894.76 557.99 784.43 557.99 784.43 778.1 684.43 865.62 684.43 557.99"/>
      <path class="cls-2" d="M879.76,458.16v84.83h-110.33v228.31l-70,61.27v-289.58h-110.32v-84.83h290.65M909.76,428.16h-350.65v144.83h110.32v325.7l130-113.78v-211.92h110.33v-144.83h0Z"/>
    </g>
  </g>
</svg>