<?xml version="1.0" encoding="UTF-8"?>
<svg id="Layer_2" data-name="Layer 2" xmlns="http://www.w3.org/2000/svg" viewBox="0 0 600.48 856.23">
  <defs>
    <style>
      .cls-1, .cls-2 {
        fill: #33f;
        stroke-linejoin: bevel;
      }

      .cls-1, .cls-2, .cls-3 {
        stroke: #000;
        stroke-width: 30px;
      }

      .cls-2 {
        stroke-linecap: square;
      }

      .cls-3 {
        fill: none;
        stroke-miterlimit: 10;
      }
    </style>
  </defs>
  <g id="S_y_light">
    <g>
      <g>
        <polygon class="cls-1" points="335.65 500.53 407.72 420.8 335.65 355.7 335.65 355.32 335.65 260.86 335.65 151.61 460.57 260.86 585.48 151.3 585.48 260.86 585.48 595.59 460.57 704.92 335.65 595.59 335.65 500.53"/>
        <line class="cls-1" x1="460.57" y1="251.99" x2="460.57" y2="355.7"/>
        <polyline class="cls-1" points="407.72 420.8 460.57 468.17 460.57 571.83"/>
      </g>
      <g>
        <polyline class="cls-2" points="87.07 420.8 15 355.7 15 151.61 175.33 11.29 335.65 151.61 335.65 355.7 263.58 435.43 335.65 500.53 335.65 704.62 175.33 844.94 15 704.62 15 500.53 87.07 420.8"/>
        <polyline class="cls-3" points="87.07 420.8 175.33 500.53 175.33 704.92"/>
        <polyline class="cls-3" points="263.58 435.43 175.33 355.7 175.33 151.3"/>
      </g>
    </g>
  </g>
</svg>