<?xml version="1.0" encoding="UTF-8"?>
<svg id="Layer_2" data-name="Layer 2" xmlns="http://www.w3.org/2000/svg" viewBox="0 0 1075 1075">
  <defs>
    <style>
      .cls-1, .cls-2 {
        fill: #000;
      }

      .cls-1, .cls-3 {
        stroke-width: 0px;
      }

      .cls-4, .cls-2 {
        stroke-width: 35px;
      }

      .cls-4, .cls-2, .cls-5, .cls-6 {
        stroke: #fff;
        stroke-miterlimit: 10;
      }

      .cls-4, .cls-5, .cls-6 {
        fill: none;
      }

      .cls-5 {
        stroke-width: 19.98px;
      }

      .cls-3 {
        fill: #333fff;
      }

      .cls-6 {
        stroke-width: 20px;
      }
    </style>
  </defs>
  <g id="final">
    <path class="cls-1" d="M537.5,0c18.33,0,36.82.93,54.96,2.78,17.87,1.81,35.83,4.56,53.37,8.15,17.32,3.54,34.65,8,51.51,13.24,16.67,5.19,33.29,11.27,49.38,18.07,15.94,6.74,31.75,14.36,46.99,22.63,15.12,8.22,30.03,17.27,44.32,26.92,14.21,9.6,28.14,20.01,41.38,30.94,13.21,10.9,26.05,22.57,38.17,34.69,12.12,12.12,23.79,24.96,34.69,38.17,10.93,13.24,21.34,27.17,30.94,41.38,9.65,14.28,18.71,29.19,26.92,44.32,8.27,15.23,15.89,31.04,22.63,46.99,6.81,16.09,12.89,32.71,18.07,49.38,5.25,16.86,9.7,34.19,13.24,51.51,3.59,17.54,6.33,35.5,8.15,53.37,1.84,18.13,2.78,36.62,2.78,54.96s-.93,36.82-2.78,54.96c-1.81,17.87-4.56,35.83-8.15,53.37-3.54,17.32-8,34.65-13.24,51.51-5.19,16.67-11.27,33.29-18.07,49.38-6.74,15.94-14.36,31.75-22.63,46.99-8.22,15.12-17.27,30.03-26.92,44.32-9.6,14.21-20.01,28.14-30.94,41.38-10.9,13.21-22.57,26.05-34.69,38.17-12.12,12.12-24.96,23.79-38.17,34.69-13.24,10.93-27.17,21.34-41.38,30.94-14.28,9.65-29.19,18.71-44.32,26.92-15.23,8.27-31.04,15.89-46.99,22.63-16.09,6.81-32.71,12.89-49.38,18.07-16.86,5.25-34.19,9.7-51.51,13.24-17.54,3.59-35.5,6.33-53.37,8.15-18.13,1.84-36.62,2.78-54.96,2.78s-36.82-.93-54.96-2.78c-17.87-1.81-35.83-4.56-53.37-8.15-17.32-3.54-34.65-8-51.51-13.24-16.67-5.19-33.29-11.27-49.38-18.07-15.94-6.74-31.75-14.36-46.99-22.63-15.12-8.22-30.03-17.27-44.32-26.92-14.21-9.6-28.14-20.01-41.38-30.94-13.21-10.9-26.05-22.57-38.17-34.69-12.12-12.12-23.79-24.96-34.69-38.17-10.93-13.24-21.34-27.17-30.94-41.38-9.65-14.28-18.71-29.19-26.92-44.32-8.27-15.23-15.89-31.04-22.63-46.99-6.81-16.09-12.89-32.71-18.07-49.38-5.25-16.86-9.7-34.19-13.24-51.51-3.59-17.54-6.33-35.5-8.15-53.37C.94,574.32,0,555.83,0,537.5s.93-36.82,2.78-54.96c1.81-17.87,4.56-35.83,8.15-53.37,3.54-17.32,8-34.65,13.24-51.51,5.19-16.67,11.27-33.29,18.07-49.38,6.74-15.94,14.36-31.75,22.63-46.99,8.22-15.12,17.27-30.03,26.92-44.32,9.6-14.21,20.01-28.14,30.94-41.38,10.9-13.21,22.57-26.05,34.69-38.17,12.12-12.12,24.96-23.79,38.17-34.69,13.24-10.93,27.17-21.34,41.38-30.94,14.28-9.65,29.19-18.71,44.32-26.92,15.23-8.27,31.04-15.89,46.99-22.63,16.09-6.81,32.71-12.89,49.38-18.07,16.86-5.25,34.19-9.7,51.51-13.24,17.54-3.59,35.5-6.33,53.37-8.15C500.68.93,519.17,0,537.5,0M537.5,0C240.65,0,0,240.65,0,537.5s240.65,537.5,537.5,537.5,537.5-240.65,537.5-537.5S834.35,0,537.5,0h0Z"/>
    <g>
      <polygon id="diamond_out" data-name="diamond out" class="cls-2" points="171.35 182.05 47.5 421.8 537.5 1038.95 1027.5 421.8 903.65 182.05 171.35 182.05"/>
      <polygon id="diamond_inner_outer" data-name="diamond inner outer" class="cls-5" points="1027.5 421.8 815.85 437.78 537.5 1015.51 259.15 437.78 47.5 421.8 171.35 182.05 903.65 182.05 1027.5 421.8"/>
      <g>
        <polygon class="cls-3" points="676.67 510.5 759.87 553.97 537.5 1015.51 315.13 553.97 398.33 510.5 259.15 437.78 372.51 182.05 702.49 182.05 815.85 437.78 676.67 510.5"/>
        <g>
          <polyline id="inner_2" data-name="inner 2" class="cls-6" points="537.5 292.33 537.5 437.79 676.67 510.5"/>
          <polyline id="inner_1" data-name="inner 1" class="cls-6" points="537.5 844.27 537.5 583.21 398.33 510.5"/>
          <polygon id="outline" class="cls-6" points="676.67 510.5 759.87 553.97 537.5 1015.51 315.13 553.97 398.33 510.5 259.15 437.79 372.51 182.05 702.49 182.05 815.85 437.79 676.67 510.5"/>
        </g>
      </g>
      <polygon id="diamond_out-2" data-name="diamond out" class="cls-4" points="171.35 182.05 47.5 421.8 537.5 1038.95 1027.5 421.8 903.65 182.05 171.35 182.05"/>
    </g>
  </g>
</svg>