<?xml version="1.0" encoding="utf-8" standalone="no"?>
<!DOCTYPE svg PUBLIC "-//W3C//DTD SVG 1.1//EN"
  "http://www.w3.org/Graphics/SVG/1.1/DTD/svg11.dtd">
<svg xmlns:xlink="http://www.w3.org/1999/xlink" width="648pt" height="360pt" viewBox="0 0 648 360" xmlns="http://www.w3.org/2000/svg" version="1.1">
 <metadata>
  <rdf:RDF xmlns:dc="http://purl.org/dc/elements/1.1/" xmlns:cc="http://creativecommons.org/ns#" xmlns:rdf="http://www.w3.org/1999/02/22-rdf-syntax-ns#">
   <cc:Work>
    <dc:type rdf:resource="http://purl.org/dc/dcmitype/StillImage"/>
    <dc:date>2024-05-31T20:03:56.188438</dc:date>
    <dc:format>image/svg+xml</dc:format>
    <dc:creator>
     <cc:Agent>
      <dc:title>Matplotlib v3.8.3, https://matplotlib.org/</dc:title>
     </cc:Agent>
    </dc:creator>
   </cc:Work>
  </rdf:RDF>
 </metadata>
 <defs>
  <style type="text/css">*{stroke-linejoin: round; stroke-linecap: butt}</style>
 </defs>
 <g id="figure_1">
  <g id="patch_1">
   <path d="M 0 360 
L 648 360 
L 648 0 
L 0 0 
z
" style="fill: #ffffff"/>
  </g>
  <g id="axes_1">
   <g id="patch_2">
    <path d="M 79.402069 312.146418 
L 638 312.146418 
L 638 29.836997 
L 79.402069 29.836997 
z
" style="fill: #ffffff"/>
   </g>
   <g id="matplotlib.axis_1">
    <g id="xtick_1">
     <g id="line2d_1">
      <path d="M 104.792884 312.146418 
L 104.792884 29.836997 
" clip-path="url(#p55876d9431)" style="fill: none; stroke: #cccccc; stroke-width: 1.3; stroke-linecap: round"/>
     </g>
     <g id="text_1">
      <!-- 0 -->
      <g style="fill: #262626" transform="translate(102.302216 331.664917) scale(0.1 -0.1)">
       <defs>
        <path id="CMSS17-30" d="M 2758 2044 
C 2758 2405 2752 3077 2490 3596 
C 2227 4096 1805 4229 1504 4229 
C 1069 4229 698 3975 506 3570 
C 301 3146 243 2709 243 2044 
C 243 1589 262 1031 493 543 
C 755 5 1197 -128 1498 -128 
C 1894 -128 2278 81 2496 518 
C 2720 974 2758 1474 2758 2044 
z
M 1498 261 
C 1011 261 864 811 819 995 
C 742 1310 730 1614 730 2114 
C 730 2506 730 2948 851 3297 
C 998 3701 1254 3840 1498 3840 
C 1971 3840 2125 3372 2176 3208 
C 2272 2873 2272 2481 2272 2114 
C 2272 1526 2272 261 1498 261 
z
" transform="scale(0.015625)"/>
       </defs>
       <use xlink:href="#CMSS17-30" transform="scale(0.996264)"/>
      </g>
     </g>
    </g>
    <g id="xtick_2">
     <g id="line2d_2">
      <path d="M 136.54321 312.146418 
L 136.54321 29.836997 
" clip-path="url(#p55876d9431)" style="fill: none; stroke: #cccccc; stroke-width: 1.3; stroke-linecap: round"/>
     </g>
     <g id="text_2">
      <!-- 1 -->
      <g style="fill: #262626" transform="translate(134.052542 331.664917) scale(0.1 -0.1)">
       <defs>
        <path id="CMSS17-31" d="M 1818 4288 
L 1696 4288 
C 1350 3940 947 3890 538 3890 
L 538 3520 
C 723 3520 1024 3520 1325 3667 
L 1325 369 
L 570 369 
L 570 0 
L 2573 0 
L 2573 369 
L 1818 369 
L 1818 4288 
z
" transform="scale(0.015625)"/>
       </defs>
       <use xlink:href="#CMSS17-31" transform="scale(0.996264)"/>
      </g>
     </g>
    </g>
    <g id="xtick_3">
     <g id="line2d_3">
      <path d="M 168.293536 312.146418 
L 168.293536 29.836997 
" clip-path="url(#p55876d9431)" style="fill: none; stroke: #cccccc; stroke-width: 1.3; stroke-linecap: round"/>
     </g>
     <g id="text_3">
      <!-- 2 -->
      <g style="fill: #262626" transform="translate(165.802869 331.664917) scale(0.1 -0.1)">
       <defs>
        <path id="CMSS17-32" d="M 1651 1357 
C 1830 1541 2099 1764 2285 1987 
C 2464 2204 2701 2511 2701 2957 
C 2701 3657 2227 4288 1421 4288 
C 787 4288 422 3893 250 3274 
L 499 2929 
C 640 3510 838 3880 1338 3880 
C 1888 3880 2195 3433 2195 2942 
C 2195 2355 1747 1901 1408 1563 
C 1030 1187 659 804 301 408 
L 301 0 
L 2701 0 
L 2701 433 
L 1613 433 
C 1536 433 1459 433 1382 433 
L 742 433 
L 742 439 
L 1651 1357 
z
" transform="scale(0.015625)"/>
       </defs>
       <use xlink:href="#CMSS17-32" transform="scale(0.996264)"/>
      </g>
     </g>
    </g>
    <g id="xtick_4">
     <g id="line2d_4">
      <path d="M 200.043863 312.146418 
L 200.043863 29.836997 
" clip-path="url(#p55876d9431)" style="fill: none; stroke: #cccccc; stroke-width: 1.3; stroke-linecap: round"/>
     </g>
     <g id="text_4">
      <!-- 3 -->
      <g style="fill: #262626" transform="translate(197.553195 331.664917) scale(0.1 -0.1)">
       <defs>
        <path id="CMSS17-33" d="M 1005 2025 
L 1440 2025 
C 2042 2025 2214 1507 2214 1146 
C 2214 653 1933 267 1472 267 
C 1114 267 608 444 320 912 
C 275 691 275 678 250 526 
C 550 88 1037 -128 1485 -128 
C 2214 -128 2752 473 2752 1138 
C 2752 1638 2400 2057 1920 2215 
C 2304 2424 2586 2816 2586 3273 
C 2586 3805 2093 4229 1491 4229 
C 941 4229 512 3892 333 3530 
C 378 3468 493 3284 550 3189 
C 691 3562 1056 3840 1485 3840 
C 1843 3840 2080 3607 2080 3271 
C 2080 2923 1856 2543 1478 2455 
C 1453 2455 1056 2417 1005 2411 
L 1005 2025 
z
" transform="scale(0.015625)"/>
       </defs>
       <use xlink:href="#CMSS17-33" transform="scale(0.996264)"/>
      </g>
     </g>
    </g>
    <g id="xtick_5">
     <g id="line2d_5">
      <path d="M 231.794189 312.146418 
L 231.794189 29.836997 
" clip-path="url(#p55876d9431)" style="fill: none; stroke: #cccccc; stroke-width: 1.3; stroke-linecap: round"/>
     </g>
     <g id="text_5">
      <!-- 4 -->
      <g style="fill: #262626" transform="translate(229.303521 331.664917) scale(0.1 -0.1)">
       <defs>
        <path id="CMSS17-34" d="M 2253 1088 
L 2835 1088 
L 2835 1477 
L 2253 1477 
L 2253 4192 
L 1690 4192 
L 166 1477 
L 166 1088 
L 1747 1088 
L 1747 0 
L 2253 0 
L 2253 1088 
z
M 659 1477 
C 1030 2127 1766 3439 1766 3885 
L 1766 1477 
L 659 1477 
z
" transform="scale(0.015625)"/>
       </defs>
       <use xlink:href="#CMSS17-34" transform="scale(0.996264)"/>
      </g>
     </g>
    </g>
    <g id="xtick_6">
     <g id="line2d_6">
      <path d="M 263.544515 312.146418 
L 263.544515 29.836997 
" clip-path="url(#p55876d9431)" style="fill: none; stroke: #cccccc; stroke-width: 1.3; stroke-linecap: round"/>
     </g>
     <g id="text_6">
      <!-- 5 -->
      <g style="fill: #262626" transform="translate(261.053848 331.664917) scale(0.1 -0.1)">
       <defs>
        <path id="CMSS17-35" d="M 934 3752 
L 2502 3752 
L 2502 4160 
L 467 4160 
L 467 1781 
L 896 1781 
C 1011 2046 1248 2240 1555 2240 
C 1843 2240 2163 1989 2163 1266 
C 2163 493 1709 267 1376 267 
C 966 267 589 512 422 851 
L 218 499 
C 512 49 992 -128 1376 -128 
C 2118 -128 2701 497 2701 1253 
C 2701 2030 2182 2629 1562 2629 
C 1338 2629 1120 2553 934 2399 
L 934 3752 
z
" transform="scale(0.015625)"/>
       </defs>
       <use xlink:href="#CMSS17-35" transform="scale(0.996264)"/>
      </g>
     </g>
    </g>
    <g id="xtick_7">
     <g id="line2d_7">
      <path d="M 295.294842 312.146418 
L 295.294842 29.836997 
" clip-path="url(#p55876d9431)" style="fill: none; stroke: #cccccc; stroke-width: 1.3; stroke-linecap: round"/>
     </g>
     <g id="text_7">
      <!-- 6 -->
      <g style="fill: #262626" transform="translate(292.804174 331.664917) scale(0.1 -0.1)">
       <defs>
        <path id="CMSS17-36" d="M 2496 4101 
C 2227 4210 2035 4229 1856 4229 
C 1024 4229 250 3368 250 2006 
C 250 265 986 -128 1510 -128 
C 1798 -128 2086 -39 2362 280 
C 2643 617 2752 898 2752 1389 
C 2752 2179 2362 2880 1779 2880 
C 1357 2880 992 2657 768 2376 
C 832 3258 1254 3840 1862 3840 
C 2029 3840 2246 3816 2496 3710 
L 2496 4101 
z
M 774 1369 
C 774 1420 774 1452 781 1548 
C 781 2045 1069 2491 1536 2491 
C 1837 2491 1990 2332 2106 2135 
C 2240 1886 2246 1650 2246 1388 
C 2246 1140 2246 891 2099 637 
C 1978 439 1818 267 1510 267 
C 902 267 800 1114 774 1369 
z
" transform="scale(0.015625)"/>
       </defs>
       <use xlink:href="#CMSS17-36" transform="scale(0.996264)"/>
      </g>
     </g>
    </g>
    <g id="xtick_8">
     <g id="line2d_8">
      <path d="M 327.045168 312.146418 
L 327.045168 29.836997 
" clip-path="url(#p55876d9431)" style="fill: none; stroke: #cccccc; stroke-width: 1.3; stroke-linecap: round"/>
     </g>
     <g id="text_8">
      <!-- 7 -->
      <g style="fill: #262626" transform="translate(324.5545 331.664917) scale(0.1 -0.1)">
       <defs>
        <path id="CMSS17-37" d="M 1389 3776 
C 1466 3776 1542 3776 1619 3776 
L 2355 3776 
C 1440 2711 915 1365 915 -32 
L 1427 -32 
C 1427 1323 1875 2696 2752 3795 
L 2752 4209 
L 250 4209 
L 250 3776 
L 1389 3776 
z
" transform="scale(0.015625)"/>
       </defs>
       <use xlink:href="#CMSS17-37" transform="scale(0.996264)"/>
      </g>
     </g>
    </g>
    <g id="xtick_9">
     <g id="line2d_9">
      <path d="M 358.795494 312.146418 
L 358.795494 29.836997 
" clip-path="url(#p55876d9431)" style="fill: none; stroke: #cccccc; stroke-width: 1.3; stroke-linecap: round"/>
     </g>
     <g id="text_9">
      <!-- 8 -->
      <g style="fill: #262626" transform="translate(356.304827 331.664917) scale(0.1 -0.1)">
       <defs>
        <path id="CMSS17-38" d="M 1933 2222 
C 2419 2380 2669 2760 2669 3134 
C 2669 3722 2157 4229 1504 4229 
C 826 4229 333 3708 333 3144 
C 333 2780 576 2403 1069 2241 
C 442 1997 250 1512 250 1149 
C 250 446 819 -128 1498 -128 
C 2202 -128 2752 455 2752 1138 
C 2752 1557 2502 2000 1933 2222 
z
M 1504 2432 
C 1075 2432 787 2712 787 3136 
C 787 3566 1075 3840 1504 3840 
C 1901 3840 2214 3591 2214 3136 
C 2214 2687 1907 2432 1504 2432 
z
M 1504 267 
C 1139 267 749 517 749 1156 
C 749 1813 1184 2043 1498 2043 
C 1843 2043 2253 1800 2253 1156 
C 2253 491 1830 267 1504 267 
z
" transform="scale(0.015625)"/>
       </defs>
       <use xlink:href="#CMSS17-38" transform="scale(0.996264)"/>
      </g>
     </g>
    </g>
    <g id="xtick_10">
     <g id="line2d_10">
      <path d="M 390.54582 312.146418 
L 390.54582 29.836997 
" clip-path="url(#p55876d9431)" style="fill: none; stroke: #cccccc; stroke-width: 1.3; stroke-linecap: round"/>
     </g>
     <g id="text_10">
      <!-- 9 -->
      <g style="fill: #262626" transform="translate(388.055153 331.664917) scale(0.1 -0.1)">
       <defs>
        <path id="CMSS17-39" d="M 435 174 
C 614 21 845 -128 1235 -128 
C 2010 -128 2752 721 2752 2095 
C 2752 3932 1952 4229 1523 4229 
C 1094 4229 819 4041 582 3741 
C 301 3397 250 3090 250 2733 
C 250 2307 326 2045 506 1745 
C 749 1357 973 1275 1222 1275 
C 1600 1275 1978 1459 2234 1776 
C 2189 902 1798 267 1235 267 
C 1005 267 819 339 634 516 
L 435 174 
z
M 2214 2746 
C 2221 2703 2221 2622 2221 2596 
C 2221 2074 1914 1664 1466 1664 
C 1171 1664 1018 1813 902 2006 
C 762 2249 755 2485 755 2733 
C 755 2976 755 3244 934 3511 
C 1069 3703 1235 3840 1523 3840 
C 2112 3840 2208 3000 2214 2746 
z
" transform="scale(0.015625)"/>
       </defs>
       <use xlink:href="#CMSS17-39" transform="scale(0.996264)"/>
      </g>
     </g>
    </g>
    <g id="xtick_11">
     <g id="line2d_11">
      <path d="M 422.296147 312.146418 
L 422.296147 29.836997 
" clip-path="url(#p55876d9431)" style="fill: none; stroke: #cccccc; stroke-width: 1.3; stroke-linecap: round"/>
     </g>
     <g id="text_11">
      <!-- 10 -->
      <g style="fill: #262626" transform="translate(417.314812 331.664917) scale(0.1 -0.1)">
       <use xlink:href="#CMSS17-31" transform="scale(0.996264)"/>
       <use xlink:href="#CMSS17-30" transform="translate(46.843624 0) scale(0.996264)"/>
      </g>
     </g>
    </g>
    <g id="xtick_12">
     <g id="line2d_12">
      <path d="M 454.046473 312.146418 
L 454.046473 29.836997 
" clip-path="url(#p55876d9431)" style="fill: none; stroke: #cccccc; stroke-width: 1.3; stroke-linecap: round"/>
     </g>
     <g id="text_12">
      <!-- 11 -->
      <g style="fill: #262626" transform="translate(449.065138 331.664917) scale(0.1 -0.1)">
       <use xlink:href="#CMSS17-31" transform="scale(0.996264)"/>
       <use xlink:href="#CMSS17-31" transform="translate(46.843624 0) scale(0.996264)"/>
      </g>
     </g>
    </g>
    <g id="xtick_13">
     <g id="line2d_13">
      <path d="M 485.796799 312.146418 
L 485.796799 29.836997 
" clip-path="url(#p55876d9431)" style="fill: none; stroke: #cccccc; stroke-width: 1.3; stroke-linecap: round"/>
     </g>
     <g id="text_13">
      <!-- 12 -->
      <g style="fill: #262626" transform="translate(480.815464 331.664917) scale(0.1 -0.1)">
       <use xlink:href="#CMSS17-31" transform="scale(0.996264)"/>
       <use xlink:href="#CMSS17-32" transform="translate(46.843624 0) scale(0.996264)"/>
      </g>
     </g>
    </g>
    <g id="xtick_14">
     <g id="line2d_14">
      <path d="M 517.547126 312.146418 
L 517.547126 29.836997 
" clip-path="url(#p55876d9431)" style="fill: none; stroke: #cccccc; stroke-width: 1.3; stroke-linecap: round"/>
     </g>
     <g id="text_14">
      <!-- 13 -->
      <g style="fill: #262626" transform="translate(512.56579 331.664917) scale(0.1 -0.1)">
       <use xlink:href="#CMSS17-31" transform="scale(0.996264)"/>
       <use xlink:href="#CMSS17-33" transform="translate(46.843624 0) scale(0.996264)"/>
      </g>
     </g>
    </g>
    <g id="xtick_15">
     <g id="line2d_15">
      <path d="M 549.297452 312.146418 
L 549.297452 29.836997 
" clip-path="url(#p55876d9431)" style="fill: none; stroke: #cccccc; stroke-width: 1.3; stroke-linecap: round"/>
     </g>
     <g id="text_15">
      <!-- 14 -->
      <g style="fill: #262626" transform="translate(544.316117 331.664917) scale(0.1 -0.1)">
       <use xlink:href="#CMSS17-31" transform="scale(0.996264)"/>
       <use xlink:href="#CMSS17-34" transform="translate(46.843624 0) scale(0.996264)"/>
      </g>
     </g>
    </g>
    <g id="xtick_16">
     <g id="line2d_16">
      <path d="M 581.047778 312.146418 
L 581.047778 29.836997 
" clip-path="url(#p55876d9431)" style="fill: none; stroke: #cccccc; stroke-width: 1.3; stroke-linecap: round"/>
     </g>
     <g id="text_16">
      <!-- 15 -->
      <g style="fill: #262626" transform="translate(576.066443 331.664917) scale(0.1 -0.1)">
       <use xlink:href="#CMSS17-31" transform="scale(0.996264)"/>
       <use xlink:href="#CMSS17-35" transform="translate(46.843624 0) scale(0.996264)"/>
      </g>
     </g>
    </g>
    <g id="xtick_17">
     <g id="line2d_17">
      <path d="M 612.798105 312.146418 
L 612.798105 29.836997 
" clip-path="url(#p55876d9431)" style="fill: none; stroke: #cccccc; stroke-width: 1.3; stroke-linecap: round"/>
     </g>
     <g id="text_17">
      <!-- 16 -->
      <g style="fill: #262626" transform="translate(607.816769 331.664917) scale(0.1 -0.1)">
       <use xlink:href="#CMSS17-31" transform="scale(0.996264)"/>
       <use xlink:href="#CMSS17-36" transform="translate(46.843624 0) scale(0.996264)"/>
      </g>
     </g>
    </g>
    <g id="text_18">
     <!-- Weeks since start of sale -->
     <g style="fill: #262626" transform="translate(288.602537 347.287972) scale(0.14 -0.14)">
      <defs>
       <path id="CMSS17-57" d="M 5581 4416 
L 5094 4416 
L 4557 2437 
C 4474 2118 4397 1801 4320 1482 
C 4205 1011 4122 681 4109 515 
L 4102 515 
C 4090 687 4006 1049 3904 1457 
C 3827 1795 3744 2131 3654 2462 
L 3123 4416 
L 2586 4416 
L 2080 2562 
L 1824 1549 
C 1632 747 1626 632 1613 505 
L 1606 505 
C 1606 543 1581 753 1402 1498 
C 1312 1868 1222 2244 1126 2601 
L 634 4416 
L 83 4416 
L 1299 0 
L 1830 0 
L 2336 1839 
L 2592 2851 
C 2765 3564 2803 3742 2816 3901 
L 2822 3901 
C 2822 3876 2880 3474 3130 2545 
L 3808 0 
L 4365 0 
L 5581 4416 
z
" transform="scale(0.015625)"/>
       <path id="CMSS17-65" d="M 2502 1377 
C 2502 1590 2490 2003 2285 2345 
C 2061 2713 1696 2816 1421 2816 
C 755 2816 192 2188 192 1375 
C 192 582 774 -64 1510 -64 
C 1798 -64 2150 19 2470 248 
C 2470 274 2458 414 2451 420 
C 2451 433 2432 630 2432 656 
C 2125 407 1773 325 1517 325 
C 1107 325 666 667 646 1377 
L 2502 1377 
z
M 698 1728 
C 781 2084 1062 2421 1421 2421 
C 1517 2421 1965 2421 2080 1728 
L 698 1728 
z
" transform="scale(0.015625)"/>
       <path id="CMSS17-6b" d="M 1696 1688 
L 2688 2739 
L 2074 2739 
L 954 1554 
L 954 4416 
L 480 4416 
L 480 0 
L 947 0 
L 947 892 
L 1376 1344 
L 2278 0 
L 2822 0 
L 1696 1688 
z
" transform="scale(0.015625)"/>
       <path id="CMSS17-73" d="M 2061 2627 
C 1683 2807 1389 2807 1197 2807 
C 742 2807 198 2648 198 2003 
C 198 1359 902 1218 1094 1179 
C 1389 1122 1715 1058 1715 740 
C 1715 337 1254 337 1171 337 
C 915 337 563 407 243 638 
L 166 210 
C 531 0 883 -64 1178 -64 
C 1965 -64 2163 416 2163 781 
C 2163 1094 1984 1305 1862 1401 
C 1651 1568 1574 1587 1050 1696 
C 960 1709 646 1779 646 2066 
C 646 2432 1050 2432 1139 2432 
C 1555 2432 1811 2303 1984 2208 
L 2061 2627 
z
" transform="scale(0.015625)"/>
       <path id="CMSS17-69" d="M 979 4183 
L 442 4183 
L 442 3648 
L 979 3648 
L 979 4183 
z
M 947 2739 
L 474 2739 
L 474 0 
L 947 0 
L 947 2739 
z
" transform="scale(0.015625)"/>
       <path id="CMSS17-6e" d="M 2618 1877 
C 2618 2283 2522 2816 1798 2816 
C 1389 2816 1120 2606 941 2389 
L 941 2758 
L 474 2758 
L 474 0 
L 960 0 
L 960 1559 
C 960 1964 1114 2428 1549 2428 
C 2112 2428 2131 2048 2131 1829 
L 2131 0 
L 2618 0 
L 2618 1877 
z
" transform="scale(0.015625)"/>
       <path id="CMSS17-63" d="M 2464 2541 
C 2464 2585 2170 2714 2093 2739 
C 1882 2816 1613 2816 1542 2816 
C 710 2816 211 2093 211 1363 
C 211 595 768 -64 1517 -64 
C 1946 -64 2253 76 2502 242 
L 2464 664 
C 2189 453 1869 337 1523 337 
C 1024 337 698 774 698 1369 
C 698 1831 909 2414 1549 2414 
C 1901 2414 2099 2343 2394 2145 
L 2464 2541 
z
" transform="scale(0.015625)"/>
       <path id="CMSS17-74" d="M 1069 2368 
L 1901 2368 
L 1901 2737 
L 1069 2737 
L 1069 3520 
L 614 3520 
L 614 2737 
L 109 2737 
L 109 2368 
L 602 2368 
L 602 749 
C 602 384 685 -64 1107 -64 
C 1427 -64 1722 25 2003 172 
L 1901 548 
C 1747 414 1562 337 1363 337 
C 1082 337 1069 696 1069 856 
L 1069 2368 
z
" transform="scale(0.015625)"/>
       <path id="CMSS17-61" d="M 2406 1791 
C 2406 2392 1978 2808 1402 2808 
C 1120 2808 813 2757 461 2553 
L 499 2135 
C 659 2248 934 2432 1395 2432 
C 1722 2432 1920 2180 1920 1782 
L 1920 1536 
C 896 1536 256 1238 256 726 
C 256 461 416 -64 947 -64 
C 1043 -64 1562 -64 1933 217 
L 1933 -19 
L 2406 -19 
L 2406 1791 
z
M 1920 816 
C 1920 701 1920 548 1728 434 
C 1562 325 1350 325 1261 325 
C 941 325 723 511 723 744 
C 723 1211 1722 1211 1920 1211 
L 1920 816 
z
" transform="scale(0.015625)"/>
       <path id="CMSS17-72" d="M 954 1363 
C 954 1965 1395 2368 1958 2368 
L 1958 2789 
C 1549 2789 1165 2585 934 2253 
L 934 2758 
L 480 2758 
L 480 0 
L 954 0 
L 954 1363 
z
" transform="scale(0.015625)"/>
       <path id="CMSS17-6f" d="M 2829 1356 
C 2829 2176 2221 2816 1504 2816 
C 768 2816 173 2157 173 1356 
C 173 544 787 -64 1498 -64 
C 2227 -64 2829 563 2829 1356 
z
M 1504 337 
C 1050 337 659 709 659 1408 
C 659 2151 1114 2427 1498 2427 
C 1914 2427 2342 2126 2342 1408 
C 2342 683 1926 337 1504 337 
z
" transform="scale(0.015625)"/>
       <path id="CMSS17-66" d="M 1075 2368 
L 1722 2368 
L 1722 2737 
L 1062 2737 
L 1062 3559 
C 1062 4014 1408 4092 1606 4092 
C 1670 4092 1850 4092 2080 4009 
L 2080 4429 
C 1933 4461 1754 4480 1613 4480 
C 1018 4480 602 3993 602 3359 
L 602 2737 
L 160 2737 
L 160 2368 
L 602 2368 
L 602 0 
L 1075 0 
L 1075 2368 
z
" transform="scale(0.015625)"/>
       <path id="CMSS17-6c" d="M 947 4416 
L 474 4416 
L 474 0 
L 947 0 
L 947 4416 
z
" transform="scale(0.015625)"/>
      </defs>
      <use xlink:href="#CMSS17-57" transform="scale(0.996264)"/>
      <use xlink:href="#CMSS17-65" transform="translate(85.639712 0) scale(0.996264)"/>
      <use xlink:href="#CMSS17-65" transform="translate(127.278534 0) scale(0.996264)"/>
      <use xlink:href="#CMSS17-6b" transform="translate(168.917356 0) scale(0.996264)"/>
      <use xlink:href="#CMSS17-73" transform="translate(214.519846 0) scale(0.996264)"/>
      <use xlink:href="#CMSS17-73" transform="translate(281.6625 0) scale(0.996264)"/>
      <use xlink:href="#CMSS17-69" transform="translate(317.576042 0) scale(0.996264)"/>
      <use xlink:href="#CMSS17-6e" transform="translate(339.756765 0) scale(0.996264)"/>
      <use xlink:href="#CMSS17-63" transform="translate(387.961709 0) scale(0.996264)"/>
      <use xlink:href="#CMSS17-65" transform="translate(429.600531 0) scale(0.996264)"/>
      <use xlink:href="#CMSS17-73" transform="translate(502.468465 0) scale(0.996264)"/>
      <use xlink:href="#CMSS17-74" transform="translate(538.382007 0) scale(0.996264)"/>
      <use xlink:href="#CMSS17-61" transform="translate(572.213574 0) scale(0.996264)"/>
      <use xlink:href="#CMSS17-72" transform="translate(614.533041 0) scale(0.996264)"/>
      <use xlink:href="#CMSS17-74" transform="translate(646.442813 0) scale(0.996264)"/>
      <use xlink:href="#CMSS17-6f" transform="translate(711.503493 0) scale(0.996264)"/>
      <use xlink:href="#CMSS17-66" transform="translate(758.347116 0) scale(0.996264)"/>
      <use xlink:href="#CMSS17-73" transform="translate(818.202888 0) scale(0.996264)"/>
      <use xlink:href="#CMSS17-61" transform="translate(854.11643 0) scale(0.996264)"/>
      <use xlink:href="#CMSS17-6c" transform="translate(899.03835 0) scale(0.996264)"/>
      <use xlink:href="#CMSS17-65" transform="translate(921.219073 0) scale(0.996264)"/>
     </g>
    </g>
   </g>
   <g id="matplotlib.axis_2">
    <g id="ytick_1">
     <g id="line2d_18">
      <path d="M 79.402069 30.391195 
L 638 30.391195 
" clip-path="url(#p55876d9431)" style="fill: none; stroke: #cccccc; stroke-width: 1.3; stroke-linecap: round"/>
     </g>
     <g id="text_19">
      <!-- 3,000,000 -->
      <g style="fill: #262626" transform="translate(26.397905 33.850444) scale(0.1 -0.1)">
       <defs>
        <path id="CMSS17-2c" d="M 1088 6 
L 1088 510 
L 576 510 
L 576 0 
L 736 0 
L 570 -800 
L 826 -800 
L 1088 6 
z
" transform="scale(0.015625)"/>
       </defs>
       <use xlink:href="#CMSS17-33" transform="scale(0.996264)"/>
       <use xlink:href="#CMSS17-2c" transform="translate(46.843624 0) scale(0.996264)"/>
       <use xlink:href="#CMSS17-30" transform="translate(72.867828 0) scale(0.996264)"/>
       <use xlink:href="#CMSS17-30" transform="translate(119.711452 0) scale(0.996264)"/>
       <use xlink:href="#CMSS17-30" transform="translate(166.555075 0) scale(0.996264)"/>
       <use xlink:href="#CMSS17-2c" transform="translate(213.398699 0) scale(0.996264)"/>
       <use xlink:href="#CMSS17-30" transform="translate(239.422904 0) scale(0.996264)"/>
       <use xlink:href="#CMSS17-30" transform="translate(286.266527 0) scale(0.996264)"/>
       <use xlink:href="#CMSS17-30" transform="translate(333.110151 0) scale(0.996264)"/>
      </g>
     </g>
    </g>
    <g id="ytick_2">
     <g id="line2d_19">
      <path d="M 79.402069 73.532481 
L 638 73.532481 
" clip-path="url(#p55876d9431)" style="fill: none; stroke: #cccccc; stroke-width: 1.3; stroke-linecap: round"/>
     </g>
     <g id="text_20">
      <!-- 1,000,000 -->
      <g style="fill: #262626" transform="translate(26.397905 76.99173) scale(0.1 -0.1)">
       <use xlink:href="#CMSS17-31" transform="scale(0.996264)"/>
       <use xlink:href="#CMSS17-2c" transform="translate(46.843624 0) scale(0.996264)"/>
       <use xlink:href="#CMSS17-30" transform="translate(72.867828 0) scale(0.996264)"/>
       <use xlink:href="#CMSS17-30" transform="translate(119.711452 0) scale(0.996264)"/>
       <use xlink:href="#CMSS17-30" transform="translate(166.555075 0) scale(0.996264)"/>
       <use xlink:href="#CMSS17-2c" transform="translate(213.398699 0) scale(0.996264)"/>
       <use xlink:href="#CMSS17-30" transform="translate(239.422904 0) scale(0.996264)"/>
       <use xlink:href="#CMSS17-30" transform="translate(286.266527 0) scale(0.996264)"/>
       <use xlink:href="#CMSS17-30" transform="translate(333.110151 0) scale(0.996264)"/>
      </g>
     </g>
    </g>
    <g id="ytick_3">
     <g id="line2d_20">
      <path d="M 79.402069 120.811157 
L 638 120.811157 
" clip-path="url(#p55876d9431)" style="fill: none; stroke: #cccccc; stroke-width: 1.3; stroke-linecap: round"/>
     </g>
     <g id="text_21">
      <!-- 300,000 -->
      <g style="fill: #262626" transform="translate(34.146649 124.270406) scale(0.1 -0.1)">
       <use xlink:href="#CMSS17-33" transform="scale(0.996264)"/>
       <use xlink:href="#CMSS17-30" transform="translate(46.843624 0) scale(0.996264)"/>
       <use xlink:href="#CMSS17-30" transform="translate(93.687247 0) scale(0.996264)"/>
       <use xlink:href="#CMSS17-2c" transform="translate(140.530871 0) scale(0.996264)"/>
       <use xlink:href="#CMSS17-30" transform="translate(166.555075 0) scale(0.996264)"/>
       <use xlink:href="#CMSS17-30" transform="translate(213.398699 0) scale(0.996264)"/>
       <use xlink:href="#CMSS17-30" transform="translate(260.242322 0) scale(0.996264)"/>
      </g>
     </g>
    </g>
    <g id="ytick_4">
     <g id="line2d_21">
      <path d="M 79.402069 163.952443 
L 638 163.952443 
" clip-path="url(#p55876d9431)" style="fill: none; stroke: #cccccc; stroke-width: 1.3; stroke-linecap: round"/>
     </g>
     <g id="text_22">
      <!-- 100,000 -->
      <g style="fill: #262626" transform="translate(34.146649 167.411692) scale(0.1 -0.1)">
       <use xlink:href="#CMSS17-31" transform="scale(0.996264)"/>
       <use xlink:href="#CMSS17-30" transform="translate(46.843624 0) scale(0.996264)"/>
       <use xlink:href="#CMSS17-30" transform="translate(93.687247 0) scale(0.996264)"/>
       <use xlink:href="#CMSS17-2c" transform="translate(140.530871 0) scale(0.996264)"/>
       <use xlink:href="#CMSS17-30" transform="translate(166.555075 0) scale(0.996264)"/>
       <use xlink:href="#CMSS17-30" transform="translate(213.398699 0) scale(0.996264)"/>
       <use xlink:href="#CMSS17-30" transform="translate(260.242322 0) scale(0.996264)"/>
      </g>
     </g>
    </g>
    <g id="ytick_5">
     <g id="line2d_22">
      <path d="M 79.402069 211.231119 
L 638 211.231119 
" clip-path="url(#p55876d9431)" style="fill: none; stroke: #cccccc; stroke-width: 1.3; stroke-linecap: round"/>
     </g>
     <g id="text_23">
      <!-- 30,000 -->
      <g style="fill: #262626" transform="translate(39.127984 214.690368) scale(0.1 -0.1)">
       <use xlink:href="#CMSS17-33" transform="scale(0.996264)"/>
       <use xlink:href="#CMSS17-30" transform="translate(46.843624 0) scale(0.996264)"/>
       <use xlink:href="#CMSS17-2c" transform="translate(93.687247 0) scale(0.996264)"/>
       <use xlink:href="#CMSS17-30" transform="translate(119.711452 0) scale(0.996264)"/>
       <use xlink:href="#CMSS17-30" transform="translate(166.555075 0) scale(0.996264)"/>
       <use xlink:href="#CMSS17-30" transform="translate(213.398699 0) scale(0.996264)"/>
      </g>
     </g>
    </g>
    <g id="ytick_6">
     <g id="line2d_23">
      <path d="M 79.402069 254.372404 
L 638 254.372404 
" clip-path="url(#p55876d9431)" style="fill: none; stroke: #cccccc; stroke-width: 1.3; stroke-linecap: round"/>
     </g>
     <g id="text_24">
      <!-- 10,000 -->
      <g style="fill: #262626" transform="translate(39.127984 257.831653) scale(0.1 -0.1)">
       <use xlink:href="#CMSS17-31" transform="scale(0.996264)"/>
       <use xlink:href="#CMSS17-30" transform="translate(46.843624 0) scale(0.996264)"/>
       <use xlink:href="#CMSS17-2c" transform="translate(93.687247 0) scale(0.996264)"/>
       <use xlink:href="#CMSS17-30" transform="translate(119.711452 0) scale(0.996264)"/>
       <use xlink:href="#CMSS17-30" transform="translate(166.555075 0) scale(0.996264)"/>
       <use xlink:href="#CMSS17-30" transform="translate(213.398699 0) scale(0.996264)"/>
      </g>
     </g>
    </g>
    <g id="ytick_7">
     <g id="line2d_24">
      <path d="M 79.402069 301.65108 
L 638 301.65108 
" clip-path="url(#p55876d9431)" style="fill: none; stroke: #cccccc; stroke-width: 1.3; stroke-linecap: round"/>
     </g>
     <g id="text_25">
      <!-- 3,000 -->
      <g style="fill: #262626" transform="translate(44.109319 305.11033) scale(0.1 -0.1)">
       <use xlink:href="#CMSS17-33" transform="scale(0.996264)"/>
       <use xlink:href="#CMSS17-2c" transform="translate(46.843624 0) scale(0.996264)"/>
       <use xlink:href="#CMSS17-30" transform="translate(72.867828 0) scale(0.996264)"/>
       <use xlink:href="#CMSS17-30" transform="translate(119.711452 0) scale(0.996264)"/>
       <use xlink:href="#CMSS17-30" transform="translate(166.555075 0) scale(0.996264)"/>
      </g>
     </g>
    </g>
    <g id="text_26">
     <!-- Hourly Emissions -->
     <g style="fill: #262626" transform="translate(19.685876 219.472282) rotate(-90) scale(0.14 -0.14)">
      <defs>
       <path id="CMSS17-48" d="M 3674 4416 
L 3136 4416 
L 3136 2501 
L 1101 2501 
L 1101 4416 
L 563 4416 
L 563 0 
L 1101 0 
L 1101 2112 
L 3136 2112 
L 3136 0 
L 3674 0 
L 3674 4416 
z
" transform="scale(0.015625)"/>
       <path id="CMSS17-75" d="M 2618 2739 
L 2131 2739 
L 2131 972 
C 2131 498 1786 306 1421 306 
C 998 306 960 447 960 709 
L 960 2739 
L 474 2739 
L 474 678 
C 474 179 646 -64 1088 -64 
C 1306 -64 1798 -13 2144 306 
L 2144 0 
L 2618 0 
L 2618 2739 
z
" transform="scale(0.015625)"/>
       <path id="CMSS17-79" d="M 2675 2752 
L 2176 2752 
C 1632 1294 1446 702 1434 383 
L 1427 383 
C 1408 696 1126 1460 902 2007 
L 602 2752 
L 83 2752 
L 1216 13 
C 1146 -178 1043 -465 1011 -529 
C 870 -885 774 -885 672 -885 
C 646 -885 442 -885 211 -809 
L 250 -1229 
C 410 -1261 570 -1280 685 -1280 
C 845 -1280 1165 -1280 1459 -497 
L 2675 2752 
z
" transform="scale(0.015625)"/>
       <path id="CMSS17-45" d="M 1958 433 
C 1446 433 1216 433 1101 433 
L 1101 2107 
L 3085 2107 
L 3085 2496 
L 1101 2496 
L 1101 4009 
L 1926 4009 
C 2003 4009 2080 4009 2157 4009 
L 3251 4009 
L 3251 4416 
L 563 4416 
L 563 0 
L 3334 0 
L 3334 433 
L 1958 433 
z
" transform="scale(0.015625)"/>
       <path id="CMSS17-6d" d="M 4288 1877 
C 4288 2308 4179 2816 3462 2816 
C 2982 2816 2694 2516 2566 2331 
C 2451 2670 2182 2816 1798 2816 
C 1363 2816 1088 2568 941 2389 
L 941 2758 
L 474 2758 
L 474 0 
L 960 0 
L 960 1559 
C 960 1939 1101 2428 1555 2428 
C 2138 2428 2138 2016 2138 1829 
L 2138 0 
L 2624 0 
L 2624 1559 
C 2624 1939 2765 2428 3219 2428 
C 3802 2428 3802 2016 3802 1829 
L 3802 0 
L 4288 0 
L 4288 1877 
z
" transform="scale(0.015625)"/>
      </defs>
      <use xlink:href="#CMSS17-48" transform="scale(0.996264)"/>
      <use xlink:href="#CMSS17-6f" transform="translate(66.061519 0) scale(0.996264)"/>
      <use xlink:href="#CMSS17-75" transform="translate(112.905143 0) scale(0.996264)"/>
      <use xlink:href="#CMSS17-72" transform="translate(161.110086 0) scale(0.996264)"/>
      <use xlink:href="#CMSS17-6c" transform="translate(193.019858 0) scale(0.996264)"/>
      <use xlink:href="#CMSS17-79" transform="translate(215.200581 0) scale(0.996264)"/>
      <use xlink:href="#CMSS17-45" transform="translate(289.429836 0) scale(0.996264)"/>
      <use xlink:href="#CMSS17-6d" transform="translate(345.321849 0) scale(0.996264)"/>
      <use xlink:href="#CMSS17-69" transform="translate(419.551104 0) scale(0.996264)"/>
      <use xlink:href="#CMSS17-73" transform="translate(441.731827 0) scale(0.996264)"/>
      <use xlink:href="#CMSS17-73" transform="translate(477.645369 0) scale(0.996264)"/>
      <use xlink:href="#CMSS17-69" transform="translate(513.558911 0) scale(0.996264)"/>
      <use xlink:href="#CMSS17-6f" transform="translate(535.739634 0) scale(0.996264)"/>
      <use xlink:href="#CMSS17-6e" transform="translate(582.583257 0) scale(0.996264)"/>
      <use xlink:href="#CMSS17-73" transform="translate(630.7882 0) scale(0.996264)"/>
     </g>
    </g>
   </g>
   <g id="line2d_25">
    <path d="M 104.792884 42.669243 
L 105.170723 115.786989 
L 105.548563 139.828711 
L 106.115322 160.35533 
L 106.682081 173.760939 
L 107.43776 186.558809 
L 108.382359 198.259852 
L 109.326958 207.244872 
L 110.460476 215.839021 
L 111.593995 222.858632 
L 112.916433 229.686879 
L 114.427791 236.220499 
L 115.939149 241.770951 
L 117.639427 247.14131 
L 119.339705 251.801753 
L 121.228902 256.330402 
L 123.1181 260.313224 
L 125.196217 264.184813 
L 127.463254 267.91037 
L 129.730291 271.206456 
L 132.186248 274.372697 
L 134.642205 277.183134 
L 137.287081 279.870771 
L 140.120878 282.415805 
L 142.954674 284.662364 
L 145.97739 286.773608 
L 149.189026 288.736215 
L 152.589582 290.539925 
L 156.179057 292.177257 
L 159.957452 293.64327 
L 163.924767 294.935355 
L 168.081002 296.053033 
L 172.615076 297.034131 
L 177.33807 297.828516 
L 182.438903 298.463408 
L 188.106496 298.938699 
L 194.151928 299.222121 
L 200.953039 299.313733 
L 208.509829 299.187342 
L 217.011218 298.818871 
L 226.835045 298.165565 
L 238.54807 297.15504 
L 253.094891 295.664203 
L 272.742546 293.409169 
L 309.770818 288.88544 
L 354.35588 283.514877 
L 387.983596 279.692964 
L 420.666714 276.202553 
L 453.916591 272.876519 
L 488.488906 269.644229 
L 524.572579 266.495397 
L 562.73437 263.390014 
L 603.163197 260.324707 
L 612.609185 259.638944 
L 612.609185 259.638944 
" clip-path="url(#p55876d9431)" style="fill: none; stroke: #3333ff; stroke-width: 2.275; stroke-linecap: round"/>
   </g>
   <g id="line2d_26">
    <path d="M 104.792884 312.146418 
L 104.792884 29.836997 
" clip-path="url(#p55876d9431)" style="fill: none; stroke-dasharray: 2.275,3.75375; stroke-dashoffset: 0; stroke: #029e73; stroke-width: 2.275"/>
   </g>
   <g id="line2d_27">
    <path d="M 136.54321 312.146418 
L 136.54321 29.836997 
" clip-path="url(#p55876d9431)" style="fill: none; stroke-dasharray: 2.275,3.75375; stroke-dashoffset: 0; stroke: #8b2be2; stroke-width: 2.275"/>
   </g>
   <g id="patch_3">
    <path d="M 79.402069 312.146418 
L 79.402069 29.836997 
" style="fill: none; stroke: #cccccc; stroke-width: 0.8; stroke-linejoin: miter; stroke-linecap: square"/>
   </g>
   <g id="patch_4">
    <path d="M 638 312.146418 
L 638 29.836997 
" style="fill: none; stroke: #cccccc; stroke-width: 0.8; stroke-linejoin: miter; stroke-linecap: square"/>
   </g>
   <g id="patch_5">
    <path d="M 79.402069 312.146418 
L 638 312.146418 
" style="fill: none; stroke: #cccccc; stroke-width: 0.8; stroke-linejoin: miter; stroke-linecap: square"/>
   </g>
   <g id="patch_6">
    <path d="M 79.402069 29.836997 
L 638 29.836997 
" style="fill: none; stroke: #cccccc; stroke-width: 0.8; stroke-linejoin: miter; stroke-linecap: square"/>
   </g>
   <g id="text_27">
    <!-- Sale -->
    <g style="fill: #029e73" transform="translate(107.967916 39.460014) scale(0.11 -0.11)">
     <defs>
      <path id="CMSS17-53" d="M 2797 4169 
C 2515 4334 2208 4480 1690 4480 
C 864 4480 333 3879 333 3266 
C 333 3025 403 2753 653 2475 
C 902 2196 1184 2121 1542 2033 
C 1690 1994 1939 1924 1984 1906 
C 2342 1767 2515 1444 2515 1140 
C 2515 742 2202 318 1645 318 
C 1453 318 890 318 358 819 
L 269 318 
C 794 -64 1363 -128 1651 -128 
C 2438 -128 3002 488 3002 1186 
C 3002 1440 2925 1763 2656 2061 
C 2394 2347 2163 2410 1638 2549 
C 1338 2626 1146 2677 986 2873 
C 877 3013 819 3146 819 3317 
C 819 3673 1126 4060 1690 4060 
C 1971 4060 2336 4002 2707 3660 
L 2797 4169 
z
" transform="scale(0.015625)"/>
     </defs>
     <use xlink:href="#CMSS17-53" transform="scale(0.996264)"/>
     <use xlink:href="#CMSS17-61" transform="translate(52.048516 0) scale(0.996264)"/>
     <use xlink:href="#CMSS17-6c" transform="translate(96.970437 0) scale(0.996264)"/>
     <use xlink:href="#CMSS17-65" transform="translate(119.15116 0) scale(0.996264)"/>
    </g>
    <!-- Begins -->
    <g style="fill: #029e73" transform="translate(107.967916 50.723325) scale(0.11 -0.11)">
     <defs>
      <path id="CMSS17-42" d="M 570 4416 
L 570 0 
L 2163 0 
C 3034 0 3667 574 3667 1200 
C 3667 1685 3251 2176 2502 2317 
C 3334 2558 3501 3040 3501 3313 
C 3501 3883 2874 4416 1997 4416 
L 570 4416 
z
M 1088 2496 
L 1088 4059 
L 1824 4059 
C 2483 4059 3002 3724 3002 3306 
C 3002 2926 2592 2496 1766 2496 
L 1088 2496 
z
M 1088 357 
L 1088 2107 
L 1939 2107 
C 2630 2107 3162 1679 3162 1206 
C 3162 772 2694 357 1984 357 
L 1088 357 
z
" transform="scale(0.015625)"/>
      <path id="CMSS17-67" d="M 2848 2808 
C 2483 2808 2170 2738 1914 2617 
C 1702 2777 1485 2808 1338 2808 
C 781 2808 358 2349 358 1814 
C 358 1468 550 1207 563 1195 
C 448 1035 384 863 384 672 
C 384 448 474 289 544 200 
C 211 -3 166 -314 166 -435 
C 166 -898 749 -1280 1498 -1280 
C 2253 -1280 2835 -898 2835 -428 
C 2835 448 1856 448 1587 448 
L 1069 448 
C 973 448 717 448 717 791 
C 717 921 774 1004 781 1010 
C 877 940 1075 832 1338 832 
C 1869 832 2310 1278 2310 1827 
C 2310 2132 2170 2355 2112 2432 
L 2131 2432 
C 2150 2432 2419 2432 2515 2432 
C 2720 2432 2739 2429 2918 2419 
L 2848 2808 
z
M 1338 1182 
C 1120 1182 813 1315 813 1823 
C 813 2375 1165 2464 1331 2464 
C 1549 2464 1856 2331 1856 1823 
C 1856 1271 1504 1182 1338 1182 
z
M 1581 -10 
C 1734 -10 2381 -10 2381 -442 
C 2381 -714 1984 -929 1504 -929 
C 1018 -929 621 -720 621 -435 
C 621 -403 621 -10 1062 -10 
L 1581 -10 
z
" transform="scale(0.015625)"/>
     </defs>
     <use xlink:href="#CMSS17-42" transform="scale(0.996264)"/>
     <use xlink:href="#CMSS17-65" transform="translate(62.33804 0) scale(0.996264)"/>
     <use xlink:href="#CMSS17-67" transform="translate(103.976862 0) scale(0.996264)"/>
     <use xlink:href="#CMSS17-69" transform="translate(150.820486 0) scale(0.996264)"/>
     <use xlink:href="#CMSS17-6e" transform="translate(173.001209 0) scale(0.996264)"/>
     <use xlink:href="#CMSS17-73" transform="translate(221.206152 0) scale(0.996264)"/>
    </g>
   </g>
   <g id="text_28">
    <!-- Sale -->
    <g style="fill: #8b2be2" transform="translate(139.718243 39.460014) scale(0.11 -0.11)">
     <use xlink:href="#CMSS17-53" transform="scale(0.996264)"/>
     <use xlink:href="#CMSS17-61" transform="translate(52.048516 0) scale(0.996264)"/>
     <use xlink:href="#CMSS17-6c" transform="translate(96.970437 0) scale(0.996264)"/>
     <use xlink:href="#CMSS17-65" transform="translate(119.15116 0) scale(0.996264)"/>
    </g>
    <!-- Ends -->
    <g style="fill: #8b2be2" transform="translate(139.718243 50.723325) scale(0.11 -0.11)">
     <defs>
      <path id="CMSS17-64" d="M 2611 4416 
L 2138 4416 
L 2138 2438 
C 1939 2603 1613 2756 1254 2756 
C 672 2756 211 2131 211 1347 
C 211 562 666 -64 1235 -64 
C 1677 -64 1971 172 2125 306 
L 2125 -13 
L 2611 -13 
L 2611 4416 
z
M 2125 836 
C 2125 747 2125 653 1926 482 
C 1798 375 1645 325 1498 325 
C 1152 325 698 576 698 1340 
C 698 2134 1210 2368 1562 2368 
C 1798 2368 1990 2254 2125 2065 
L 2125 836 
z
" transform="scale(0.015625)"/>
     </defs>
     <use xlink:href="#CMSS17-45" transform="scale(0.996264)"/>
     <use xlink:href="#CMSS17-6e" transform="translate(55.892013 0) scale(0.996264)"/>
     <use xlink:href="#CMSS17-64" transform="translate(104.096956 0) scale(0.996264)"/>
     <use xlink:href="#CMSS17-73" transform="translate(152.301899 0) scale(0.996264)"/>
    </g>
   </g>
   <g id="text_29">
    <!-- SUPERy Hourly Yield Curve -->
    <g style="fill: #262626" transform="translate(247.885802 23.836997) scale(0.2 -0.2)">
     <defs>
      <path id="CMSS17-55" d="M 3552 4384 
L 3066 4384 
L 3066 1449 
C 3066 604 2547 229 2074 229 
C 1587 229 1101 623 1101 1443 
L 1101 4384 
L 563 4384 
L 563 1454 
C 563 539 1274 -128 2067 -128 
C 2861 -128 3552 539 3552 1454 
L 3552 4384 
z
" transform="scale(0.015625)"/>
      <path id="CMSS17-50" d="M 2106 1856 
C 2874 1856 3501 2453 3501 3158 
C 3501 3850 2899 4453 2067 4453 
L 570 4453 
L 570 0 
L 1107 0 
L 1107 1856 
L 2106 1856 
z
M 1926 4096 
C 2669 4096 2995 3627 2995 3157 
C 2995 2720 2694 2226 1926 2226 
L 1094 2226 
L 1094 4096 
L 1926 4096 
z
" transform="scale(0.015625)"/>
      <path id="CMSS17-52" d="M 2522 2109 
L 2534 2115 
C 3533 2459 3539 3147 3539 3268 
C 3539 3873 2925 4453 2003 4453 
L 570 4453 
L 570 32 
L 1094 32 
L 1094 2048 
L 2035 2048 
L 3168 32 
L 3706 32 
L 2522 2109 
z
M 1094 2437 
L 1094 4096 
L 1933 4096 
C 2746 4096 3034 3637 3034 3267 
C 3034 2922 2778 2437 1933 2437 
L 1094 2437 
z
" transform="scale(0.015625)"/>
      <path id="CMSS17-59" d="M 3974 4416 
L 3424 4416 
L 2432 2877 
C 2355 2755 2138 2425 2035 2240 
L 1722 2743 
L 646 4416 
L 19 4416 
L 1734 1769 
L 1734 0 
L 2259 0 
L 2259 1763 
L 3974 4416 
z
" transform="scale(0.015625)"/>
      <path id="CMSS17-43" d="M 3501 714 
C 3072 427 2874 344 2355 344 
C 1459 344 934 1303 934 2179 
C 934 3112 1472 4032 2381 4032 
C 2790 4032 3059 3918 3386 3715 
L 3475 4217 
C 3168 4370 2778 4440 2387 4440 
C 1158 4440 397 3316 397 2179 
C 397 927 1299 -64 2323 -64 
C 2874 -64 3066 -19 3539 280 
L 3501 714 
z
" transform="scale(0.015625)"/>
      <path id="CMSS17-76" d="M 2675 2752 
L 2176 2752 
L 1747 1556 
C 1613 1165 1421 627 1389 352 
L 1382 352 
C 1370 468 1318 634 1286 749 
C 1248 890 1197 1056 1158 1172 
L 595 2752 
L 83 2752 
L 1094 0 
L 1664 0 
L 2675 2752 
z
" transform="scale(0.015625)"/>
     </defs>
     <use xlink:href="#CMSS17-53" transform="scale(0.996264)"/>
     <use xlink:href="#CMSS17-55" transform="translate(52.048516 0) scale(0.996264)"/>
     <use xlink:href="#CMSS17-50" transform="translate(116.188256 0) scale(0.996264)"/>
     <use xlink:href="#CMSS17-45" transform="translate(175.923843 0) scale(0.996264)"/>
     <use xlink:href="#CMSS17-52" transform="translate(231.815856 0) scale(0.996264)"/>
     <use xlink:href="#CMSS17-79" transform="translate(292.232011 0) scale(0.996264)"/>
     <use xlink:href="#CMSS17-48" transform="translate(366.461265 0) scale(0.996264)"/>
     <use xlink:href="#CMSS17-6f" transform="translate(432.522784 0) scale(0.996264)"/>
     <use xlink:href="#CMSS17-75" transform="translate(479.366408 0) scale(0.996264)"/>
     <use xlink:href="#CMSS17-72" transform="translate(527.571351 0) scale(0.996264)"/>
     <use xlink:href="#CMSS17-6c" transform="translate(559.481124 0) scale(0.996264)"/>
     <use xlink:href="#CMSS17-79" transform="translate(581.661847 0) scale(0.996264)"/>
     <use xlink:href="#CMSS17-59" transform="translate(655.891101 0) scale(0.996264)"/>
     <use xlink:href="#CMSS17-69" transform="translate(718.108956 0) scale(0.996264)"/>
     <use xlink:href="#CMSS17-65" transform="translate(740.289679 0) scale(0.996264)"/>
     <use xlink:href="#CMSS17-6c" transform="translate(781.928501 0) scale(0.996264)"/>
     <use xlink:href="#CMSS17-64" transform="translate(804.109224 0) scale(0.996264)"/>
     <use xlink:href="#CMSS17-43" transform="translate(883.54328 0) scale(0.996264)"/>
     <use xlink:href="#CMSS17-75" transform="translate(943.399052 0) scale(0.996264)"/>
     <use xlink:href="#CMSS17-72" transform="translate(991.603995 0) scale(0.996264)"/>
     <use xlink:href="#CMSS17-76" transform="translate(1023.513767 0) scale(0.996264)"/>
     <use xlink:href="#CMSS17-65" transform="translate(1066.513909 0) scale(0.996264)"/>
    </g>
   </g>
   <g id="legend_1">
    <g id="patch_7">
     <path d="M 439.369238 74.260847 
L 625.75 74.260847 
Q 629.25 74.260847 629.25 70.760847 
L 629.25 42.086997 
Q 629.25 38.586997 625.75 38.586997 
L 439.369238 38.586997 
Q 435.869238 38.586997 435.869238 42.086997 
L 435.869238 70.760847 
Q 435.869238 74.260847 439.369238 74.260847 
z
" style="fill: #ffffff; opacity: 0.8; stroke: #cccccc; stroke-width: 0.39; stroke-linejoin: miter"/>
    </g>
    <g id="line2d_28">
     <path d="M 442.869238 54.19146 
L 460.369238 54.19146 
L 477.869238 54.19146 
" style="fill: none; stroke: #3333ff; stroke-width: 2.275; stroke-linecap: round"/>
    </g>
    <g id="text_30">
     <!-- $f(t) = \pi t + \frac{807305 e}{e t + 1}$ -->
     <g style="fill: #262626" transform="translate(491.869238 60.31646) scale(0.175 -0.175)">
      <defs>
       <path id="CMMI12-66" d="M 2854 2566 
C 2982 2566 3034 2566 3034 2688 
C 3034 2752 2982 2752 2867 2752 
L 2349 2752 
C 2470 3429 2560 3897 2611 4107 
C 2650 4265 2784 4416 2950 4416 
C 3085 4416 3219 4358 3283 4298 
C 3034 4272 2957 4082 2957 3969 
C 2957 3837 3053 3759 3174 3759 
C 3302 3759 3494 3870 3494 4119 
C 3494 4393 3226 4544 2944 4544 
C 2669 4544 2400 4334 2272 4078 
C 2157 3848 2093 3611 1946 2752 
L 1517 2752 
C 1395 2752 1331 2752 1331 2637 
C 1331 2566 1370 2566 1498 2566 
L 1907 2566 
C 1792 1976 1530 542 1382 -137 
C 1274 -689 1178 -1152 858 -1152 
C 838 -1152 653 -1152 538 -1031 
C 864 -1005 864 -726 864 -720 
C 864 -593 768 -517 646 -517 
C 518 -517 326 -625 326 -867 
C 326 -1140 608 -1280 858 -1280 
C 1510 -1280 1779 -118 1850 199 
C 1965 688 2278 2376 2310 2566 
L 2854 2566 
z
" transform="scale(0.015625)"/>
       <path id="CMR17-28" d="M 1958 -1561 
C 1958 -1555 1958 -1542 1939 -1523 
C 1645 -1224 858 -407 858 1581 
C 858 3569 1632 4379 1946 4697 
C 1946 4704 1958 4717 1958 4736 
C 1958 4755 1939 4768 1914 4768 
C 1843 4768 1299 4296 986 3594 
C 666 2887 576 2199 576 1588 
C 576 1128 621 351 1005 -471 
C 1312 -1135 1837 -1600 1914 -1600 
C 1946 -1600 1958 -1587 1958 -1561 
z
" transform="scale(0.015625)"/>
       <path id="CMMI12-74" d="M 1286 2566 
L 1875 2566 
C 1997 2566 2061 2566 2061 2681 
C 2061 2752 2022 2752 1894 2752 
L 1331 2752 
L 1568 3692 
C 1594 3781 1594 3794 1594 3840 
C 1594 3943 1510 4000 1427 4000 
C 1376 4000 1229 3981 1178 3775 
L 928 2752 
L 326 2752 
C 198 2752 141 2752 141 2630 
C 141 2566 186 2566 307 2566 
L 877 2566 
L 454 881 
C 403 658 384 594 384 511 
C 384 211 595 -64 954 -64 
C 1600 -64 1946 868 1946 912 
C 1946 951 1920 970 1882 970 
C 1869 970 1843 970 1830 944 
C 1824 938 1818 931 1773 829 
C 1638 511 1344 64 973 64 
C 781 64 768 224 768 364 
C 768 370 768 492 787 568 
L 1286 2566 
z
" transform="scale(0.015625)"/>
       <path id="CMR17-29" d="M 1683 1581 
C 1683 2040 1638 2817 1254 3639 
C 947 4303 422 4768 346 4768 
C 326 4768 301 4761 301 4729 
C 301 4717 307 4710 314 4697 
C 621 4378 1402 3568 1402 1584 
C 1402 -407 627 -1217 314 -1537 
C 307 -1549 301 -1556 301 -1568 
C 301 -1600 326 -1600 346 -1600 
C 416 -1600 960 -1128 1274 -426 
C 1594 281 1683 969 1683 1581 
z
" transform="scale(0.015625)"/>
       <path id="CMR17-3d" d="M 4115 2017 
C 4211 2017 4307 2017 4307 2125 
C 4307 2240 4198 2240 4090 2240 
L 512 2240 
C 403 2240 294 2240 294 2125 
C 294 2017 390 2017 486 2017 
L 4115 2017 
z
M 4090 896 
C 4198 896 4307 896 4307 1011 
C 4307 1119 4211 1119 4115 1119 
L 486 1119 
C 390 1119 294 1119 294 1011 
C 294 896 403 896 512 896 
L 4090 896 
z
" transform="scale(0.015625)"/>
       <path id="CMMI12-19" d="M 1658 2408 
L 2381 2408 
C 2208 1692 2099 1226 2099 716 
C 2099 626 2099 -64 2362 -64 
C 2496 -64 2611 57 2611 166 
C 2611 197 2611 210 2566 306 
C 2394 747 2394 1296 2394 1341 
C 2394 1379 2394 1832 2528 2408 
L 3245 2408 
C 3328 2408 3539 2408 3539 2612 
C 3539 2752 3418 2752 3302 2752 
L 1197 2752 
C 1050 2752 832 2752 538 2440 
C 371 2254 166 1916 166 1878 
C 166 1840 198 1827 237 1827 
C 282 1827 288 1846 320 1884 
C 653 2408 986 2408 1146 2408 
L 1510 2408 
C 1370 1929 1210 1373 685 256 
C 634 154 634 140 634 102 
C 634 -32 749 -64 806 -64 
C 992 -64 1043 102 1120 370 
C 1222 696 1222 709 1286 964 
L 1658 2408 
z
" transform="scale(0.015625)"/>
       <path id="CMR17-2b" d="M 2413 1472 
L 4109 1472 
C 4198 1472 4307 1472 4307 1580 
C 4307 1695 4205 1695 4109 1695 
L 2413 1695 
L 2413 3386 
C 2413 3475 2413 3584 2304 3584 
C 2189 3584 2189 3482 2189 3386 
L 2189 1695 
L 493 1695 
C 403 1695 294 1695 294 1587 
C 294 1472 397 1472 493 1472 
L 2189 1472 
L 2189 -218 
C 2189 -307 2189 -416 2298 -416 
C 2413 -416 2413 -314 2413 -218 
L 2413 1472 
z
" transform="scale(0.015625)"/>
       <path id="CMR17-38" d="M 1741 2264 
C 2144 2467 2554 2773 2554 3263 
C 2554 3841 1990 4179 1472 4179 
C 890 4179 378 3759 378 3180 
C 378 3021 416 2747 666 2505 
C 730 2442 998 2251 1171 2130 
C 883 1983 211 1634 211 934 
C 211 279 838 -128 1459 -128 
C 2144 -128 2720 362 2720 1010 
C 2720 1590 2330 1857 2074 2029 
L 1741 2264 
z
M 902 2822 
C 851 2854 595 3051 595 3351 
C 595 3739 998 4032 1459 4032 
C 1965 4032 2336 3676 2336 3262 
C 2336 2669 1670 2331 1638 2331 
C 1632 2331 1626 2331 1574 2370 
L 902 2822 
z
M 2080 1519 
C 2176 1449 2483 1240 2483 851 
C 2483 381 2010 25 1472 25 
C 890 25 448 438 448 940 
C 448 1443 838 1862 1280 2060 
L 2080 1519 
z
" transform="scale(0.015625)"/>
       <path id="CMR17-30" d="M 2688 2025 
C 2688 2416 2682 3080 2413 3591 
C 2176 4039 1798 4198 1466 4198 
C 1158 4198 768 4058 525 3597 
C 269 3118 243 2524 243 2025 
C 243 1661 250 1106 448 619 
C 723 -39 1216 -128 1466 -128 
C 1760 -128 2208 -7 2470 600 
C 2662 1042 2688 1559 2688 2025 
z
M 1466 -26 
C 1056 -26 813 325 723 812 
C 653 1188 653 1738 653 2096 
C 653 2588 653 2997 736 3387 
C 858 3929 1216 4096 1466 4096 
C 1728 4096 2067 3923 2189 3400 
C 2272 3036 2278 2607 2278 2096 
C 2278 1680 2278 1169 2202 792 
C 2067 95 1690 -26 1466 -26 
z
" transform="scale(0.015625)"/>
       <path id="CMR17-37" d="M 2886 3941 
L 2886 4081 
L 1382 4081 
C 634 4081 621 4165 595 4288 
L 480 4288 
L 294 3094 
L 410 3094 
C 429 3215 474 3540 550 3661 
C 589 3712 1062 3712 1171 3712 
L 2579 3712 
L 1869 2661 
C 1395 1954 1069 999 1069 165 
C 1069 89 1069 -128 1299 -128 
C 1530 -128 1530 89 1530 171 
L 1530 465 
C 1530 1508 1709 2196 2003 2636 
L 2886 3941 
z
" transform="scale(0.015625)"/>
       <path id="CMR17-33" d="M 1414 2157 
C 1984 2157 2234 1662 2234 1090 
C 2234 320 1824 25 1453 25 
C 1114 25 563 194 390 693 
C 422 680 454 680 486 680 
C 640 680 755 782 755 948 
C 755 1133 614 1216 486 1216 
C 378 1216 211 1165 211 926 
C 211 335 787 -128 1466 -128 
C 2176 -128 2720 430 2720 1085 
C 2720 1707 2208 2157 1600 2227 
C 2086 2328 2554 2756 2554 3329 
C 2554 3820 2048 4179 1472 4179 
C 890 4179 378 3829 378 3329 
C 378 3110 544 3072 627 3072 
C 762 3072 877 3155 877 3321 
C 877 3486 762 3569 627 3569 
C 602 3569 570 3569 544 3557 
C 730 3959 1235 4032 1459 4032 
C 1683 4032 2106 3925 2106 3320 
C 2106 3143 2080 2828 1862 2550 
C 1670 2304 1453 2304 1242 2284 
C 1210 2284 1062 2269 1037 2269 
C 992 2263 966 2257 966 2208 
C 966 2163 973 2157 1101 2157 
L 1414 2157 
z
" transform="scale(0.015625)"/>
       <path id="CMR17-35" d="M 730 3692 
C 794 3666 1056 3584 1325 3584 
C 1920 3584 2246 3911 2432 4100 
C 2432 4157 2432 4192 2394 4192 
C 2387 4192 2374 4192 2323 4163 
C 2099 4058 1837 3973 1517 3973 
C 1325 3973 1037 3999 723 4139 
C 653 4171 640 4171 634 4171 
C 602 4171 595 4164 595 4037 
L 595 2203 
C 595 2089 595 2057 659 2057 
C 691 2057 704 2070 736 2114 
C 941 2401 1222 2522 1542 2522 
C 1766 2522 2246 2382 2246 1289 
C 2246 1085 2246 715 2054 421 
C 1894 159 1645 25 1370 25 
C 947 25 518 320 403 814 
C 429 807 480 795 506 795 
C 589 795 749 840 749 1038 
C 749 1210 627 1280 506 1280 
C 358 1280 262 1190 262 1011 
C 262 454 704 -128 1382 -128 
C 2042 -128 2669 440 2669 1264 
C 2669 2030 2170 2624 1549 2624 
C 1222 2624 947 2503 730 2274 
L 730 3692 
z
" transform="scale(0.015625)"/>
       <path id="CMMI12-65" d="M 1146 1479 
C 1318 1479 1754 1479 2061 1595 
C 2547 1783 2592 2158 2592 2274 
C 2592 2558 2349 2816 1926 2816 
C 1254 2816 288 2210 288 1073 
C 288 402 672 -64 1254 -64 
C 2125 -64 2675 609 2675 692 
C 2675 730 2637 762 2611 762 
C 2592 762 2586 756 2528 699 
C 2118 159 1510 64 1267 64 
C 902 64 710 350 710 822 
C 710 911 710 1071 806 1479 
L 1146 1479 
z
M 838 1600 
C 1114 2592 1722 2689 1926 2689 
C 2208 2689 2400 2522 2400 2277 
C 2400 1600 1376 1600 1107 1600 
L 838 1600 
z
" transform="scale(0.015625)"/>
       <path id="CMR17-31" d="M 1702 4058 
C 1702 4192 1696 4192 1606 4192 
C 1357 3916 979 3827 621 3827 
C 602 3827 570 3827 563 3808 
C 557 3795 557 3782 557 3648 
C 755 3648 1088 3686 1344 3839 
L 1344 461 
C 1344 236 1331 160 781 160 
L 589 160 
L 589 0 
C 896 0 1216 0 1523 0 
C 1830 0 2150 0 2458 0 
L 2458 160 
L 2266 160 
C 1715 160 1702 230 1702 458 
L 1702 4058 
z
" transform="scale(0.015625)"/>
      </defs>
      <use xlink:href="#CMMI12-66" transform="scale(0.996264)"/>
      <use xlink:href="#CMR17-28" transform="translate(58.720305 0) scale(0.996264)"/>
      <use xlink:href="#CMMI12-74" transform="translate(94.001073 0) scale(0.996264)"/>
      <use xlink:href="#CMR17-29" transform="translate(129.227403 0) scale(0.996264)"/>
      <use xlink:href="#CMR17-3d" transform="translate(192.182179 0) scale(0.996264)"/>
      <use xlink:href="#CMMI12-19" transform="translate(291.570977 0) scale(0.996264)"/>
      <use xlink:href="#CMMI12-74" transform="translate(350.481577 0) scale(0.996264)"/>
      <use xlink:href="#CMR17-2b" transform="translate(407.847114 0) scale(0.996264)"/>
      <use xlink:href="#CMR17-38" transform="translate(502.896624 39.226102) scale(0.697382)"/>
      <use xlink:href="#CMR17-30" transform="translate(534.879806 39.226102) scale(0.697382)"/>
      <use xlink:href="#CMR17-37" transform="translate(566.862988 39.226102) scale(0.697382)"/>
      <use xlink:href="#CMR17-33" transform="translate(598.84617 39.226102) scale(0.697382)"/>
      <use xlink:href="#CMR17-30" transform="translate(630.829351 39.226102) scale(0.697382)"/>
      <use xlink:href="#CMR17-35" transform="translate(662.812533 39.226102) scale(0.697382)"/>
      <use xlink:href="#CMMI12-65" transform="translate(694.795715 39.226102) scale(0.697382)"/>
      <use xlink:href="#CMMI12-65" transform="translate(545.425358 -34.355253) scale(0.697382)"/>
      <use xlink:href="#CMMI12-74" transform="translate(577.073614 -34.355253) scale(0.697382)"/>
      <use xlink:href="#CMR17-2b" transform="translate(601.731924 -34.355253) scale(0.697382)"/>
      <use xlink:href="#CMR17-31" transform="translate(651.932055 -34.355253) scale(0.697382)"/>
      <path d="M 502.896624 22.914133 
L 726.443972 22.914133 
L 726.443972 26.899083 
L 502.896624 26.899083 
L 502.896624 22.914133 
z
"/>
     </g>
    </g>
   </g>
  </g>
 </g>
 <defs>
  <clipPath id="p55876d9431">
   <rect x="79.402069" y="29.836997" width="558.597931" height="282.309422"/>
  </clipPath>
 </defs>
</svg>
