<?xml version="1.0" encoding="utf-8" standalone="no"?>
<!DOCTYPE svg PUBLIC "-//W3C//DTD SVG 1.1//EN"
  "http://www.w3.org/Graphics/SVG/1.1/DTD/svg11.dtd">
<svg xmlns:xlink="http://www.w3.org/1999/xlink" width="648pt" height="432pt" viewBox="0 0 648 432" xmlns="http://www.w3.org/2000/svg" version="1.1">
 <metadata>
  <rdf:RDF xmlns:dc="http://purl.org/dc/elements/1.1/" xmlns:cc="http://creativecommons.org/ns#" xmlns:rdf="http://www.w3.org/1999/02/22-rdf-syntax-ns#">
   <cc:Work>
    <dc:type rdf:resource="http://purl.org/dc/dcmitype/StillImage"/>
    <dc:date>2024-05-31T20:03:58.311336</dc:date>
    <dc:format>image/svg+xml</dc:format>
    <dc:creator>
     <cc:Agent>
      <dc:title>Matplotlib v3.8.3, https://matplotlib.org/</dc:title>
     </cc:Agent>
    </dc:creator>
   </cc:Work>
  </rdf:RDF>
 </metadata>
 <defs>
  <style type="text/css">*{stroke-linejoin: round; stroke-linecap: butt}</style>
 </defs>
 <g id="figure_1">
  <g id="patch_1">
   <path d="M 0 432 
L 648 432 
L 648 0 
L 0 0 
z
" style="fill: #ffffff"/>
  </g>
  <g id="axes_1">
   <g id="matplotlib.axis_1"/>
   <g id="matplotlib.axis_2"/>
   <g id="patch_2">
    <path d="M 207.903595 159.564363 
C 193.143767 177.154441 182.755055 197.990974 177.58968 220.364671 
C 172.424306 242.738367 172.627484 266.020231 178.182548 288.300371 
C 183.737612 310.580511 194.488391 331.232562 209.552961 348.562366 
C 224.617531 365.89217 243.57238 379.412531 264.862577 388.014327 
C 286.152775 396.616123 309.179784 400.057531 332.054622 398.056239 
C 354.92946 396.054948 377.009042 388.667221 396.482105 376.499098 
C 415.955167 364.330975 432.274261 347.724541 444.100674 328.042078 
C 455.927087 308.359616 462.928342 286.154461 464.530102 263.248179 
L 319.372387 253.097785 
z
" style="fill: #2883fa; stroke: #ffffff; stroke-width: 0.39; stroke-linejoin: miter"/>
   </g>
   <g id="patch_3">
    <path d="M 473.7852 257.46495 
C 475.92842 226.815413 468.310239 196.260581 452.028795 170.204832 
C 435.74735 144.149083 411.624433 123.907559 383.137282 112.398009 
L 328.627485 247.314556 
z
" style="fill: #c295ff; stroke: #ffffff; stroke-width: 0.39; stroke-linejoin: miter"/>
   </g>
   <g id="patch_4">
    <path d="M 371.241988 107.592 
C 342.754838 96.08245 311.341318 93.885808 281.529586 101.318714 
C 251.717853 108.751619 225.012628 125.438902 205.263382 148.975146 
L 316.732192 242.508547 
z
" style="fill: #4eff9a; stroke: #ffffff; stroke-width: 0.39; stroke-linejoin: miter"/>
   </g>
   <g id="text_1">
    <!-- Other -->
    <g style="fill: #262626" transform="translate(221.238794 418.484559) scale(0.14 -0.14)">
     <defs>
      <path id="CMSS17-4f" d="M 4096 2178 
C 4096 3503 3219 4497 2214 4497 
C 1210 4497 333 3497 333 2178 
C 333 847 1222 -128 2214 -128 
C 3206 -128 4096 847 4096 2178 
z
M 2214 273 
C 1510 273 870 1057 870 2261 
C 870 3433 1549 4096 2214 4096 
C 2880 4096 3558 3433 3558 2261 
C 3558 1051 2912 273 2214 273 
z
" transform="scale(0.015625)"/>
      <path id="CMSS17-74" d="M 1069 2368 
L 1901 2368 
L 1901 2737 
L 1069 2737 
L 1069 3520 
L 614 3520 
L 614 2737 
L 109 2737 
L 109 2368 
L 602 2368 
L 602 749 
C 602 384 685 -64 1107 -64 
C 1427 -64 1722 25 2003 172 
L 1901 548 
C 1747 414 1562 337 1363 337 
C 1082 337 1069 696 1069 856 
L 1069 2368 
z
" transform="scale(0.015625)"/>
      <path id="CMSS17-68" d="M 2618 1891 
C 2618 2292 2522 2820 1798 2820 
C 1395 2820 1133 2623 947 2407 
L 947 4448 
L 474 4448 
L 474 32 
L 960 32 
L 960 1573 
C 960 1973 1114 2432 1549 2432 
C 2112 2432 2131 2056 2131 1839 
L 2131 32 
L 2618 32 
L 2618 1891 
z
" transform="scale(0.015625)"/>
      <path id="CMSS17-65" d="M 2502 1377 
C 2502 1590 2490 2003 2285 2345 
C 2061 2713 1696 2816 1421 2816 
C 755 2816 192 2188 192 1375 
C 192 582 774 -64 1510 -64 
C 1798 -64 2150 19 2470 248 
C 2470 274 2458 414 2451 420 
C 2451 433 2432 630 2432 656 
C 2125 407 1773 325 1517 325 
C 1107 325 666 667 646 1377 
L 2502 1377 
z
M 698 1728 
C 781 2084 1062 2421 1421 2421 
C 1517 2421 1965 2421 2080 1728 
L 698 1728 
z
" transform="scale(0.015625)"/>
      <path id="CMSS17-72" d="M 954 1363 
C 954 1965 1395 2368 1958 2368 
L 1958 2789 
C 1549 2789 1165 2585 934 2253 
L 934 2758 
L 480 2758 
L 480 0 
L 954 0 
L 954 1363 
z
" transform="scale(0.015625)"/>
     </defs>
     <use xlink:href="#CMSS17-4f" transform="scale(0.996264)"/>
     <use xlink:href="#CMSS17-74" transform="translate(69.024255 0) scale(0.996264)"/>
     <use xlink:href="#CMSS17-68" transform="translate(102.855822 0) scale(0.996264)"/>
     <use xlink:href="#CMSS17-65" transform="translate(151.060765 0) scale(0.996264)"/>
     <use xlink:href="#CMSS17-72" transform="translate(192.699587 0) scale(0.996264)"/>
    </g>
   </g>
   <g id="text_2">
    <!-- $\bf{60}\%$ -->
    <g style="fill: #262626" transform="translate(262.228553 357.350402) scale(0.14 -0.14)">
     <defs>
      <path id="CMBX12-36" d="M 1114 2320 
C 1114 2709 1133 3106 1312 3450 
C 1453 3719 1779 3968 2195 3968 
C 2317 3968 2547 3949 2701 3789 
C 2458 3764 2355 3585 2355 3412 
C 2355 3181 2528 3034 2733 3034 
C 2899 3034 3110 3143 3110 3424 
C 3110 3807 2854 4197 2182 4197 
C 1382 4197 301 3699 301 2035 
C 301 1607 301 -64 1818 -64 
C 2662 -64 3290 433 3290 1325 
C 3290 2217 2669 2688 1907 2688 
C 1779 2688 1370 2688 1114 2147 
L 1114 2320 
z
M 1811 190 
C 1402 190 1242 534 1216 585 
C 1126 796 1126 1306 1126 1363 
C 1126 2147 1466 2479 1843 2479 
C 2477 2479 2477 1969 2477 1331 
C 2477 700 2477 190 1811 190 
z
" transform="scale(0.015625)"/>
      <path id="CMBX12-30" d="M 3309 2038 
C 3309 2648 3309 4178 1798 4178 
C 282 4178 282 2654 282 2038 
C 282 1428 282 -64 1792 -64 
C 3302 -64 3309 1409 3309 2038 
z
M 1798 146 
C 1594 146 1440 228 1312 362 
C 1152 521 1050 621 1050 2114 
C 1050 2559 1050 2964 1101 3295 
C 1190 3924 1651 3968 1792 3968 
C 1997 3968 2394 3873 2483 3340 
C 2541 3015 2541 2501 2541 2114 
C 2541 615 2445 527 2253 336 
C 2125 209 1952 146 1798 146 
z
" transform="scale(0.015625)"/>
      <path id="CMR17-25" d="M 4640 959 
C 4640 1698 4275 2240 3846 2240 
C 3411 2240 2970 1736 2970 959 
C 2970 183 3405 -320 3846 -320 
C 4275 -320 4640 215 4640 959 
z
M 3853 -218 
C 3686 -218 3270 -66 3270 959 
C 3270 1991 3686 2138 3853 2138 
C 4205 2138 4525 1634 4525 959 
C 4525 285 4205 -218 3853 -218 
z
M 4083 4577 
C 4128 4647 4134 4653 4134 4685 
C 4134 4761 4077 4800 4026 4800 
C 3962 4800 3936 4756 3891 4706 
C 3520 4190 3008 4134 2746 4134 
C 2106 4134 1715 4494 1594 4607 
C 1510 4682 1389 4800 1171 4800 
C 736 4800 294 4296 294 3519 
C 294 2743 730 2240 1171 2240 
C 1600 2240 1965 2778 1965 3527 
C 1965 3969 1830 4270 1811 4308 
C 2202 4064 2586 4032 2752 4032 
C 3162 4032 3456 4183 3616 4289 
L 3622 4283 
L 858 -84 
C 800 -174 800 -187 800 -206 
C 800 -276 858 -320 915 -320 
C 973 -320 992 -289 1037 -218 
L 4083 4577 
z
M 1178 2342 
C 1011 2342 595 2494 595 3519 
C 595 4551 1011 4698 1178 4698 
C 1530 4698 1850 4194 1850 3519 
C 1850 2845 1530 2342 1178 2342 
z
" transform="scale(0.015625)"/>
     </defs>
     <use xlink:href="#CMBX12-36" transform="scale(0.996264)"/>
     <use xlink:href="#CMBX12-30" transform="translate(56.039851 0) scale(0.996264)"/>
     <use xlink:href="#CMR17-25" transform="translate(112.079701 0) scale(0.996264)"/>
    </g>
    <!-- \fontsize{12}{0} -->
    <g style="fill: #262626" transform="translate(275.764539 371.685483) scale(0.14 -0.14)"/>
   </g>
   <g id="text_3">
    <!-- SUPER -->
    <g style="fill: #262626" transform="translate(476.709056 151.102271) scale(0.14 -0.14)">
     <defs>
      <path id="CMSS17-53" d="M 2797 4169 
C 2515 4334 2208 4480 1690 4480 
C 864 4480 333 3879 333 3266 
C 333 3025 403 2753 653 2475 
C 902 2196 1184 2121 1542 2033 
C 1690 1994 1939 1924 1984 1906 
C 2342 1767 2515 1444 2515 1140 
C 2515 742 2202 318 1645 318 
C 1453 318 890 318 358 819 
L 269 318 
C 794 -64 1363 -128 1651 -128 
C 2438 -128 3002 488 3002 1186 
C 3002 1440 2925 1763 2656 2061 
C 2394 2347 2163 2410 1638 2549 
C 1338 2626 1146 2677 986 2873 
C 877 3013 819 3146 819 3317 
C 819 3673 1126 4060 1690 4060 
C 1971 4060 2336 4002 2707 3660 
L 2797 4169 
z
" transform="scale(0.015625)"/>
      <path id="CMSS17-55" d="M 3552 4384 
L 3066 4384 
L 3066 1449 
C 3066 604 2547 229 2074 229 
C 1587 229 1101 623 1101 1443 
L 1101 4384 
L 563 4384 
L 563 1454 
C 563 539 1274 -128 2067 -128 
C 2861 -128 3552 539 3552 1454 
L 3552 4384 
z
" transform="scale(0.015625)"/>
      <path id="CMSS17-50" d="M 2106 1856 
C 2874 1856 3501 2453 3501 3158 
C 3501 3850 2899 4453 2067 4453 
L 570 4453 
L 570 0 
L 1107 0 
L 1107 1856 
L 2106 1856 
z
M 1926 4096 
C 2669 4096 2995 3627 2995 3157 
C 2995 2720 2694 2226 1926 2226 
L 1094 2226 
L 1094 4096 
L 1926 4096 
z
" transform="scale(0.015625)"/>
      <path id="CMSS17-45" d="M 1958 433 
C 1446 433 1216 433 1101 433 
L 1101 2107 
L 3085 2107 
L 3085 2496 
L 1101 2496 
L 1101 4009 
L 1926 4009 
C 2003 4009 2080 4009 2157 4009 
L 3251 4009 
L 3251 4416 
L 563 4416 
L 563 0 
L 3334 0 
L 3334 433 
L 1958 433 
z
" transform="scale(0.015625)"/>
      <path id="CMSS17-52" d="M 2522 2109 
L 2534 2115 
C 3533 2459 3539 3147 3539 3268 
C 3539 3873 2925 4453 2003 4453 
L 570 4453 
L 570 32 
L 1094 32 
L 1094 2048 
L 2035 2048 
L 3168 32 
L 3706 32 
L 2522 2109 
z
M 1094 2437 
L 1094 4096 
L 1933 4096 
C 2746 4096 3034 3637 3034 3267 
C 3034 2922 2778 2437 1933 2437 
L 1094 2437 
z
" transform="scale(0.015625)"/>
     </defs>
     <use xlink:href="#CMSS17-53" transform="scale(0.996264)"/>
     <use xlink:href="#CMSS17-55" transform="translate(52.048516 0) scale(0.996264)"/>
     <use xlink:href="#CMSS17-50" transform="translate(116.188256 0) scale(0.996264)"/>
     <use xlink:href="#CMSS17-45" transform="translate(175.923843 0) scale(0.996264)"/>
     <use xlink:href="#CMSS17-52" transform="translate(231.815856 0) scale(0.996264)"/>
    </g>
    <!-- Holders -->
    <g style="fill: #262626" transform="translate(476.709056 165.437351) scale(0.14 -0.14)">
     <defs>
      <path id="CMSS17-48" d="M 3674 4416 
L 3136 4416 
L 3136 2501 
L 1101 2501 
L 1101 4416 
L 563 4416 
L 563 0 
L 1101 0 
L 1101 2112 
L 3136 2112 
L 3136 0 
L 3674 0 
L 3674 4416 
z
" transform="scale(0.015625)"/>
      <path id="CMSS17-6f" d="M 2829 1356 
C 2829 2176 2221 2816 1504 2816 
C 768 2816 173 2157 173 1356 
C 173 544 787 -64 1498 -64 
C 2227 -64 2829 563 2829 1356 
z
M 1504 337 
C 1050 337 659 709 659 1408 
C 659 2151 1114 2427 1498 2427 
C 1914 2427 2342 2126 2342 1408 
C 2342 683 1926 337 1504 337 
z
" transform="scale(0.015625)"/>
      <path id="CMSS17-6c" d="M 947 4416 
L 474 4416 
L 474 0 
L 947 0 
L 947 4416 
z
" transform="scale(0.015625)"/>
      <path id="CMSS17-64" d="M 2611 4416 
L 2138 4416 
L 2138 2438 
C 1939 2603 1613 2756 1254 2756 
C 672 2756 211 2131 211 1347 
C 211 562 666 -64 1235 -64 
C 1677 -64 1971 172 2125 306 
L 2125 -13 
L 2611 -13 
L 2611 4416 
z
M 2125 836 
C 2125 747 2125 653 1926 482 
C 1798 375 1645 325 1498 325 
C 1152 325 698 576 698 1340 
C 698 2134 1210 2368 1562 2368 
C 1798 2368 1990 2254 2125 2065 
L 2125 836 
z
" transform="scale(0.015625)"/>
      <path id="CMSS17-73" d="M 2061 2627 
C 1683 2807 1389 2807 1197 2807 
C 742 2807 198 2648 198 2003 
C 198 1359 902 1218 1094 1179 
C 1389 1122 1715 1058 1715 740 
C 1715 337 1254 337 1171 337 
C 915 337 563 407 243 638 
L 166 210 
C 531 0 883 -64 1178 -64 
C 1965 -64 2163 416 2163 781 
C 2163 1094 1984 1305 1862 1401 
C 1651 1568 1574 1587 1050 1696 
C 960 1709 646 1779 646 2066 
C 646 2432 1050 2432 1139 2432 
C 1555 2432 1811 2303 1984 2208 
L 2061 2627 
z
" transform="scale(0.015625)"/>
     </defs>
     <use xlink:href="#CMSS17-48" transform="scale(0.996264)"/>
     <use xlink:href="#CMSS17-6f" transform="translate(66.061519 0) scale(0.996264)"/>
     <use xlink:href="#CMSS17-6c" transform="translate(112.905143 0) scale(0.996264)"/>
     <use xlink:href="#CMSS17-64" transform="translate(135.085866 0) scale(0.996264)"/>
     <use xlink:href="#CMSS17-65" transform="translate(183.290809 0) scale(0.996264)"/>
     <use xlink:href="#CMSS17-72" transform="translate(224.929631 0) scale(0.996264)"/>
     <use xlink:href="#CMSS17-73" transform="translate(256.839404 0) scale(0.996264)"/>
    </g>
   </g>
   <g id="text_4">
    <!-- $\bf{20}\%$ -->
    <g style="fill: #262626" transform="translate(413.812546 181.946161) scale(0.14 -0.14)">
     <defs>
      <path id="CMBX12-32" d="M 3232 1368 
L 2963 1368 
C 2944 1234 2899 858 2803 795 
C 2752 750 2253 750 2157 750 
L 1165 750 
C 1408 954 1990 1438 2086 1509 
C 2797 2038 3232 2362 3232 2974 
C 3232 3725 2547 4178 1702 4178 
C 979 4178 358 3770 358 3165 
C 358 2827 634 2732 781 2732 
C 979 2732 1210 2865 1210 3159 
C 1210 3427 1011 3560 813 3586 
C 1069 3879 1408 3904 1542 3904 
C 2131 3904 2413 3427 2413 2968 
C 2413 2471 2074 2013 1811 1739 
L 422 293 
C 358 235 358 223 358 108 
L 358 0 
L 3046 0 
L 3232 1368 
z
" transform="scale(0.015625)"/>
     </defs>
     <use xlink:href="#CMBX12-32" transform="scale(0.996264)"/>
     <use xlink:href="#CMBX12-30" transform="translate(56.039851 0) scale(0.996264)"/>
     <use xlink:href="#CMR17-25" transform="translate(112.079701 0) scale(0.996264)"/>
    </g>
    <!-- \fontsize{12}{0} -->
    <g style="fill: #262626" transform="translate(427.348533 196.281241) scale(0.14 -0.14)"/>
   </g>
   <g id="text_5">
    <!-- SUPERy -->
    <g style="fill: #262626" transform="translate(225.745385 69.400131) scale(0.14 -0.14)">
     <defs>
      <path id="CMSS17-79" d="M 2675 2752 
L 2176 2752 
C 1632 1294 1446 702 1434 383 
L 1427 383 
C 1408 696 1126 1460 902 2007 
L 602 2752 
L 83 2752 
L 1216 13 
C 1146 -178 1043 -465 1011 -529 
C 870 -885 774 -885 672 -885 
C 646 -885 442 -885 211 -809 
L 250 -1229 
C 410 -1261 570 -1280 685 -1280 
C 845 -1280 1165 -1280 1459 -497 
L 2675 2752 
z
" transform="scale(0.015625)"/>
     </defs>
     <use xlink:href="#CMSS17-53" transform="scale(0.996264)"/>
     <use xlink:href="#CMSS17-55" transform="translate(52.048516 0) scale(0.996264)"/>
     <use xlink:href="#CMSS17-50" transform="translate(116.188256 0) scale(0.996264)"/>
     <use xlink:href="#CMSS17-45" transform="translate(175.923843 0) scale(0.996264)"/>
     <use xlink:href="#CMSS17-52" transform="translate(231.815856 0) scale(0.996264)"/>
     <use xlink:href="#CMSS17-79" transform="translate(292.232011 0) scale(0.996264)"/>
    </g>
    <!-- Holders -->
    <g style="fill: #262626" transform="translate(231.923253 83.735211) scale(0.14 -0.14)">
     <use xlink:href="#CMSS17-48" transform="scale(0.996264)"/>
     <use xlink:href="#CMSS17-6f" transform="translate(66.061519 0) scale(0.996264)"/>
     <use xlink:href="#CMSS17-6c" transform="translate(112.905143 0) scale(0.996264)"/>
     <use xlink:href="#CMSS17-64" transform="translate(135.085866 0) scale(0.996264)"/>
     <use xlink:href="#CMSS17-65" transform="translate(183.290809 0) scale(0.996264)"/>
     <use xlink:href="#CMSS17-72" transform="translate(224.929631 0) scale(0.996264)"/>
     <use xlink:href="#CMSS17-73" transform="translate(256.839404 0) scale(0.996264)"/>
    </g>
   </g>
   <g id="text_6">
    <!-- $\bf{20}\%$ -->
    <g style="fill: #262626" transform="translate(275.03412 125.876064) scale(0.14 -0.14)">
     <use xlink:href="#CMBX12-32" transform="scale(0.996264)"/>
     <use xlink:href="#CMBX12-30" transform="translate(56.039851 0) scale(0.996264)"/>
     <use xlink:href="#CMR17-25" transform="translate(112.079701 0) scale(0.996264)"/>
    </g>
    <!-- \fontsize{12}{0} -->
    <g style="fill: #262626" transform="translate(288.570107 140.211144) scale(0.14 -0.14)"/>
   </g>
   <g id="text_7">
    <!-- Simplified FLOWW Tokenomics -->
    <g style="fill: #262626" transform="translate(186.847467 26.150616) scale(0.22 -0.22)">
     <defs>
      <path id="CMSS17-69" d="M 979 4183 
L 442 4183 
L 442 3648 
L 979 3648 
L 979 4183 
z
M 947 2739 
L 474 2739 
L 474 0 
L 947 0 
L 947 2739 
z
" transform="scale(0.015625)"/>
      <path id="CMSS17-6d" d="M 4288 1877 
C 4288 2308 4179 2816 3462 2816 
C 2982 2816 2694 2516 2566 2331 
C 2451 2670 2182 2816 1798 2816 
C 1363 2816 1088 2568 941 2389 
L 941 2758 
L 474 2758 
L 474 0 
L 960 0 
L 960 1559 
C 960 1939 1101 2428 1555 2428 
C 2138 2428 2138 2016 2138 1829 
L 2138 0 
L 2624 0 
L 2624 1559 
C 2624 1939 2765 2428 3219 2428 
C 3802 2428 3802 2016 3802 1829 
L 3802 0 
L 4288 0 
L 4288 1877 
z
" transform="scale(0.015625)"/>
      <path id="CMSS17-70" d="M 966 333 
C 1178 129 1466 -5 1773 -5 
C 2368 -5 2880 603 2880 1412 
C 2880 2159 2496 2816 1946 2816 
C 1626 2816 1242 2702 954 2472 
L 954 2765 
L 480 2765 
L 480 -1216 
L 966 -1216 
L 966 333 
z
M 966 2100 
C 1018 2176 1235 2415 1587 2415 
C 2035 2415 2394 1960 2394 1412 
C 2394 787 1958 384 1530 384 
C 1402 384 1267 415 1139 523 
C 966 674 966 768 966 857 
L 966 2100 
z
" transform="scale(0.015625)"/>
      <path id="CMSS17-c" d="M 2752 4416 
L 2240 4416 
L 2240 3906 
L 2752 3906 
L 2752 4416 
z
M 2733 2737 
L 2259 2737 
L 2259 0 
L 2733 0 
L 2733 2737 
z
M 1075 2368 
L 1773 2368 
L 1773 2737 
L 1062 2737 
L 1062 3578 
C 1062 3919 1216 4092 1421 4092 
C 1542 4092 1664 4056 1773 3992 
L 1773 4410 
C 1722 4428 1574 4480 1421 4480 
C 941 4480 602 3993 602 3372 
L 602 2737 
L 160 2737 
L 160 2368 
L 602 2368 
L 602 0 
L 1075 0 
L 1075 2368 
z
" transform="scale(0.015625)"/>
      <path id="CMSS17-46" d="M 2918 1984 
L 2918 2373 
L 1101 2373 
L 1101 3968 
L 1882 3968 
C 1958 3968 2035 3968 2112 3968 
L 3168 3968 
L 3168 4375 
L 563 4375 
L 563 -32 
L 1101 -32 
L 1101 1984 
L 2918 1984 
z
" transform="scale(0.015625)"/>
      <path id="CMSS17-4c" d="M 1670 414 
C 1594 414 1517 414 1440 414 
L 1101 414 
L 1101 4416 
L 563 4416 
L 563 0 
L 3002 0 
L 3002 414 
L 1670 414 
z
" transform="scale(0.015625)"/>
      <path id="CMSS17-57" d="M 5581 4416 
L 5094 4416 
L 4557 2437 
C 4474 2118 4397 1801 4320 1482 
C 4205 1011 4122 681 4109 515 
L 4102 515 
C 4090 687 4006 1049 3904 1457 
C 3827 1795 3744 2131 3654 2462 
L 3123 4416 
L 2586 4416 
L 2080 2562 
L 1824 1549 
C 1632 747 1626 632 1613 505 
L 1606 505 
C 1606 543 1581 753 1402 1498 
C 1312 1868 1222 2244 1126 2601 
L 634 4416 
L 83 4416 
L 1299 0 
L 1830 0 
L 2336 1839 
L 2592 2851 
C 2765 3564 2803 3742 2816 3901 
L 2822 3901 
C 2822 3876 2880 3474 3130 2545 
L 3808 0 
L 4365 0 
L 5581 4416 
z
" transform="scale(0.015625)"/>
      <path id="CMSS17-54" d="M 2317 3968 
L 2848 3968 
C 2925 3968 3002 3968 3078 3968 
L 3878 3968 
L 3878 4376 
L 218 4376 
L 218 3968 
L 1018 3968 
C 1094 3968 1171 3968 1248 3968 
L 1779 3968 
L 1779 -32 
L 2317 -32 
L 2317 3968 
z
" transform="scale(0.015625)"/>
      <path id="CMSS17-6b" d="M 1696 1688 
L 2688 2739 
L 2074 2739 
L 954 1554 
L 954 4416 
L 480 4416 
L 480 0 
L 947 0 
L 947 892 
L 1376 1344 
L 2278 0 
L 2822 0 
L 1696 1688 
z
" transform="scale(0.015625)"/>
      <path id="CMSS17-6e" d="M 2618 1877 
C 2618 2283 2522 2816 1798 2816 
C 1389 2816 1120 2606 941 2389 
L 941 2758 
L 474 2758 
L 474 0 
L 960 0 
L 960 1559 
C 960 1964 1114 2428 1549 2428 
C 2112 2428 2131 2048 2131 1829 
L 2131 0 
L 2618 0 
L 2618 1877 
z
" transform="scale(0.015625)"/>
      <path id="CMSS17-63" d="M 2464 2541 
C 2464 2585 2170 2714 2093 2739 
C 1882 2816 1613 2816 1542 2816 
C 710 2816 211 2093 211 1363 
C 211 595 768 -64 1517 -64 
C 1946 -64 2253 76 2502 242 
L 2464 664 
C 2189 453 1869 337 1523 337 
C 1024 337 698 774 698 1369 
C 698 1831 909 2414 1549 2414 
C 1901 2414 2099 2343 2394 2145 
L 2464 2541 
z
" transform="scale(0.015625)"/>
     </defs>
     <use xlink:href="#CMSS17-53" transform="scale(0.996264)"/>
     <use xlink:href="#CMSS17-69" transform="translate(52.048516 0) scale(0.996264)"/>
     <use xlink:href="#CMSS17-6d" transform="translate(74.229239 0) scale(0.996264)"/>
     <use xlink:href="#CMSS17-70" transform="translate(148.458494 0) scale(0.996264)"/>
     <use xlink:href="#CMSS17-6c" transform="translate(196.663437 0) scale(0.996264)"/>
     <use xlink:href="#CMSS17-69" transform="translate(218.84416 0) scale(0.996264)"/>
     <use xlink:href="#CMSS17-c" transform="translate(241.024883 0) scale(0.996264)"/>
     <use xlink:href="#CMSS17-65" transform="translate(291.15162 0) scale(0.996264)"/>
     <use xlink:href="#CMSS17-64" transform="translate(332.790442 0) scale(0.996264)"/>
     <use xlink:href="#CMSS17-46" transform="translate(412.224498 0) scale(0.996264)"/>
     <use xlink:href="#CMSS17-4c" transform="translate(465.514057 0) scale(0.996264)"/>
     <use xlink:href="#CMSS17-4f" transform="translate(516.201163 0) scale(0.996264)"/>
     <use xlink:href="#CMSS17-57" transform="translate(582.622964 0) scale(0.996264)"/>
     <use xlink:href="#CMSS17-57" transform="translate(670.86513 0) scale(0.996264)"/>
     <use xlink:href="#CMSS17-54" transform="translate(790.336409 0) scale(0.996264)"/>
     <use xlink:href="#CMSS17-6f" transform="translate(846.348608 0) scale(0.996264)"/>
     <use xlink:href="#CMSS17-6b" transform="translate(893.192231 0) scale(0.996264)"/>
     <use xlink:href="#CMSS17-65" transform="translate(936.192267 0) scale(0.996264)"/>
     <use xlink:href="#CMSS17-6e" transform="translate(977.831089 0) scale(0.996264)"/>
     <use xlink:href="#CMSS17-6f" transform="translate(1026.036032 0) scale(0.996264)"/>
     <use xlink:href="#CMSS17-6d" transform="translate(1072.879655 0) scale(0.996264)"/>
     <use xlink:href="#CMSS17-69" transform="translate(1147.10891 0) scale(0.996264)"/>
     <use xlink:href="#CMSS17-63" transform="translate(1169.289633 0) scale(0.996264)"/>
     <use xlink:href="#CMSS17-73" transform="translate(1210.928455 0) scale(0.996264)"/>
    </g>
   </g>
  </g>
 </g>
</svg>
