<svg width="251" height="65" viewBox="0 0 251 65" fill="none" xmlns="http://www.w3.org/2000/svg">
<rect width="251" height="65" rx="8" fill="#052CC0"/>
<path d="M84.8481 20.112L73.2321 40.902H71.4061L68.1281 35.072L66.3241 36.128L65.2681 34.368L70.3721 31.354L73.3201 36.634L82.5601 20.112H84.8481ZM90.6694 32.256C90.6694 30.7307 90.9994 29.374 91.6594 28.186C92.3194 26.9833 93.236 26.052 94.4094 25.392C95.5974 24.7173 96.9394 24.38 98.4354 24.38C100.269 24.38 101.838 24.864 103.143 25.832C104.449 26.8 105.321 28.12 105.761 29.792H101.625C101.317 29.1467 100.877 28.6553 100.305 28.318C99.748 27.9807 99.11 27.812 98.3914 27.812C97.2327 27.812 96.294 28.2153 95.5754 29.022C94.8567 29.8287 94.4974 30.9067 94.4974 32.256C94.4974 33.6053 94.8567 34.6833 95.5754 35.49C96.294 36.2967 97.2327 36.7 98.3914 36.7C99.11 36.7 99.748 36.5313 100.305 36.194C100.877 35.8567 101.317 35.3653 101.625 34.72H105.761C105.321 36.392 104.449 37.712 103.143 38.68C101.838 39.6333 100.269 40.11 98.4354 40.11C96.9394 40.11 95.5974 39.78 94.4094 39.12C93.236 38.4453 92.3194 37.514 91.6594 36.326C90.9994 35.138 90.6694 33.7813 90.6694 32.256ZM113.653 40.176C112.451 40.176 111.365 39.9193 110.397 39.406C109.444 38.8927 108.689 38.1593 108.131 37.206C107.589 36.2527 107.317 35.138 107.317 33.862C107.317 32.6007 107.596 31.4933 108.153 30.54C108.711 29.572 109.473 28.8313 110.441 28.318C111.409 27.8047 112.495 27.548 113.697 27.548C114.9 27.548 115.985 27.8047 116.953 28.318C117.921 28.8313 118.684 29.572 119.241 30.54C119.799 31.4933 120.077 32.6007 120.077 33.862C120.077 35.1233 119.791 36.238 119.219 37.206C118.662 38.1593 117.892 38.8927 116.909 39.406C115.941 39.9193 114.856 40.176 113.653 40.176ZM113.653 36.92C114.372 36.92 114.981 36.656 115.479 36.128C115.993 35.6 116.249 34.8447 116.249 33.862C116.249 32.8793 116 32.124 115.501 31.596C115.017 31.068 114.416 30.804 113.697 30.804C112.964 30.804 112.355 31.068 111.871 31.596C111.387 32.1093 111.145 32.8647 111.145 33.862C111.145 34.8447 111.38 35.6 111.849 36.128C112.333 36.656 112.935 36.92 113.653 36.92ZM129.553 27.592C130.99 27.592 132.134 28.0613 132.985 29C133.85 29.924 134.283 31.2 134.283 32.828V40H130.543V33.334C130.543 32.5127 130.33 31.8747 129.905 31.42C129.48 30.9653 128.908 30.738 128.189 30.738C127.47 30.738 126.898 30.9653 126.473 31.42C126.048 31.8747 125.835 32.5127 125.835 33.334V40H122.073V27.724H125.835V29.352C126.216 28.8093 126.73 28.384 127.375 28.076C128.02 27.7533 128.746 27.592 129.553 27.592ZM144.377 27.592C145.815 27.592 146.959 28.0613 147.809 29C148.675 29.924 149.107 31.2 149.107 32.828V40H145.367V33.334C145.367 32.5127 145.155 31.8747 144.729 31.42C144.304 30.9653 143.732 30.738 143.013 30.738C142.295 30.738 141.723 30.9653 141.297 31.42C140.872 31.8747 140.659 32.5127 140.659 33.334V40H136.897V27.724H140.659V29.352C141.041 28.8093 141.554 28.384 142.199 28.076C142.845 27.7533 143.571 27.592 144.377 27.592ZM163.293 33.664C163.293 34.016 163.271 34.3827 163.227 34.764H154.713C154.772 35.5267 155.014 36.1133 155.439 36.524C155.879 36.92 156.415 37.118 157.045 37.118C157.984 37.118 158.637 36.722 159.003 35.93H163.007C162.802 36.7367 162.428 37.4627 161.885 38.108C161.357 38.7533 160.69 39.2593 159.883 39.626C159.077 39.9927 158.175 40.176 157.177 40.176C155.975 40.176 154.904 39.9193 153.965 39.406C153.027 38.8927 152.293 38.1593 151.765 37.206C151.237 36.2527 150.973 35.138 150.973 33.862C150.973 32.586 151.23 31.4713 151.743 30.518C152.271 29.5647 153.005 28.8313 153.943 28.318C154.882 27.8047 155.96 27.548 157.177 27.548C158.365 27.548 159.421 27.7973 160.345 28.296C161.269 28.7947 161.988 29.506 162.501 30.43C163.029 31.354 163.293 32.432 163.293 33.664ZM159.443 32.674C159.443 32.0287 159.223 31.5153 158.783 31.134C158.343 30.7527 157.793 30.562 157.133 30.562C156.503 30.562 155.967 30.7453 155.527 31.112C155.102 31.4787 154.838 31.9993 154.735 32.674H159.443ZM164.53 33.862C164.53 32.586 164.787 31.4713 165.3 30.518C165.828 29.5647 166.554 28.8313 167.478 28.318C168.417 27.8047 169.487 27.548 170.69 27.548C172.23 27.548 173.513 27.9513 174.54 28.758C175.581 29.5647 176.263 30.7013 176.586 32.168H172.582C172.245 31.2293 171.592 30.76 170.624 30.76C169.935 30.76 169.385 31.0313 168.974 31.574C168.563 32.102 168.358 32.8647 168.358 33.862C168.358 34.8593 168.563 35.6293 168.974 36.172C169.385 36.7 169.935 36.964 170.624 36.964C171.592 36.964 172.245 36.4947 172.582 35.556H176.586C176.263 36.9933 175.581 38.1227 174.54 38.944C173.499 39.7653 172.215 40.176 170.69 40.176C169.487 40.176 168.417 39.9193 167.478 39.406C166.554 38.8927 165.828 38.1593 165.3 37.206C164.787 36.2527 164.53 35.138 164.53 33.862ZM185.44 36.81V40H183.526C182.162 40 181.099 39.67 180.336 39.01C179.574 38.3353 179.192 37.2427 179.192 35.732V30.848H177.696V27.724H179.192V24.732H182.954V27.724H185.418V30.848H182.954V35.776C182.954 36.1427 183.042 36.4067 183.218 36.568C183.394 36.7293 183.688 36.81 184.098 36.81H185.44Z" fill="white"/>
</svg>
