<svg width="174" height="41" viewBox="0 0 174 41" fill="none" xmlns="http://www.w3.org/2000/svg">
<g clip-path="url(#clip0_657_11148)">
<path fill-rule="evenodd" clip-rule="evenodd" d="M0.59809 41V33.953H30.3845C32.2452 33.953 33.6703 33.4732 34.6745 32.5136C35.6787 31.554 36.1808 30.272 36.1808 28.6827C36.1808 24.9568 33.818 23.4649 30.3919 23.4649H12.1316C7.25092 23.4649 2.76155 21.3583 0.849141 16.5829C0.287969 15.1735 0 13.6441 0 11.9798C0 7.02445 2.37759 3.25356 6.99249 1.5218C8.52094 0.952043 10.2709 0.659668 12.235 0.659668H40.6997V7.6242L12.235 7.70666C9.12642 7.71416 7.20662 9.42343 7.20662 12.6471C7.20662 15.8707 9.14118 17.5275 12.1759 17.5275H30.3771C38.108 17.5275 42.7302 21.006 42.7302 29.1775C42.7302 34.1854 40.5668 38.2936 35.819 40.1078C34.2684 40.7001 32.4593 40.9925 30.3845 40.9925H0.59809V41Z" fill="#006B9C"/>
<path fill-rule="evenodd" clip-rule="evenodd" d="M80.7055 40.8725L70.6783 29.7023H55.8589V23.5099H72.3692C77.5231 23.5099 79.945 20.5262 79.945 15.4359C79.945 12.8195 79.2804 10.8703 77.9587 9.60335C76.6296 8.3289 74.7689 7.69167 72.3765 7.69167L43.9414 7.6167V0.659668H72.3765C81.3257 0.659668 86.7603 6.25978 86.7603 15.3159C86.7603 18.6745 86.044 21.4858 84.6116 23.7498C83.1791 26.0213 81.1707 27.6481 78.5937 28.6452L90.526 40.8725H80.7203H80.7055Z" fill="#0090B7"/>
<path fill-rule="evenodd" clip-rule="evenodd" d="M165.671 40.7676L159.734 30.6469L156.411 24.9494L147.588 9.90327L134.038 33.1658H126.204L144.472 2.27153C145.232 0.9371 146.266 0 147.846 0C149.426 0 150.416 0.944597 151.169 2.27153L174 40.7676H165.663H165.671Z" fill="#CB474B"/>
<path fill-rule="evenodd" clip-rule="evenodd" d="M167.746 40.7751L141.142 40.7001V33.7506H167.746V40.7751Z" fill="#CB474B"/>
<path fill-rule="evenodd" clip-rule="evenodd" d="M117.839 26.951L111.681 38.736C110.935 40.1079 109.702 40.9475 108.136 40.9475C106.571 40.9475 105.338 40.2128 104.54 38.736L84.0576 0.179932H92.3423L108.358 31.1042L114.353 20.1514C116.251 16.6504 120.46 16.7629 122.269 20.1289L127.703 31.1042L135.028 21.4184L132.902 31.3516H135.006L131.078 38.736C130.332 40.1154 129.047 40.9475 127.482 40.9475C125.917 40.9475 124.683 40.1079 123.938 38.736L117.839 26.951Z" fill="url(#paint0_linear_657_11148)"/>
</g>
<defs>
<linearGradient id="paint0_linear_657_11148" x1="84.0576" y1="20.5637" x2="135.021" y2="20.5637" gradientUnits="userSpaceOnUse">
<stop stop-color="#DD9C1B"/>
<stop offset="0.43" stop-color="#D47530"/>
<stop offset="1" stop-color="#CB474B"/>
</linearGradient>
<clipPath id="clip0_657_11148">
<rect width="174" height="41" fill="white"/>
</clipPath>
</defs>
</svg>
