<?xml version="1.0" encoding="UTF-8"?>
<svg id="Layer_2" data-name="Layer 2" xmlns="http://www.w3.org/2000/svg" viewBox="0 0 1024 1024">
  <defs>
    <style>
      .cls-1 {
        fill: #33f;
      }

      .cls-1, .cls-2, .cls-3 {
        stroke-width: 0px;
      }

      .cls-2 {
        fill: #000;
      }

      .cls-4 {
        fill: none;
        stroke: #fff;
        stroke-miterlimit: 10;
        stroke-width: 30px;
      }

      .cls-3 {
        fill: #fff;
      }
    </style>
  </defs>
  <g id="dark2">
    <g id="s_t">
      <circle class="cls-2" cx="512" cy="512" r="512"/>
      <g>
        <g>
          <polyline class="cls-1" points="373.74 504.69 301.67 439.58 301.67 235.5 462 95.17 622.33 235.5 622.33 439.58 550.26 519.31 622.33 584.42 622.33 788.5 462 928.83 301.67 788.5 301.67 584.42 373.74 504.69"/>
          <path class="cls-3" d="M462,948.76l-175.33-153.45v-216.66l65.88-72.88-65.88-59.52v-217.55l175.33-153.45,175.33,153.45v216.66l-65.88,72.88,65.88,59.52v217.55l-175.33,153.45ZM316.67,781.7l145.33,127.2,145.33-127.2v-190.61l-78.26-70.7,78.26-86.58v-191.5l-145.33-127.2-145.33,127.2v190.61l78.26,70.7-78.26,86.58v191.5Z"/>
        </g>
        <polyline class="cls-4" points="373.74 504.69 462 584.42 462 788.81"/>
        <polyline class="cls-4" points="550.26 519.31 462 439.58 462 235.19"/>
      </g>
      <g>
        <path class="cls-3" d="M792.51,766.5c-16.62,0-30.55-6.94-40.28-20.08-8.77-11.83-13.59-28.3-13.59-46.37v-187.93h-42.3v-12.98l2.51-.41c43.33-7.12,71.45-61.97,83.32-110.93l.56-2.29h13.36v110.9h67.45v15.72h-67.45v175.35c0,24.98,9.53,39.3,26.15,39.3,15.35,0,27.61-8,41-26.75l1.69-2.36,9.85,6.57-1.33,2.41c-20.59,37.48-50.85,59.86-80.95,59.86Z"/>
        <path class="cls-3" d="M793.08,388.5v110.9h67.45v9.72h-67.45v178.35c0,31.44,14.29,42.3,29.15,42.3,16.01,0,29.15-8,43.45-28.01l5.14,3.43c-22.29,40.59-52.59,58.31-78.32,58.31-33.16,0-50.88-29.15-50.88-63.45v-190.93h-42.3v-7.43c41.73-6.86,72.03-56.59,85.75-113.19h8M799.08,382.5h-18.72l-1.11,4.59c-11.64,48.02-39.01,101.79-80.89,108.68l-5.03.83v18.53h42.3v184.93c0,18.71,5.04,35.81,14.18,48.16,10.32,13.93,25.08,21.29,42.69,21.29,14.67,0,29.85-5.19,43.88-15.02,15.31-10.72,28.66-26.33,39.69-46.4l2.65-4.83-4.58-3.05-5.14-3.43-4.83-3.22-3.38,4.73c-12.77,17.87-24.3,25.5-38.56,25.5-6.41,0-11.62-2.41-15.5-7.16-5-6.12-7.65-16.2-7.65-29.14v-172.35h67.45v-21.72h-67.45v-110.9h0Z"/>
      </g>
    </g>
  </g>
</svg>