<?xml version="1.0" encoding="UTF-8"?>
<svg id="Layer_2" data-name="Layer 2" xmlns="http://www.w3.org/2000/svg" viewBox="0 0 701.3 856.23">
  <defs>
    <style>
      .cls-1 {
        fill: #33f;
      }

      .cls-1, .cls-2 {
        stroke-width: 0px;
      }

      .cls-2 {
        fill: #fff;
      }
    </style>
  </defs>
  <g id="S_t_dark">
    <g>
      <polygon class="cls-1" points="87.07 420.8 15 355.7 15 151.61 175.33 11.29 335.65 151.61 335.65 355.7 263.58 435.43 335.65 500.53 335.65 704.62 175.33 844.94 15 704.62 15 500.53 87.07 420.8 87.07 420.8"/>
      <path class="cls-2" d="M350.65,355.7v-204.09l-5.12-11.28L185.2,0h-19.75L5.12,140.33l-5.12,11.28v204.09l65.88,66.18L0,500.53v204.09l5.12,11.28,160.33,140.33h19.75l160.33-140.33,5.12-11.28v-204.09l-65.88-66.18,65.88-78.65ZM320.65,349.92l-58.14,64.32-72.18-65.21v-197.72h-30v211.05l93.2,84.2,67.12,60.64v190.61l-145.32,127.2-145.33-127.2v-191.5l58.14-64.32,72.19,65.21v197.73h30v-211.06l-93.21-84.2-67.12-60.64v-190.61L175.33,31.22l145.32,127.2v191.5Z"/>
    </g>
    <g>
      <polygon class="cls-1" points="475.97 485.53 365.65 485.53 365.65 370.7 686.3 370.7 686.3 485.53 575.97 485.53 575.97 705.64 475.97 793.17 475.97 485.53"/>
      <path class="cls-2" d="M671.3,385.7v84.83h-110.33v228.31l-70,61.27v-289.58h-110.32v-84.83h290.65M701.3,355.7h-350.65v144.83h110.32v325.7l130-113.78v-211.92h110.33v-144.83h0Z"/>
    </g>
  </g>
</svg>