<?xml version="1.0" encoding="UTF-8"?>
<svg id="Layer_2" data-name="Layer 2" xmlns="http://www.w3.org/2000/svg" viewBox="0 0 1024 1024">
  <defs>
    <style>
      .cls-1 {
        fill: #000;
      }

      .cls-1, .cls-2 {
        stroke-width: 0px;
      }

      .cls-3 {
        fill: none;
      }

      .cls-3, .cls-4 {
        stroke: #fff;
        stroke-miterlimit: 10;
        stroke-width: 30px;
      }

      .cls-2 {
        fill: #fff;
      }

      .cls-4 {
        fill: #33f;
        stroke-linecap: square;
      }
    </style>
  </defs>
  <g id="dark2">
    <g id="s_y">
      <circle class="cls-1" cx="512" cy="512" r="512"/>
      <g>
        <polyline class="cls-4" points="363.74 504.69 291.67 439.58 291.67 235.5 452 95.17 612.33 235.5 612.33 439.58 540.26 519.31 612.33 584.42 612.33 788.5 452 928.83 291.67 788.5 291.67 584.42 363.74 504.69"/>
        <polyline class="cls-3" points="363.74 504.69 452 584.42 452 788.81"/>
        <polyline class="cls-3" points="540.26 519.31 452 439.58 452 235.19"/>
      </g>
      <g>
        <path class="cls-2" d="M721.58,854.32c-25.55,0-42.97-14.23-43.36-35.42-.31-17.08,11.2-29.69,27.38-29.99h.53c11.47,0,20.58,6.85,27.08,20.36,1.02,2.16,1.9,4.34,2.74,6.44,3.46,8.61,5.93,13.89,12.68,13.89h.24c12.66-.24,24.85-15.05,36.24-44.04l20-50.4-83.34-179.19c-13.89-29.63-25.15-46.79-41.63-46.79l-2.45.04-.15-8.15,129.46-2.39.15,8.04-1.89.14c-13.22.96-22.85,5.89-27.85,14.25-5.44,9.09-4.93,21.48,1.46,35.84l52.06,113.95,35.91-92.73c10.19-26.39,11.35-46.74,3.36-58.85-5.42-8.22-15.14-12.64-28.88-13.12l-1.89-.07-.15-8.04,101.98-1.88.14,7.82-1.64.32c-23.01,4.53-40.21,27.19-61.32,80.83l-81.26,205.83c-8.59,22-19.02,37.79-31.88,48.26-12.03,9.8-25.92,14.71-42.45,15.02-.43,0-.87.01-1.3.01Z"/>
        <path class="cls-2" d="M939.31,498.25l.08,4.15c-23.25,4.58-41,26.69-62.79,82.06l-81.26,205.83c-17.33,44.4-41.91,61.45-72.5,62.01-.42,0-.84.01-1.26.01-24.7,0-41-13.57-41.36-33.45-.31-16.59,10.9-27.69,25.41-27.95.16,0,.33,0,.49,0,11.16,0,19.43,7.08,25.28,19.24,4.81,10.19,6.59,21.46,17.23,21.46.09,0,.19,0,.28,0,10.37-.19,23.69-8.73,38.06-45.3l20.32-51.2-83.7-179.97c-13.38-28.54-25.06-47.94-43.44-47.94-.16,0-.32,0-.49,0l-.08-4.15,125.46-2.31.08,4.15c-28.48,2.08-41.59,22.55-28.07,52.9l54.04,118.28,37.62-97.15c16.33-42.31,11.09-73.33-27.31-74.69l-.08-4.15,97.98-1.81M943.24,494.18l-4,.07-97.98,1.81-4,.07.07,4,.08,4.15.07,3.79,3.79.13c13.05.46,22.23,4.58,27.28,12.23,7.62,11.54,6.39,31.26-3.56,57.03l-34.2,88.3-50.1-109.65c-6.11-13.7-6.65-25.46-1.56-33.97,4.65-7.77,13.74-12.36,26.28-13.28l3.78-.28-.07-3.79-.08-4.15-.07-4-4,.07-125.46,2.31-4,.07.07,4,.08,4.15.07,4,4-.07c.14,0,.27,0,.41,0,15.41,0,26.27,16.74,39.82,45.64l82.97,178.4-19.68,49.6c-11.07,28.17-22.65,42.56-34.42,42.78h-.21c-5.22,0-7.21-3.65-10.83-12.63-.86-2.13-1.74-4.33-2.78-6.54-6.87-14.29-16.59-21.53-28.89-21.53-.19,0-.38,0-.56,0-8.24.15-15.74,3.39-21.11,9.12-5.47,5.84-8.4,13.97-8.23,22.91.41,22.36,18.64,37.38,45.36,37.38.44,0,.89,0,1.33-.01,16.99-.31,31.28-5.37,43.67-15.47,13.14-10.7,23.76-26.76,32.48-49.09l81.25-205.81c20.83-52.91,37.61-75.23,59.85-79.6l3.29-.65-.06-3.35-.08-4.15-.07-4h0Z"/>
      </g>
    </g>
  </g>
</svg>