<?xml version="1.0" encoding="UTF-8"?>
<svg id="Layer_2" data-name="Layer 2" xmlns="http://www.w3.org/2000/svg" viewBox="0 0 2201.23 606.08">
  <defs>
    <style>
      .cls-1 {
        fill: #33f;
      }

      .cls-1, .cls-2 {
        stroke-width: 0px;
      }

      .cls-2 {
        fill: #fff;
      }
    </style>
  </defs>
  <g id="Layer_10" data-name="Layer 10">
    <g>
      <path class="cls-2" d="M0,30.08h384v24H0v-24ZM0,78.08h384v24H0v-24ZM96,150.08h-24v444h-24V150.08h-24v444H0V126.08h384v24H120v96h240v24H120v24h240v24H120v24h240v24H120v228h-24V150.08Z"/>
      <path class="cls-2" d="M474.39,30.08h24v564h-24V30.08ZM522.39,30.08h24v564h-24V30.08ZM570.39,30.08h24v444h240v24h-240v24h240v24h-240v24h240v24h-264V30.08Z"/>
      <path class="cls-2" d="M1173.58,18.08c162.4,0,294.4,132,294.4,294.4s-132,293.6-294.4,293.6-293.6-131.2-293.6-293.6S1011.18,18.08,1173.58,18.08ZM1173.58,582.08c149.6,0,270.4-120,270.4-269.6s-120.8-270.4-270.4-270.4-269.6,120.8-269.6,270.4,120,269.6,269.6,269.6ZM1173.58,66.08c136,0,246.4,110.4,246.4,246.4s-110.4,245.6-246.4,245.6-245.6-109.6-245.6-245.6,109.6-246.4,245.6-246.4ZM1173.58,534.08c122.4,0,222.4-99.2,222.4-221.6s-100-222.4-222.4-222.4-221.6,100-221.6,222.4,99.2,221.6,221.6,221.6ZM1173.58,114.08c109.6,0,198.4,88.8,198.4,198.4s-88.8,197.6-198.4,197.6-197.6-88-197.6-197.6,88-198.4,197.6-198.4ZM1172.78,486.08c96,0,174.4-77.6,174.4-173.6s-78.4-174.4-174.4-174.4-173.6,78.4-173.6,174.4,77.6,173.6,173.6,173.6Z"/>
    </g>
    <g>
      <polygon class="cls-2" points="1800.84 264.59 1713.2 468.2 1625.56 264.59 1602.7 264.59 1701.77 494.76 1690.6 520.7 1580.37 264.59 1557.51 264.59 1679.17 547.26 1668.01 573.2 1535.18 264.59 1512.32 264.59 1659.15 605.74 1676.87 605.74 1823.7 264.59 1800.84 264.59"/>
      <polygon class="cls-2" points="1847.42 264.93 1700.59 606.08 1723.45 606.08 1870.28 264.93 1847.42 264.93"/>
      <path class="cls-2" d="M2086.93,264.93l-87.64,203.62-87.64-203.62h-18.55l-146.83,341.15h22.86l88.05-204.58,88.05,204.58h17.72l146.83-341.15h-22.86ZM1954.1,573.54l-85.48-198.6,11.16-25.94,85.48,198.6-11.16,25.94ZM1976.69,521.04l-85.48-198.6,11.16-25.94,85.48,198.6-11.16,25.94Z"/>
      <polygon class="cls-2" points="2132.62 264.93 1985.79 606.08 2008.65 606.08 2155.48 264.93 2132.62 264.93"/>
      <polygon class="cls-2" points="2178.31 264.93 2031.48 606.08 2054.34 606.08 2201.17 264.93 2178.31 264.93"/>
    </g>
    <g>
      <polygon class="cls-1" points="1800.51 0 1712.72 203.62 1624.93 0 1602.02 0 1701.27 230.18 1690.08 256.11 1579.66 0 1556.75 0 1678.63 282.67 1667.45 308.61 1534.38 0 1511.48 0 1658.57 341.15 1676.32 341.15 1823.41 0 1800.51 0"/>
      <polygon class="cls-1" points="1846.28 0 1699.19 341.15 1722.1 341.15 1869.19 0 1846.28 0"/>
      <path class="cls-1" d="M2086.22,0l-87.79,203.62L1910.64,0h-18.58l-147.09,341.15h22.9l88.21-204.58,88.21,204.58h17.75L2109.12,0h-22.9ZM1953.16,308.61l-85.63-198.6,11.18-25.94,85.63,198.6-11.18,25.94ZM1975.79,256.12l-85.63-198.6,11.18-25.94,85.63,198.6-11.18,25.94Z"/>
      <polygon class="cls-1" points="2131.99 0 1984.9 341.15 2007.81 341.15 2154.9 0 2131.99 0"/>
      <polygon class="cls-1" points="2178.33 0 2031.24 341.15 2054.14 341.15 2201.23 0 2178.33 0"/>
    </g>
  </g>
</svg>