<?xml version="1.0" encoding="UTF-8"?>
<svg id="Layer_2" data-name="Layer 2" xmlns="http://www.w3.org/2000/svg" viewBox="0 0 1024 1024">
  <defs>
    <style>
      .cls-1 {
        fill: #000;
        stroke-width: 0px;
      }

      .cls-2 {
        stroke-linecap: square;
      }

      .cls-2, .cls-3, .cls-4 {
        stroke: #fff;
        stroke-width: 30px;
      }

      .cls-2, .cls-4 {
        fill: #33f;
        stroke-linejoin: bevel;
      }

      .cls-3 {
        fill: none;
        stroke-miterlimit: 10;
      }
    </style>
  </defs>
  <g id="S_y_dark">
    <rect class="cls-1" width="1024" height="1024"/>
    <g>
      <g>
        <polygon class="cls-4" points="547.41 584.42 619.48 504.69 547.41 439.58 547.41 439.21 547.41 344.74 547.41 235.5 672.33 344.74 797.24 235.19 797.24 344.74 797.24 679.48 672.33 788.81 547.41 679.48 547.41 584.42"/>
        <line class="cls-4" x1="672.33" y1="335.87" x2="672.33" y2="439.58"/>
        <polyline class="cls-4" points="619.48 504.69 672.33 552.06 672.33 655.72"/>
      </g>
      <g>
        <polyline class="cls-2" points="298.83 504.69 226.76 439.58 226.76 235.5 387.09 95.17 547.41 235.5 547.41 439.58 475.34 519.31 547.41 584.42 547.41 788.5 387.09 928.83 226.76 788.5 226.76 584.42 298.83 504.69"/>
        <polyline class="cls-3" points="298.83 504.69 387.09 584.42 387.09 788.81"/>
        <polyline class="cls-3" points="475.34 519.31 387.09 439.58 387.09 235.19"/>
      </g>
    </g>
  </g>
</svg>