<?xml version="1.0" encoding="UTF-8"?>
<svg id="Layer_2" data-name="Layer 2" xmlns="http://www.w3.org/2000/svg" viewBox="0 0 1024 1024">
  <defs>
    <style>
      .cls-1 {
        fill: #33f;
      }

      .cls-1, .cls-2, .cls-3 {
        stroke-width: 0px;
      }

      .cls-2 {
        fill: #000;
      }

      .cls-3 {
        fill: #fff;
      }
    </style>
  </defs>
  <g id="S_t_dark">
    <rect class="cls-2" width="1024" height="1024"/>
    <g>
      <polygon class="cls-1" points="298.83 504.69 226.76 439.58 226.76 235.5 387.09 95.17 547.41 235.5 547.41 439.58 475.34 519.31 547.41 584.42 547.41 788.5 387.09 928.83 226.76 788.5 226.76 584.42 298.83 504.69 298.83 504.69"/>
      <path class="cls-3" d="M562.41,439.58v-204.09l-5.12-11.28-160.33-140.33h-19.75l-160.33,140.33-5.12,11.28v204.09l65.88,66.18-65.88,78.65v204.09l5.12,11.28,160.33,140.33h19.75l160.33-140.33,5.12-11.28v-204.09l-65.88-66.18,65.88-78.65ZM532.41,433.8l-58.14,64.32-72.18-65.21v-197.72h-30v211.05l93.2,84.2,67.12,60.64v190.61l-145.32,127.2-145.33-127.2v-191.5l58.14-64.32,72.19,65.21v197.73h30v-211.06l-93.21-84.2-67.12-60.64v-190.61l145.33-127.2,145.32,127.2v191.5Z"/>
    </g>
    <g>
      <polygon class="cls-1" points="687.73 569.41 577.41 569.41 577.41 454.58 898.06 454.58 898.06 569.41 787.73 569.41 787.73 789.53 687.73 877.05 687.73 569.41"/>
      <path class="cls-3" d="M883.06,469.58v84.83h-110.33v228.31l-70,61.27v-289.58h-110.32v-84.83h290.65M913.06,439.58h-350.65v144.83h110.32v325.7l130-113.78v-211.92h110.33v-144.83h0Z"/>
    </g>
  </g>
</svg>