<?xml version="1.0" encoding="UTF-8"?>
<svg id="Layer_2" data-name="Layer 2" xmlns="http://www.w3.org/2000/svg" viewBox="0 0 689.75 606.08">
  <defs>
    <style>
      .cls-1 {
        fill: #33f;
      }

      .cls-1, .cls-2 {
        stroke-width: 0px;
      }

      .cls-2 {
        fill: #fff;
      }
    </style>
  </defs>
  <g id="Layer_10" data-name="Layer 10">
    <g>
      <polygon class="cls-2" points="289.36 264.59 201.72 468.2 114.08 264.59 91.22 264.59 190.29 494.76 179.12 520.7 68.89 264.59 46.03 264.59 167.69 547.26 156.53 573.2 23.7 264.59 .84 264.59 147.67 605.74 165.39 605.74 312.22 264.59 289.36 264.59"/>
      <polygon class="cls-2" points="335.94 264.93 189.11 606.08 211.97 606.08 358.8 264.93 335.94 264.93"/>
      <path class="cls-2" d="M575.45,264.93l-87.64,203.62-87.64-203.62h-18.55l-146.83,341.15h22.86l88.05-204.58,88.05,204.58h17.72l146.83-341.15h-22.86ZM442.62,573.54l-85.48-198.6,11.16-25.94,85.48,198.6-11.16,25.94ZM465.21,521.04l-85.48-198.6,11.16-25.94,85.48,198.6-11.16,25.94Z"/>
      <polygon class="cls-2" points="621.14 264.93 474.31 606.08 497.17 606.08 644 264.93 621.14 264.93"/>
      <polygon class="cls-2" points="666.83 264.93 520 606.08 542.86 606.08 689.69 264.93 666.83 264.93"/>
    </g>
    <g>
      <polygon class="cls-1" points="289.03 0 201.24 203.62 113.45 0 90.54 0 189.79 230.18 178.6 256.11 68.18 0 45.27 0 167.15 282.67 155.97 308.61 22.9 0 0 0 147.09 341.15 164.84 341.15 311.93 0 289.03 0"/>
      <polygon class="cls-1" points="334.8 0 187.71 341.15 210.62 341.15 357.71 0 334.8 0"/>
      <path class="cls-1" d="M574.74,0l-87.79,203.62L399.16,0h-18.58l-147.09,341.15h22.9l88.21-204.58,88.21,204.58h17.75L597.64,0h-22.9ZM441.68,308.61l-85.63-198.6,11.18-25.94,85.63,198.6-11.18,25.94ZM464.31,256.12l-85.63-198.6,11.18-25.94,85.63,198.6-11.18,25.94Z"/>
      <polygon class="cls-1" points="620.51 0 473.42 341.15 496.33 341.15 643.42 0 620.51 0"/>
      <polygon class="cls-1" points="666.85 0 519.76 341.15 542.66 341.15 689.75 0 666.85 0"/>
    </g>
  </g>
</svg>