<svg viewBox="0 0 640 400" data-background-color="#212429" preserveAspectRatio="xMidYMid meet" height="400" width="640" xmlns="http://www.w3.org/2000/svg" xmlns:xlink="http://www.w3.org/1999/xlink"><rect width="640" height="400" x="0" y="0" opacity="1" fill="#212429" data-fill-palette-color="background" id="background"></rect><g id="tight-bounds" transform="matrix(1,0,0,1,122.24000000000001,90.01803004435013)"><svg viewBox="0 0 395.52 219.96393991129975" height="219.96393991129975" width="395.52"><g><svg viewBox="0 0 395.52 219.96393991129975" height="219.96393991129975" width="395.52"><g transform="matrix(1,0,0,1,0,135.94653938079577)"><svg viewBox="0 0 395.52 84.01740053050398" height="84.01740053050398" width="395.52"><g><svg viewBox="0 0 395.52 84.01740053050398" height="84.01740053050398" width="395.52"><g><svg viewBox="0 0 395.52 84.01740053050398" height="84.01740053050398" width="395.52"><g transform="matrix(1,0,0,1,0,0)"><svg width="395.52" viewBox="4 -38.79999923706055 222.17999267578125 48.04999923706055" height="84.01740053050398" data-palette-color="#f7f4e4"><g class="undefined-text-0" data-fill-palette-color="primary" id="text-0"><path d="M8.65-38.8L8.65-24.85Q9.5-25.4 11.23-26 12.95-26.6 15.2-26.6L15.2-26.6Q18-26.6 20.18-25.6 22.35-24.6 23.85-22.8 25.35-21 26.13-18.5 26.9-16 26.9-13L26.9-13Q26.9-9.85 25.98-7.33 25.05-4.8 23.35-3.05 21.65-1.3 19.25-0.35 16.85 0.6 13.85 0.6L13.85 0.6Q10.6 0.6 8.1 0.15 5.6-0.3 4-0.75L4-0.75 4-38 8.65-38.8ZM8.65-20.5L8.65-4.05Q9.35-3.85 10.63-3.68 11.9-3.5 13.8-3.5L13.8-3.5Q17.55-3.5 19.8-5.98 22.05-8.45 22.05-13L22.05-13Q22.05-15 21.65-16.75 21.25-18.5 20.35-19.78 19.45-21.05 18.03-21.78 16.6-22.5 14.6-22.5L14.6-22.5Q12.7-22.5 11.1-21.85 9.5-21.2 8.65-20.5L8.65-20.5ZM56.4-13L56.4-13Q56.4-9.9 55.5-7.4 54.6-4.9 52.97-3.1 51.35-1.3 49.1-0.33 46.85 0.65 44.2 0.65L44.2 0.65Q41.55 0.65 39.3-0.33 37.05-1.3 35.42-3.1 33.8-4.9 32.9-7.4 32-9.9 32-13L32-13Q32-16.05 32.9-18.57 33.8-21.1 35.42-22.9 37.05-24.7 39.3-25.68 41.55-26.65 44.2-26.65L44.2-26.65Q46.85-26.65 49.1-25.68 51.35-24.7 52.97-22.9 54.6-21.1 55.5-18.57 56.4-16.05 56.4-13ZM51.55-13L51.55-13Q51.55-17.4 49.57-19.98 47.6-22.55 44.2-22.55L44.2-22.55Q40.8-22.55 38.82-19.98 36.85-17.4 36.85-13L36.85-13Q36.85-8.6 38.82-6.03 40.8-3.45 44.2-3.45L44.2-3.45Q47.6-3.45 49.57-6.03 51.55-8.6 51.55-13ZM62.95 0L62.95-25.25Q64.55-25.65 67.2-26.1 69.85-26.55 73.3-26.55L73.3-26.55Q76.4-26.55 78.45-25.68 80.5-24.8 81.72-23.23 82.95-21.65 83.45-19.45 83.95-17.25 83.95-14.6L83.95-14.6 83.95 0 79.3 0 79.3-13.6Q79.3-16 78.97-17.7 78.65-19.4 77.9-20.45 77.15-21.5 75.9-21.98 74.65-22.45 72.8-22.45L72.8-22.45Q72.05-22.45 71.25-22.4 70.45-22.35 69.72-22.28 69-22.2 68.42-22.1 67.85-22 67.6-21.95L67.6-21.95 67.6 0 62.95 0ZM108.44-4.05L108.44-20.5Q107.59-21.2 105.99-21.85 104.39-22.5 102.49-22.5L102.49-22.5Q100.49-22.5 99.07-21.78 97.64-21.05 96.74-19.78 95.84-18.5 95.44-16.75 95.04-15 95.04-13L95.04-13Q95.04-8.45 97.29-5.98 99.54-3.5 103.29-3.5L103.29-3.5Q105.19-3.5 106.47-3.68 107.74-3.85 108.44-4.05L108.44-4.05ZM108.44-24.85L108.44-38 113.09-38.8 113.09-0.75Q111.49-0.3 108.99 0.15 106.49 0.6 103.24 0.6L103.24 0.6Q100.24 0.6 97.84-0.35 95.44-1.3 93.74-3.05 92.04-4.8 91.12-7.33 90.19-9.85 90.19-13L90.19-13Q90.19-16 90.97-18.5 91.74-21 93.24-22.8 94.74-24.6 96.92-25.6 99.09-26.6 101.89-26.6L101.89-26.6Q104.14-26.6 105.87-26 107.59-25.4 108.44-24.85L108.44-24.85Z" fill="#f7f4e4" data-fill-palette-color="primary"></path><path d="M135.14-12.95L135.14-12.95Q135.14-17.5 132.89-19.95 130.64-22.4 126.89-22.4L126.89-22.4Q124.79-22.4 123.62-22.25 122.44-22.1 121.74-21.9L121.74-21.9 121.74-5.5Q122.59-4.8 124.19-4.15 125.79-3.5 127.69-3.5L127.69-3.5Q129.69-3.5 131.12-4.23 132.54-4.95 133.44-6.23 134.34-7.5 134.74-9.22 135.14-10.95 135.14-12.95ZM139.99-12.95L139.99-12.95Q139.99-10 139.22-7.5 138.44-5 136.94-3.2 135.44-1.4 133.27-0.4 131.09 0.6 128.29 0.6L128.29 0.6Q126.04 0.6 124.32 0 122.59-0.6 121.74-1.15L121.74-1.15 121.74 9.25 117.09 9.25 117.09-25.2Q118.74-25.6 121.22-26.08 123.69-26.55 126.94-26.55L126.94-26.55Q129.94-26.55 132.34-25.6 134.74-24.65 136.44-22.9 138.14-21.15 139.07-18.63 139.99-16.1 139.99-12.95ZM169.49-13L169.49-13Q169.49-9.9 168.59-7.4 167.69-4.9 166.06-3.1 164.44-1.3 162.19-0.33 159.94 0.65 157.29 0.65L157.29 0.65Q154.64 0.65 152.39-0.33 150.14-1.3 148.51-3.1 146.89-4.9 145.99-7.4 145.09-9.9 145.09-13L145.09-13Q145.09-16.05 145.99-18.57 146.89-21.1 148.51-22.9 150.14-24.7 152.39-25.68 154.64-26.65 157.29-26.65L157.29-26.65Q159.94-26.65 162.19-25.68 164.44-24.7 166.06-22.9 167.69-21.1 168.59-18.57 169.49-16.05 169.49-13ZM164.64-13L164.64-13Q164.64-17.4 162.66-19.98 160.69-22.55 157.29-22.55L157.29-22.55Q153.89-22.55 151.91-19.98 149.94-17.4 149.94-13L149.94-13Q149.94-8.6 151.91-6.03 153.89-3.45 157.29-3.45L157.29-3.45Q160.69-3.45 162.66-6.03 164.64-8.6 164.64-13ZM176.04 0L176.04-25.25Q177.64-25.65 180.29-26.1 182.94-26.55 186.39-26.55L186.39-26.55Q189.49-26.55 191.54-25.68 193.59-24.8 194.81-23.23 196.04-21.65 196.54-19.45 197.04-17.25 197.04-14.6L197.04-14.6 197.04 0 192.39 0 192.39-13.6Q192.39-16 192.06-17.7 191.74-19.4 190.99-20.45 190.24-21.5 188.99-21.98 187.74-22.45 185.89-22.45L185.89-22.45Q185.14-22.45 184.34-22.4 183.54-22.35 182.81-22.28 182.09-22.2 181.51-22.1 180.94-22 180.69-21.95L180.69-21.95 180.69 0 176.04 0ZM221.53-4.05L221.53-20.5Q220.68-21.2 219.08-21.85 217.48-22.5 215.58-22.5L215.58-22.5Q213.58-22.5 212.16-21.78 210.73-21.05 209.83-19.78 208.93-18.5 208.53-16.75 208.13-15 208.13-13L208.13-13Q208.13-8.45 210.38-5.98 212.63-3.5 216.38-3.5L216.38-3.5Q218.28-3.5 219.56-3.68 220.83-3.85 221.53-4.05L221.53-4.05ZM221.53-24.85L221.53-38 226.18-38.8 226.18-0.75Q224.58-0.3 222.08 0.15 219.58 0.6 216.33 0.6L216.33 0.6Q213.33 0.6 210.93-0.35 208.53-1.3 206.83-3.05 205.13-4.8 204.21-7.33 203.28-9.85 203.28-13L203.28-13Q203.28-16 204.06-18.5 204.83-21 206.33-22.8 207.83-24.6 210.01-25.6 212.18-26.6 214.98-26.6L214.98-26.6Q217.23-26.6 218.96-26 220.68-25.4 221.53-24.85L221.53-24.85Z" fill="#ee7ddc" data-fill-palette-color="secondary"></path></g></svg></g></svg></g></svg></g></svg></g><g transform="matrix(1,0,0,1,123.87051520617312,0)"><svg viewBox="0 0 147.77896958765373 116.11204753315651" height="116.11204753315651" width="147.77896958765373"><g><svg xmlns="http://www.w3.org/2000/svg" xmlns:xlink="http://www.w3.org/1999/xlink" version="1.1" x="0" y="0" viewBox="2 5 28 22" enable-background="new 0 0 32 32" xml:space="preserve" height="116.11204753315651" width="147.77896958765373" class="icon-icon-0" data-fill-palette-color="accent" id="icon-0"><path d="M26 23.5h-3c-0.276 0-0.5-0.224-0.5-0.5s0.224-0.5 0.5-0.5h2.5V20c0-0.276 0.224-0.5 0.5-0.5s0.5 0.224 0.5 0.5v3C26.5 23.276 26.276 23.5 26 23.5z" fill="#ee7ddc" data-fill-palette-color="accent"></path><path d="M26 12.5c-0.276 0-0.5-0.224-0.5-0.5V9.5H23c-0.276 0-0.5-0.224-0.5-0.5s0.224-0.5 0.5-0.5h3c0.276 0 0.5 0.224 0.5 0.5v3C26.5 12.276 26.276 12.5 26 12.5z" fill="#ee7ddc" data-fill-palette-color="accent"></path><path d="M29 27H3c-0.553 0-1-0.448-1-1V6c0-0.552 0.447-1 1-1h26c0.553 0 1 0.448 1 1v20C30 26.552 29.553 27 29 27zM4 25h24V7H4V25z" fill="#ee7ddc" data-fill-palette-color="accent"></path><path d="M16.5 15.666v-1.501c0.291 0.128 0.5 0.351 0.5 0.61 0 0.276 0.224 0.5 0.5 0.5s0.5-0.224 0.5-0.5c0-0.801-0.64-1.471-1.5-1.664V12.5c0-0.276-0.224-0.5-0.5-0.5s-0.5 0.224-0.5 0.5v0.611c-0.86 0.193-1.5 0.862-1.5 1.664 0 0.776 0.924 1.304 1.5 1.559v1.501c-0.291-0.128-0.5-0.351-0.5-0.61 0-0.276-0.224-0.5-0.5-0.5s-0.5 0.224-0.5 0.5c0 0.801 0.64 1.471 1.5 1.664V19.5c0 0.276 0.224 0.5 0.5 0.5s0.5-0.224 0.5-0.5v-0.611c0.86-0.193 1.5-0.862 1.5-1.664C18 16.449 17.076 15.921 16.5 15.666zM15 14.775c0-0.259 0.209-0.482 0.5-0.61v1.038C15.22 15.034 15.018 14.867 15 14.775zM16.5 17.835v-1.038c0.28 0.169 0.482 0.337 0.5 0.428C17 17.484 16.791 17.707 16.5 17.835z" fill="#ee7ddc" data-fill-palette-color="accent"></path><path d="M6 12.5c-0.276 0-0.5-0.224-0.5-0.5V9c0-0.276 0.224-0.5 0.5-0.5h3c0.276 0 0.5 0.224 0.5 0.5S9.276 9.5 9 9.5H6.5V12C6.5 12.276 6.276 12.5 6 12.5z" fill="#ee7ddc" data-fill-palette-color="accent"></path><path d="M9 23.5H6c-0.276 0-0.5-0.224-0.5-0.5v-3c0-0.276 0.224-0.5 0.5-0.5s0.5 0.224 0.5 0.5v2.5H9c0.276 0 0.5 0.224 0.5 0.5S9.276 23.5 9 23.5z" fill="#ee7ddc" data-fill-palette-color="accent"></path></svg></g></svg></g><g></g></svg></g></svg><rect width="395.52" height="219.96393991129975" fill="none" stroke="none" visibility="hidden"></rect></g><defs></defs></svg>