<svg width="1080" height="720" viewBox="0 0 1080 720" fill="none" xmlns="http://www.w3.org/2000/svg">
<rect width="1080" height="720" fill="url(#paint0_radial_13_398)"/>
<rect x="83" y="83" width="914" height="554" rx="28" stroke="white" stroke-width="4" stroke-dasharray="10 10"/>
<path d="M123.699 189.52V202H122.019V189.52H117.579V188.04H128.139V189.52H123.699ZM130.284 187.2H131.884V193.36H131.964C132.217 192.773 132.571 192.307 133.024 191.96C133.491 191.613 134.111 191.44 134.884 191.44C135.951 191.44 136.791 191.787 137.404 192.48C138.031 193.16 138.344 194.127 138.344 195.38V202H136.744V195.66C136.744 193.807 135.964 192.88 134.404 192.88C134.084 192.88 133.771 192.92 133.464 193C133.171 193.08 132.904 193.2 132.664 193.36C132.424 193.52 132.231 193.727 132.084 193.98C131.951 194.22 131.884 194.507 131.884 194.84V202H130.284V187.2ZM145.531 202.24C144.825 202.24 144.185 202.113 143.611 201.86C143.051 201.607 142.565 201.247 142.151 200.78C141.751 200.3 141.438 199.733 141.211 199.08C140.998 198.413 140.891 197.667 140.891 196.84C140.891 196.027 140.998 195.287 141.211 194.62C141.438 193.953 141.751 193.387 142.151 192.92C142.565 192.44 143.051 192.073 143.611 191.82C144.185 191.567 144.825 191.44 145.531 191.44C146.225 191.44 146.845 191.567 147.391 191.82C147.938 192.073 148.405 192.427 148.791 192.88C149.178 193.32 149.471 193.847 149.671 194.46C149.885 195.073 149.991 195.747 149.991 196.48V197.24H142.571V197.72C142.571 198.16 142.638 198.573 142.771 198.96C142.918 199.333 143.118 199.66 143.371 199.94C143.638 200.22 143.958 200.44 144.331 200.6C144.718 200.76 145.151 200.84 145.631 200.84C146.285 200.84 146.851 200.687 147.331 200.38C147.825 200.073 148.205 199.633 148.471 199.06L149.611 199.88C149.278 200.587 148.758 201.16 148.051 201.6C147.345 202.027 146.505 202.24 145.531 202.24ZM145.531 192.78C145.091 192.78 144.691 192.86 144.331 193.02C143.971 193.167 143.658 193.38 143.391 193.66C143.138 193.94 142.938 194.273 142.791 194.66C142.645 195.033 142.571 195.447 142.571 195.9V196.04H148.271V195.82C148.271 194.9 148.018 194.167 147.511 193.62C147.018 193.06 146.358 192.78 145.531 192.78ZM159.634 202C159.074 202 158.648 201.847 158.354 201.54C158.074 201.22 157.934 200.807 157.934 200.3V193.08H156.234V191.68H157.194C157.541 191.68 157.774 191.613 157.894 191.48C158.028 191.333 158.094 191.087 158.094 190.74V188.82H159.534V191.68H161.794V193.08H159.534V200.6H161.634V202H159.634ZM163.286 191.68H164.846L165.946 196.14L167.046 200.66H167.086L168.346 196.14L169.646 191.68H171.066L172.406 196.14L173.686 200.66H173.726L174.786 196.14L175.906 191.68H177.406L174.666 202H172.686L171.246 197.04L170.346 193.9H170.306L169.426 197.04L167.986 202H166.046L163.286 191.68ZM183.52 202.24C182.827 202.24 182.193 202.113 181.62 201.86C181.047 201.607 180.553 201.247 180.14 200.78C179.74 200.3 179.427 199.733 179.2 199.08C178.973 198.413 178.86 197.667 178.86 196.84C178.86 196.027 178.973 195.287 179.2 194.62C179.427 193.953 179.74 193.387 180.14 192.92C180.553 192.44 181.047 192.073 181.62 191.82C182.193 191.567 182.827 191.44 183.52 191.44C184.213 191.44 184.84 191.567 185.4 191.82C185.973 192.073 186.467 192.44 186.88 192.92C187.293 193.387 187.613 193.953 187.84 194.62C188.067 195.287 188.18 196.027 188.18 196.84C188.18 197.667 188.067 198.413 187.84 199.08C187.613 199.733 187.293 200.3 186.88 200.78C186.467 201.247 185.973 201.607 185.4 201.86C184.84 202.113 184.213 202.24 183.52 202.24ZM183.52 200.82C184.387 200.82 185.093 200.553 185.64 200.02C186.187 199.487 186.46 198.673 186.46 197.58V196.1C186.46 195.007 186.187 194.193 185.64 193.66C185.093 193.127 184.387 192.86 183.52 192.86C182.653 192.86 181.947 193.127 181.4 193.66C180.853 194.193 180.58 195.007 180.58 196.1V197.58C180.58 198.673 180.853 199.487 181.4 200.02C181.947 200.553 182.653 200.82 183.52 200.82ZM199.378 202.24C198.658 202.24 198.011 202.113 197.438 201.86C196.865 201.607 196.378 201.247 195.978 200.78C195.591 200.313 195.291 199.747 195.078 199.08C194.878 198.413 194.778 197.667 194.778 196.84C194.778 196.013 194.878 195.267 195.078 194.6C195.291 193.933 195.591 193.367 195.978 192.9C196.378 192.433 196.865 192.073 197.438 191.82C198.011 191.567 198.658 191.44 199.378 191.44C200.405 191.44 201.225 191.667 201.838 192.12C202.465 192.56 202.931 193.14 203.238 193.86L201.898 194.54C201.711 194.007 201.405 193.593 200.978 193.3C200.551 193.007 200.018 192.86 199.378 192.86C198.898 192.86 198.478 192.94 198.118 193.1C197.758 193.247 197.458 193.46 197.218 193.74C196.978 194.007 196.798 194.333 196.678 194.72C196.558 195.093 196.498 195.507 196.498 195.96V197.72C196.498 198.627 196.738 199.373 197.218 199.96C197.711 200.533 198.431 200.82 199.378 200.82C200.671 200.82 201.605 200.22 202.178 199.02L203.338 199.8C203.005 200.547 202.505 201.14 201.838 201.58C201.185 202.02 200.365 202.24 199.378 202.24ZM209.379 202.24C208.686 202.24 208.053 202.113 207.479 201.86C206.906 201.607 206.413 201.247 205.999 200.78C205.599 200.3 205.286 199.733 205.059 199.08C204.833 198.413 204.719 197.667 204.719 196.84C204.719 196.027 204.833 195.287 205.059 194.62C205.286 193.953 205.599 193.387 205.999 192.92C206.413 192.44 206.906 192.073 207.479 191.82C208.053 191.567 208.686 191.44 209.379 191.44C210.073 191.44 210.699 191.567 211.259 191.82C211.833 192.073 212.326 192.44 212.739 192.92C213.153 193.387 213.473 193.953 213.699 194.62C213.926 195.287 214.039 196.027 214.039 196.84C214.039 197.667 213.926 198.413 213.699 199.08C213.473 199.733 213.153 200.3 212.739 200.78C212.326 201.247 211.833 201.607 211.259 201.86C210.699 202.113 210.073 202.24 209.379 202.24ZM209.379 200.82C210.246 200.82 210.953 200.553 211.499 200.02C212.046 199.487 212.319 198.673 212.319 197.58V196.1C212.319 195.007 212.046 194.193 211.499 193.66C210.953 193.127 210.246 192.86 209.379 192.86C208.513 192.86 207.806 193.127 207.259 193.66C206.713 194.193 206.439 195.007 206.439 196.1V197.58C206.439 198.673 206.713 199.487 207.259 200.02C207.806 200.553 208.513 200.82 209.379 200.82ZM216.671 202V191.68H218.271V193.58H218.371C218.557 193.087 218.891 192.647 219.371 192.26C219.851 191.873 220.511 191.68 221.351 191.68H221.971V193.28H221.031C220.164 193.28 219.484 193.447 218.991 193.78C218.511 194.1 218.271 194.507 218.271 195V202H216.671ZM227.797 202.24C227.09 202.24 226.45 202.113 225.877 201.86C225.317 201.607 224.83 201.247 224.417 200.78C224.017 200.3 223.703 199.733 223.477 199.08C223.263 198.413 223.157 197.667 223.157 196.84C223.157 196.027 223.263 195.287 223.477 194.62C223.703 193.953 224.017 193.387 224.417 192.92C224.83 192.44 225.317 192.073 225.877 191.82C226.45 191.567 227.09 191.44 227.797 191.44C228.49 191.44 229.11 191.567 229.657 191.82C230.203 192.073 230.67 192.427 231.057 192.88C231.443 193.32 231.737 193.847 231.937 194.46C232.15 195.073 232.257 195.747 232.257 196.48V197.24H224.837V197.72C224.837 198.16 224.903 198.573 225.037 198.96C225.183 199.333 225.383 199.66 225.637 199.94C225.903 200.22 226.223 200.44 226.597 200.6C226.983 200.76 227.417 200.84 227.897 200.84C228.55 200.84 229.117 200.687 229.597 200.38C230.09 200.073 230.47 199.633 230.737 199.06L231.877 199.88C231.543 200.587 231.023 201.16 230.317 201.6C229.61 202.027 228.77 202.24 227.797 202.24ZM227.797 192.78C227.357 192.78 226.957 192.86 226.597 193.02C226.237 193.167 225.923 193.38 225.657 193.66C225.403 193.94 225.203 194.273 225.057 194.66C224.91 195.033 224.837 195.447 224.837 195.9V196.04H230.537V195.82C230.537 194.9 230.283 194.167 229.777 193.62C229.283 193.06 228.623 192.78 227.797 192.78ZM239.62 187.2H241.22V193.36H241.3C241.567 192.707 241.953 192.227 242.46 191.92C242.98 191.6 243.6 191.44 244.32 191.44C244.96 191.44 245.54 191.567 246.06 191.82C246.58 192.073 247.02 192.433 247.38 192.9C247.753 193.367 248.033 193.933 248.22 194.6C248.42 195.267 248.52 196.013 248.52 196.84C248.52 197.667 248.42 198.413 248.22 199.08C248.033 199.747 247.753 200.313 247.38 200.78C247.02 201.247 246.58 201.607 246.06 201.86C245.54 202.113 244.96 202.24 244.32 202.24C242.92 202.24 241.913 201.6 241.3 200.32H241.22V202H239.62V187.2ZM243.88 200.8C244.787 200.8 245.5 200.52 246.02 199.96C246.54 199.387 246.8 198.64 246.8 197.72V195.96C246.8 195.04 246.54 194.3 246.02 193.74C245.5 193.167 244.787 192.88 243.88 192.88C243.52 192.88 243.173 192.933 242.84 193.04C242.52 193.133 242.24 193.267 242 193.44C241.76 193.613 241.567 193.827 241.42 194.08C241.287 194.32 241.22 194.58 241.22 194.86V198.7C241.22 199.033 241.287 199.333 241.42 199.6C241.567 199.853 241.76 200.073 242 200.26C242.24 200.433 242.52 200.567 242.84 200.66C243.173 200.753 243.52 200.8 243.88 200.8ZM252.921 202C252.361 202 251.935 201.847 251.641 201.54C251.361 201.22 251.221 200.82 251.221 200.34V187.2H252.821V200.6H254.341V202H252.921ZM263.031 200.32H262.951C262.844 200.56 262.711 200.8 262.551 201.04C262.404 201.267 262.217 201.473 261.991 201.66C261.764 201.833 261.491 201.973 261.171 202.08C260.851 202.187 260.477 202.24 260.051 202.24C258.984 202.24 258.137 201.9 257.511 201.22C256.884 200.527 256.571 199.553 256.571 198.3V191.68H258.171V198.02C258.171 199.873 258.957 200.8 260.531 200.8C260.851 200.8 261.157 200.76 261.451 200.68C261.757 200.6 262.024 200.48 262.251 200.32C262.491 200.16 262.677 199.96 262.811 199.72C262.957 199.467 263.031 199.167 263.031 198.82V191.68H264.631V202H263.031V200.32ZM271.918 202.24C271.211 202.24 270.571 202.113 269.998 201.86C269.438 201.607 268.951 201.247 268.538 200.78C268.138 200.3 267.825 199.733 267.598 199.08C267.385 198.413 267.278 197.667 267.278 196.84C267.278 196.027 267.385 195.287 267.598 194.62C267.825 193.953 268.138 193.387 268.538 192.92C268.951 192.44 269.438 192.073 269.998 191.82C270.571 191.567 271.211 191.44 271.918 191.44C272.611 191.44 273.231 191.567 273.778 191.82C274.325 192.073 274.791 192.427 275.178 192.88C275.565 193.32 275.858 193.847 276.058 194.46C276.271 195.073 276.378 195.747 276.378 196.48V197.24H268.958V197.72C268.958 198.16 269.025 198.573 269.158 198.96C269.305 199.333 269.505 199.66 269.758 199.94C270.025 200.22 270.345 200.44 270.718 200.6C271.105 200.76 271.538 200.84 272.018 200.84C272.671 200.84 273.238 200.687 273.718 200.38C274.211 200.073 274.591 199.633 274.858 199.06L275.998 199.88C275.665 200.587 275.145 201.16 274.438 201.6C273.731 202.027 272.891 202.24 271.918 202.24ZM271.918 192.78C271.478 192.78 271.078 192.86 270.718 193.02C270.358 193.167 270.045 193.38 269.778 193.66C269.525 193.94 269.325 194.273 269.178 194.66C269.031 195.033 268.958 195.447 268.958 195.9V196.04H274.658V195.82C274.658 194.9 274.405 194.167 273.898 193.62C273.405 193.06 272.745 192.78 271.918 192.78ZM279.014 191.68H280.614V193.36H280.694C280.961 192.707 281.348 192.227 281.854 191.92C282.374 191.6 282.994 191.44 283.714 191.44C284.354 191.44 284.934 191.567 285.454 191.82C285.974 192.073 286.414 192.433 286.774 192.9C287.148 193.367 287.428 193.933 287.614 194.6C287.814 195.267 287.914 196.013 287.914 196.84C287.914 197.667 287.814 198.413 287.614 199.08C287.428 199.747 287.148 200.313 286.774 200.78C286.414 201.247 285.974 201.607 285.454 201.86C284.934 202.113 284.354 202.24 283.714 202.24C282.314 202.24 281.308 201.6 280.694 200.32H280.614V206H279.014V191.68ZM283.274 200.8C284.181 200.8 284.894 200.52 285.414 199.96C285.934 199.387 286.194 198.64 286.194 197.72V195.96C286.194 195.04 285.934 194.3 285.414 193.74C284.894 193.167 284.181 192.88 283.274 192.88C282.914 192.88 282.568 192.933 282.234 193.04C281.914 193.133 281.634 193.267 281.394 193.44C281.154 193.613 280.961 193.827 280.814 194.08C280.681 194.32 280.614 194.58 280.614 194.86V198.7C280.614 199.033 280.681 199.333 280.814 199.6C280.961 199.853 281.154 200.073 281.394 200.26C281.634 200.433 281.914 200.567 282.234 200.66C282.568 200.753 282.914 200.8 283.274 200.8ZM290.616 202V191.68H292.216V193.58H292.316C292.503 193.087 292.836 192.647 293.316 192.26C293.796 191.873 294.456 191.68 295.296 191.68H295.916V193.28H294.976C294.109 193.28 293.429 193.447 292.936 193.78C292.456 194.1 292.216 194.507 292.216 195V202H290.616ZM298.76 189.26C298.413 189.26 298.16 189.18 298 189.02C297.853 188.847 297.78 188.627 297.78 188.36V188.1C297.78 187.833 297.853 187.62 298 187.46C298.16 187.287 298.413 187.2 298.76 187.2C299.106 187.2 299.353 187.287 299.5 187.46C299.66 187.62 299.74 187.833 299.74 188.1V188.36C299.74 188.627 299.66 188.847 299.5 189.02C299.353 189.18 299.106 189.26 298.76 189.26ZM297.96 191.68H299.56V202H297.96V191.68ZM302.96 202V191.68H304.56V193.36H304.64C304.893 192.773 305.246 192.307 305.7 191.96C306.166 191.613 306.786 191.44 307.56 191.44C308.626 191.44 309.466 191.787 310.08 192.48C310.706 193.16 311.02 194.127 311.02 195.38V202H309.42V195.66C309.42 193.807 308.64 192.88 307.08 192.88C306.76 192.88 306.446 192.92 306.14 193C305.846 193.08 305.58 193.2 305.34 193.36C305.1 193.52 304.906 193.727 304.76 193.98C304.626 194.22 304.56 194.507 304.56 194.84V202H302.96ZM316.607 202C316.047 202 315.62 201.847 315.327 201.54C315.047 201.22 314.907 200.807 314.907 200.3V193.08H313.207V191.68H314.167C314.514 191.68 314.747 191.613 314.867 191.48C315 191.333 315.067 191.087 315.067 190.74V188.82H316.507V191.68H318.767V193.08H316.507V200.6H318.607V202H316.607ZM324.439 202.24C323.479 202.24 322.672 202.06 322.019 201.7C321.379 201.327 320.825 200.833 320.359 200.22L321.499 199.3C321.899 199.807 322.345 200.2 322.839 200.48C323.332 200.747 323.905 200.88 324.559 200.88C325.239 200.88 325.765 200.733 326.139 200.44C326.525 200.147 326.719 199.733 326.719 199.2C326.719 198.8 326.585 198.46 326.319 198.18C326.065 197.887 325.599 197.687 324.919 197.58L324.099 197.46C323.619 197.393 323.179 197.293 322.779 197.16C322.379 197.013 322.025 196.827 321.719 196.6C321.425 196.36 321.192 196.067 321.019 195.72C320.859 195.373 320.779 194.96 320.779 194.48C320.779 193.973 320.872 193.533 321.059 193.16C321.245 192.773 321.499 192.453 321.819 192.2C322.152 191.947 322.545 191.76 322.999 191.64C323.452 191.507 323.939 191.44 324.459 191.44C325.299 191.44 325.999 191.587 326.559 191.88C327.132 192.173 327.632 192.58 328.059 193.1L326.999 194.06C326.772 193.74 326.439 193.453 325.999 193.2C325.559 192.933 325.005 192.8 324.339 192.8C323.672 192.8 323.165 192.947 322.819 193.24C322.485 193.52 322.319 193.907 322.319 194.4C322.319 194.907 322.485 195.273 322.819 195.5C323.165 195.727 323.659 195.893 324.299 196L325.099 196.12C326.245 196.293 327.059 196.627 327.539 197.12C328.019 197.6 328.259 198.233 328.259 199.02C328.259 200.02 327.919 200.807 327.239 201.38C326.559 201.953 325.625 202.24 324.439 202.24ZM342.171 200.32H342.091C341.985 200.56 341.851 200.8 341.691 201.04C341.545 201.267 341.358 201.473 341.131 201.66C340.905 201.833 340.631 201.973 340.311 202.08C339.991 202.187 339.618 202.24 339.191 202.24C338.125 202.24 337.278 201.9 336.651 201.22C336.025 200.527 335.711 199.553 335.711 198.3V191.68H337.311V198.02C337.311 199.873 338.098 200.8 339.671 200.8C339.991 200.8 340.298 200.76 340.591 200.68C340.898 200.6 341.165 200.48 341.391 200.32C341.631 200.16 341.818 199.96 341.951 199.72C342.098 199.467 342.171 199.167 342.171 198.82V191.68H343.771V202H342.171V200.32ZM350.279 202.24C349.319 202.24 348.512 202.06 347.859 201.7C347.219 201.327 346.665 200.833 346.199 200.22L347.339 199.3C347.739 199.807 348.185 200.2 348.679 200.48C349.172 200.747 349.745 200.88 350.399 200.88C351.079 200.88 351.605 200.733 351.979 200.44C352.365 200.147 352.559 199.733 352.559 199.2C352.559 198.8 352.425 198.46 352.159 198.18C351.905 197.887 351.439 197.687 350.759 197.58L349.939 197.46C349.459 197.393 349.019 197.293 348.619 197.16C348.219 197.013 347.865 196.827 347.559 196.6C347.265 196.36 347.032 196.067 346.859 195.72C346.699 195.373 346.619 194.96 346.619 194.48C346.619 193.973 346.712 193.533 346.899 193.16C347.085 192.773 347.339 192.453 347.659 192.2C347.992 191.947 348.385 191.76 348.839 191.64C349.292 191.507 349.779 191.44 350.299 191.44C351.139 191.44 351.839 191.587 352.399 191.88C352.972 192.173 353.472 192.58 353.899 193.1L352.839 194.06C352.612 193.74 352.279 193.453 351.839 193.2C351.399 192.933 350.845 192.8 350.179 192.8C349.512 192.8 349.005 192.947 348.659 193.24C348.325 193.52 348.159 193.907 348.159 194.4C348.159 194.907 348.325 195.273 348.659 195.5C349.005 195.727 349.499 195.893 350.139 196L350.939 196.12C352.085 196.293 352.899 196.627 353.379 197.12C353.859 197.6 354.099 198.233 354.099 199.02C354.099 200.02 353.759 200.807 353.079 201.38C352.399 201.953 351.465 202.24 350.279 202.24ZM360.805 202.24C360.098 202.24 359.458 202.113 358.885 201.86C358.325 201.607 357.838 201.247 357.425 200.78C357.025 200.3 356.711 199.733 356.485 199.08C356.271 198.413 356.165 197.667 356.165 196.84C356.165 196.027 356.271 195.287 356.485 194.62C356.711 193.953 357.025 193.387 357.425 192.92C357.838 192.44 358.325 192.073 358.885 191.82C359.458 191.567 360.098 191.44 360.805 191.44C361.498 191.44 362.118 191.567 362.665 191.82C363.211 192.073 363.678 192.427 364.065 192.88C364.451 193.32 364.745 193.847 364.945 194.46C365.158 195.073 365.265 195.747 365.265 196.48V197.24H357.845V197.72C357.845 198.16 357.911 198.573 358.045 198.96C358.191 199.333 358.391 199.66 358.645 199.94C358.911 200.22 359.231 200.44 359.605 200.6C359.991 200.76 360.425 200.84 360.905 200.84C361.558 200.84 362.125 200.687 362.605 200.38C363.098 200.073 363.478 199.633 363.745 199.06L364.885 199.88C364.551 200.587 364.031 201.16 363.325 201.6C362.618 202.027 361.778 202.24 360.805 202.24ZM360.805 192.78C360.365 192.78 359.965 192.86 359.605 193.02C359.245 193.167 358.931 193.38 358.665 193.66C358.411 193.94 358.211 194.273 358.065 194.66C357.918 195.033 357.845 195.447 357.845 195.9V196.04H363.545V195.82C363.545 194.9 363.291 194.167 362.785 193.62C362.291 193.06 361.631 192.78 360.805 192.78ZM374.501 200.32H374.421C373.795 201.6 372.788 202.24 371.401 202.24C370.761 202.24 370.181 202.113 369.661 201.86C369.141 201.607 368.695 201.247 368.321 200.78C367.961 200.313 367.681 199.747 367.481 199.08C367.295 198.413 367.201 197.667 367.201 196.84C367.201 196.013 367.295 195.267 367.481 194.6C367.681 193.933 367.961 193.367 368.321 192.9C368.695 192.433 369.141 192.073 369.661 191.82C370.181 191.567 370.761 191.44 371.401 191.44C372.121 191.44 372.735 191.6 373.241 191.92C373.761 192.227 374.155 192.707 374.421 193.36H374.501V187.2H376.101V202H374.501V200.32ZM371.841 200.8C372.201 200.8 372.541 200.753 372.861 200.66C373.195 200.567 373.481 200.433 373.721 200.26C373.961 200.073 374.148 199.853 374.281 199.6C374.428 199.333 374.501 199.033 374.501 198.7V194.86C374.501 194.58 374.428 194.32 374.281 194.08C374.148 193.827 373.961 193.613 373.721 193.44C373.481 193.267 373.195 193.133 372.861 193.04C372.541 192.933 372.201 192.88 371.841 192.88C370.935 192.88 370.221 193.167 369.701 193.74C369.181 194.3 368.921 195.04 368.921 195.96V197.72C368.921 198.64 369.181 199.387 369.701 199.96C370.221 200.52 370.935 200.8 371.841 200.8ZM385.029 189.26C384.683 189.26 384.429 189.18 384.269 189.02C384.123 188.847 384.049 188.627 384.049 188.36V188.1C384.049 187.833 384.123 187.62 384.269 187.46C384.429 187.287 384.683 187.2 385.029 187.2C385.376 187.2 385.623 187.287 385.769 187.46C385.929 187.62 386.009 187.833 386.009 188.1V188.36C386.009 188.627 385.929 188.847 385.769 189.02C385.623 189.18 385.376 189.26 385.029 189.26ZM384.229 191.68H385.829V202H384.229V191.68ZM389.229 202V191.68H390.829V193.36H390.909C391.163 192.773 391.516 192.307 391.969 191.96C392.436 191.613 393.056 191.44 393.829 191.44C394.896 191.44 395.736 191.787 396.349 192.48C396.976 193.16 397.289 194.127 397.289 195.38V202H395.689V195.66C395.689 193.807 394.909 192.88 393.349 192.88C393.029 192.88 392.716 192.92 392.409 193C392.116 193.08 391.849 193.2 391.609 193.36C391.369 193.52 391.176 193.727 391.029 193.98C390.896 194.22 390.829 194.507 390.829 194.84V202H389.229ZM407.603 202C407.043 202 406.616 201.847 406.323 201.54C406.043 201.22 405.903 200.807 405.903 200.3V193.08H404.203V191.68H405.163C405.51 191.68 405.743 191.613 405.863 191.48C405.996 191.333 406.063 191.087 406.063 190.74V188.82H407.503V191.68H409.763V193.08H407.503V200.6H409.603V202H407.603ZM412.335 187.2H413.935V193.36H414.015C414.268 192.773 414.621 192.307 415.075 191.96C415.541 191.613 416.161 191.44 416.935 191.44C418.001 191.44 418.841 191.787 419.455 192.48C420.081 193.16 420.395 194.127 420.395 195.38V202H418.795V195.66C418.795 193.807 418.015 192.88 416.455 192.88C416.135 192.88 415.821 192.92 415.515 193C415.221 193.08 414.955 193.2 414.715 193.36C414.475 193.52 414.281 193.727 414.135 193.98C414.001 194.22 413.935 194.507 413.935 194.84V202H412.335V187.2ZM427.582 202.24C426.875 202.24 426.235 202.113 425.662 201.86C425.102 201.607 424.615 201.247 424.202 200.78C423.802 200.3 423.489 199.733 423.262 199.08C423.049 198.413 422.942 197.667 422.942 196.84C422.942 196.027 423.049 195.287 423.262 194.62C423.489 193.953 423.802 193.387 424.202 192.92C424.615 192.44 425.102 192.073 425.662 191.82C426.235 191.567 426.875 191.44 427.582 191.44C428.275 191.44 428.895 191.567 429.442 191.82C429.989 192.073 430.455 192.427 430.842 192.88C431.229 193.32 431.522 193.847 431.722 194.46C431.935 195.073 432.042 195.747 432.042 196.48V197.24H424.622V197.72C424.622 198.16 424.689 198.573 424.822 198.96C424.969 199.333 425.169 199.66 425.422 199.94C425.689 200.22 426.009 200.44 426.382 200.6C426.769 200.76 427.202 200.84 427.682 200.84C428.335 200.84 428.902 200.687 429.382 200.38C429.875 200.073 430.255 199.633 430.522 199.06L431.662 199.88C431.329 200.587 430.809 201.16 430.102 201.6C429.395 202.027 428.555 202.24 427.582 202.24ZM427.582 192.78C427.142 192.78 426.742 192.86 426.382 193.02C426.022 193.167 425.709 193.38 425.442 193.66C425.189 193.94 424.989 194.273 424.842 194.66C424.695 195.033 424.622 195.447 424.622 195.9V196.04H430.322V195.82C430.322 194.9 430.069 194.167 429.562 193.62C429.069 193.06 428.409 192.78 427.582 192.78ZM441.245 202H439.565V188.04H445.125C446.352 188.04 447.305 188.38 447.985 189.06C448.678 189.74 449.025 190.72 449.025 192C449.025 193.027 448.785 193.873 448.305 194.54C447.838 195.193 447.145 195.627 446.225 195.84L449.425 202H447.525L444.505 196H441.245V202ZM445.125 194.56C445.792 194.56 446.305 194.387 446.665 194.04C447.038 193.693 447.225 193.2 447.225 192.56V191.52C447.225 190.88 447.038 190.387 446.665 190.04C446.305 189.693 445.792 189.52 445.125 189.52H441.245V194.56H445.125ZM459.503 202C458.903 202 458.469 201.84 458.203 201.52C457.949 201.2 457.789 200.8 457.723 200.32H457.623C457.396 200.96 457.023 201.44 456.503 201.76C455.983 202.08 455.363 202.24 454.643 202.24C453.549 202.24 452.696 201.96 452.083 201.4C451.483 200.84 451.183 200.08 451.183 199.12C451.183 198.147 451.536 197.4 452.243 196.88C452.963 196.36 454.076 196.1 455.583 196.1H457.623V195.08C457.623 194.347 457.423 193.787 457.023 193.4C456.623 193.013 456.009 192.82 455.183 192.82C454.556 192.82 454.029 192.96 453.603 193.24C453.189 193.52 452.843 193.893 452.563 194.36L451.603 193.46C451.883 192.9 452.329 192.427 452.943 192.04C453.556 191.64 454.329 191.44 455.263 191.44C456.516 191.44 457.489 191.747 458.183 192.36C458.876 192.973 459.223 193.827 459.223 194.92V200.6H460.403V202H459.503ZM454.903 200.88C455.303 200.88 455.669 200.833 456.003 200.74C456.336 200.647 456.623 200.513 456.863 200.34C457.103 200.167 457.289 199.967 457.423 199.74C457.556 199.513 457.623 199.267 457.623 199V197.3H455.503C454.583 197.3 453.909 197.433 453.483 197.7C453.069 197.967 452.863 198.353 452.863 198.86V199.28C452.863 199.787 453.043 200.18 453.403 200.46C453.776 200.74 454.276 200.88 454.903 200.88ZM462.846 188.04H467.526C468.393 188.04 469.18 188.187 469.886 188.48C470.593 188.773 471.193 189.213 471.686 189.8C472.193 190.373 472.58 191.1 472.846 191.98C473.113 192.847 473.246 193.86 473.246 195.02C473.246 196.18 473.113 197.2 472.846 198.08C472.58 198.947 472.193 199.673 471.686 200.26C471.193 200.833 470.593 201.267 469.886 201.56C469.18 201.853 468.393 202 467.526 202H462.846V188.04ZM467.526 200.52C468.1 200.52 468.626 200.427 469.106 200.24C469.586 200.04 470 199.753 470.346 199.38C470.693 199.007 470.96 198.553 471.146 198.02C471.346 197.473 471.446 196.853 471.446 196.16V193.88C471.446 193.187 471.346 192.573 471.146 192.04C470.96 191.493 470.693 191.033 470.346 190.66C470 190.287 469.586 190.007 469.106 189.82C468.626 189.62 468.1 189.52 467.526 189.52H464.526V200.52H467.526ZM476.264 202V188.04H484.784V189.52H477.944V194.2H484.384V195.68H477.944V200.52H484.784V202H476.264ZM497.844 202H495.824L492.164 196.14H492.124L488.464 202H486.544L491.104 194.9L486.664 188.04H488.684L492.184 193.6H492.224L495.804 188.04H497.724L493.244 194.84L497.844 202ZM504.757 191.68H506.357V193.36H506.437C506.703 192.707 507.09 192.227 507.597 191.92C508.117 191.6 508.737 191.44 509.457 191.44C510.097 191.44 510.677 191.567 511.197 191.82C511.717 192.073 512.157 192.433 512.517 192.9C512.89 193.367 513.17 193.933 513.357 194.6C513.557 195.267 513.657 196.013 513.657 196.84C513.657 197.667 513.557 198.413 513.357 199.08C513.17 199.747 512.89 200.313 512.517 200.78C512.157 201.247 511.717 201.607 511.197 201.86C510.677 202.113 510.097 202.24 509.457 202.24C508.057 202.24 507.05 201.6 506.437 200.32H506.357V206H504.757V191.68ZM509.017 200.8C509.923 200.8 510.637 200.52 511.157 199.96C511.677 199.387 511.937 198.64 511.937 197.72V195.96C511.937 195.04 511.677 194.3 511.157 193.74C510.637 193.167 509.923 192.88 509.017 192.88C508.657 192.88 508.31 192.933 507.977 193.04C507.657 193.133 507.377 193.267 507.137 193.44C506.897 193.613 506.703 193.827 506.557 194.08C506.423 194.32 506.357 194.58 506.357 194.86V198.7C506.357 199.033 506.423 199.333 506.557 199.6C506.703 199.853 506.897 200.073 507.137 200.26C507.377 200.433 507.657 200.567 507.977 200.66C508.31 200.753 508.657 200.8 509.017 200.8ZM516.358 202V191.68H517.958V193.58H518.058C518.245 193.087 518.578 192.647 519.058 192.26C519.538 191.873 520.198 191.68 521.038 191.68H521.658V193.28H520.718C519.852 193.28 519.172 193.447 518.678 193.78C518.198 194.1 517.958 194.507 517.958 195V202H516.358ZM527.504 202.24C526.811 202.24 526.178 202.113 525.604 201.86C525.031 201.607 524.538 201.247 524.124 200.78C523.724 200.3 523.411 199.733 523.184 199.08C522.958 198.413 522.844 197.667 522.844 196.84C522.844 196.027 522.958 195.287 523.184 194.62C523.411 193.953 523.724 193.387 524.124 192.92C524.538 192.44 525.031 192.073 525.604 191.82C526.178 191.567 526.811 191.44 527.504 191.44C528.198 191.44 528.824 191.567 529.384 191.82C529.958 192.073 530.451 192.44 530.864 192.92C531.278 193.387 531.598 193.953 531.824 194.62C532.051 195.287 532.164 196.027 532.164 196.84C532.164 197.667 532.051 198.413 531.824 199.08C531.598 199.733 531.278 200.3 530.864 200.78C530.451 201.247 529.958 201.607 529.384 201.86C528.824 202.113 528.198 202.24 527.504 202.24ZM527.504 200.82C528.371 200.82 529.078 200.553 529.624 200.02C530.171 199.487 530.444 198.673 530.444 197.58V196.1C530.444 195.007 530.171 194.193 529.624 193.66C529.078 193.127 528.371 192.86 527.504 192.86C526.638 192.86 525.931 193.127 525.384 193.66C524.838 194.193 524.564 195.007 524.564 196.1V197.58C524.564 198.673 524.838 199.487 525.384 200.02C525.931 200.553 526.638 200.82 527.504 200.82ZM537.076 202C536.516 202 536.089 201.847 535.796 201.54C535.516 201.22 535.376 200.807 535.376 200.3V193.08H533.676V191.68H534.636C534.982 191.68 535.216 191.613 535.336 191.48C535.469 191.333 535.536 191.087 535.536 190.74V188.82H536.976V191.68H539.236V193.08H536.976V200.6H539.076V202H537.076ZM545.629 202.24C544.936 202.24 544.303 202.113 543.729 201.86C543.156 201.607 542.663 201.247 542.249 200.78C541.849 200.3 541.536 199.733 541.309 199.08C541.083 198.413 540.969 197.667 540.969 196.84C540.969 196.027 541.083 195.287 541.309 194.62C541.536 193.953 541.849 193.387 542.249 192.92C542.663 192.44 543.156 192.073 543.729 191.82C544.303 191.567 544.936 191.44 545.629 191.44C546.323 191.44 546.949 191.567 547.509 191.82C548.083 192.073 548.576 192.44 548.989 192.92C549.403 193.387 549.723 193.953 549.949 194.62C550.176 195.287 550.289 196.027 550.289 196.84C550.289 197.667 550.176 198.413 549.949 199.08C549.723 199.733 549.403 200.3 548.989 200.78C548.576 201.247 548.083 201.607 547.509 201.86C546.949 202.113 546.323 202.24 545.629 202.24ZM545.629 200.82C546.496 200.82 547.203 200.553 547.749 200.02C548.296 199.487 548.569 198.673 548.569 197.58V196.1C548.569 195.007 548.296 194.193 547.749 193.66C547.203 193.127 546.496 192.86 545.629 192.86C544.763 192.86 544.056 193.127 543.509 193.66C542.963 194.193 542.689 195.007 542.689 196.1V197.58C542.689 198.673 542.963 199.487 543.509 200.02C544.056 200.553 544.763 200.82 545.629 200.82ZM556.761 202.24C556.041 202.24 555.394 202.113 554.821 201.86C554.247 201.607 553.761 201.247 553.361 200.78C552.974 200.313 552.674 199.747 552.461 199.08C552.261 198.413 552.161 197.667 552.161 196.84C552.161 196.013 552.261 195.267 552.461 194.6C552.674 193.933 552.974 193.367 553.361 192.9C553.761 192.433 554.247 192.073 554.821 191.82C555.394 191.567 556.041 191.44 556.761 191.44C557.787 191.44 558.607 191.667 559.221 192.12C559.847 192.56 560.314 193.14 560.621 193.86L559.281 194.54C559.094 194.007 558.787 193.593 558.361 193.3C557.934 193.007 557.401 192.86 556.761 192.86C556.281 192.86 555.861 192.94 555.501 193.1C555.141 193.247 554.841 193.46 554.601 193.74C554.361 194.007 554.181 194.333 554.061 194.72C553.941 195.093 553.881 195.507 553.881 195.96V197.72C553.881 198.627 554.121 199.373 554.601 199.96C555.094 200.533 555.814 200.82 556.761 200.82C558.054 200.82 558.987 200.22 559.561 199.02L560.721 199.8C560.387 200.547 559.887 201.14 559.221 201.58C558.567 202.02 557.747 202.24 556.761 202.24ZM566.762 202.24C566.069 202.24 565.435 202.113 564.862 201.86C564.289 201.607 563.795 201.247 563.382 200.78C562.982 200.3 562.669 199.733 562.442 199.08C562.215 198.413 562.102 197.667 562.102 196.84C562.102 196.027 562.215 195.287 562.442 194.62C562.669 193.953 562.982 193.387 563.382 192.92C563.795 192.44 564.289 192.073 564.862 191.82C565.435 191.567 566.069 191.44 566.762 191.44C567.455 191.44 568.082 191.567 568.642 191.82C569.215 192.073 569.709 192.44 570.122 192.92C570.535 193.387 570.855 193.953 571.082 194.62C571.309 195.287 571.422 196.027 571.422 196.84C571.422 197.667 571.309 198.413 571.082 199.08C570.855 199.733 570.535 200.3 570.122 200.78C569.709 201.247 569.215 201.607 568.642 201.86C568.082 202.113 567.455 202.24 566.762 202.24ZM566.762 200.82C567.629 200.82 568.335 200.553 568.882 200.02C569.429 199.487 569.702 198.673 569.702 197.58V196.1C569.702 195.007 569.429 194.193 568.882 193.66C568.335 193.127 567.629 192.86 566.762 192.86C565.895 192.86 565.189 193.127 564.642 193.66C564.095 194.193 563.822 195.007 563.822 196.1V197.58C563.822 198.673 564.095 199.487 564.642 200.02C565.189 200.553 565.895 200.82 566.762 200.82ZM575.754 202C575.194 202 574.767 201.847 574.474 201.54C574.194 201.22 574.054 200.82 574.054 200.34V187.2H575.654V200.6H577.174V202H575.754ZM580.723 202.24C580.296 202.24 579.983 202.133 579.783 201.92C579.596 201.707 579.503 201.427 579.503 201.08V200.82C579.503 200.473 579.596 200.193 579.783 199.98C579.983 199.767 580.296 199.66 580.723 199.66C581.149 199.66 581.456 199.767 581.643 199.98C581.843 200.193 581.943 200.473 581.943 200.82V201.08C581.943 201.427 581.843 201.707 581.643 201.92C581.456 202.133 581.149 202.24 580.723 202.24ZM580.723 194.02C580.296 194.02 579.983 193.913 579.783 193.7C579.596 193.487 579.503 193.207 579.503 192.86V192.6C579.503 192.253 579.596 191.973 579.783 191.76C579.983 191.547 580.296 191.44 580.723 191.44C581.149 191.44 581.456 191.547 581.643 191.76C581.843 191.973 581.943 192.253 581.943 192.6V192.86C581.943 193.207 581.843 193.487 581.643 193.7C581.456 193.913 581.149 194.02 580.723 194.02ZM592.349 202C591.789 202 591.362 201.847 591.069 201.54C590.789 201.22 590.649 200.807 590.649 200.3V193.08H588.949V191.68H589.909C590.256 191.68 590.489 191.613 590.609 191.48C590.742 191.333 590.809 191.087 590.809 190.74V188.82H592.249V191.68H594.509V193.08H592.249V200.6H594.349V202H592.349ZM597.081 187.2H598.681V193.36H598.761C599.014 192.773 599.368 192.307 599.821 191.96C600.288 191.613 600.908 191.44 601.681 191.44C602.748 191.44 603.588 191.787 604.201 192.48C604.828 193.16 605.141 194.127 605.141 195.38V202H603.541V195.66C603.541 193.807 602.761 192.88 601.201 192.88C600.881 192.88 600.568 192.92 600.261 193C599.968 193.08 599.701 193.2 599.461 193.36C599.221 193.52 599.028 193.727 598.881 193.98C598.748 194.22 598.681 194.507 598.681 194.84V202H597.081V187.2ZM612.328 202.24C611.621 202.24 610.981 202.113 610.408 201.86C609.848 201.607 609.361 201.247 608.948 200.78C608.548 200.3 608.235 199.733 608.008 199.08C607.795 198.413 607.688 197.667 607.688 196.84C607.688 196.027 607.795 195.287 608.008 194.62C608.235 193.953 608.548 193.387 608.948 192.92C609.361 192.44 609.848 192.073 610.408 191.82C610.981 191.567 611.621 191.44 612.328 191.44C613.021 191.44 613.641 191.567 614.188 191.82C614.735 192.073 615.201 192.427 615.588 192.88C615.975 193.32 616.268 193.847 616.468 194.46C616.681 195.073 616.788 195.747 616.788 196.48V197.24H609.368V197.72C609.368 198.16 609.435 198.573 609.568 198.96C609.715 199.333 609.915 199.66 610.168 199.94C610.435 200.22 610.755 200.44 611.128 200.6C611.515 200.76 611.948 200.84 612.428 200.84C613.081 200.84 613.648 200.687 614.128 200.38C614.621 200.073 615.001 199.633 615.268 199.06L616.408 199.88C616.075 200.587 615.555 201.16 614.848 201.6C614.141 202.027 613.301 202.24 612.328 202.24ZM612.328 192.78C611.888 192.78 611.488 192.86 611.128 193.02C610.768 193.167 610.455 193.38 610.188 193.66C609.935 193.94 609.735 194.273 609.588 194.66C609.441 195.033 609.368 195.447 609.368 195.9V196.04H615.068V195.82C615.068 194.9 614.815 194.167 614.308 193.62C613.815 193.06 613.155 192.78 612.328 192.78ZM625.991 202H624.311V188.04H629.871C631.098 188.04 632.051 188.38 632.731 189.06C633.425 189.74 633.771 190.72 633.771 192C633.771 193.027 633.531 193.873 633.051 194.54C632.585 195.193 631.891 195.627 630.971 195.84L634.171 202H632.271L629.251 196H625.991V202ZM629.871 194.56C630.538 194.56 631.051 194.387 631.411 194.04C631.785 193.693 631.971 193.2 631.971 192.56V191.52C631.971 190.88 631.785 190.387 631.411 190.04C631.051 189.693 630.538 189.52 629.871 189.52H625.991V194.56H629.871ZM644.249 202C643.649 202 643.215 201.84 642.949 201.52C642.695 201.2 642.535 200.8 642.469 200.32H642.369C642.142 200.96 641.769 201.44 641.249 201.76C640.729 202.08 640.109 202.24 639.389 202.24C638.295 202.24 637.442 201.96 636.829 201.4C636.229 200.84 635.929 200.08 635.929 199.12C635.929 198.147 636.282 197.4 636.989 196.88C637.709 196.36 638.822 196.1 640.329 196.1H642.369V195.08C642.369 194.347 642.169 193.787 641.769 193.4C641.369 193.013 640.755 192.82 639.929 192.82C639.302 192.82 638.775 192.96 638.349 193.24C637.935 193.52 637.589 193.893 637.309 194.36L636.349 193.46C636.629 192.9 637.075 192.427 637.689 192.04C638.302 191.64 639.075 191.44 640.009 191.44C641.262 191.44 642.235 191.747 642.929 192.36C643.622 192.973 643.969 193.827 643.969 194.92V200.6H645.149V202H644.249ZM639.649 200.88C640.049 200.88 640.415 200.833 640.749 200.74C641.082 200.647 641.369 200.513 641.609 200.34C641.849 200.167 642.035 199.967 642.169 199.74C642.302 199.513 642.369 199.267 642.369 199V197.3H640.249C639.329 197.3 638.655 197.433 638.229 197.7C637.815 197.967 637.609 198.353 637.609 198.86V199.28C637.609 199.787 637.789 200.18 638.149 200.46C638.522 200.74 639.022 200.88 639.649 200.88ZM647.592 188.04H652.272C653.139 188.04 653.926 188.187 654.632 188.48C655.339 188.773 655.939 189.213 656.432 189.8C656.939 190.373 657.326 191.1 657.592 191.98C657.859 192.847 657.992 193.86 657.992 195.02C657.992 196.18 657.859 197.2 657.592 198.08C657.326 198.947 656.939 199.673 656.432 200.26C655.939 200.833 655.339 201.267 654.632 201.56C653.926 201.853 653.139 202 652.272 202H647.592V188.04ZM652.272 200.52C652.846 200.52 653.372 200.427 653.852 200.24C654.332 200.04 654.746 199.753 655.092 199.38C655.439 199.007 655.706 198.553 655.892 198.02C656.092 197.473 656.192 196.853 656.192 196.16V193.88C656.192 193.187 656.092 192.573 655.892 192.04C655.706 191.493 655.439 191.033 655.092 190.66C654.746 190.287 654.332 190.007 653.852 189.82C653.372 189.62 652.846 189.52 652.272 189.52H649.272V200.52H652.272ZM661.01 202V188.04H669.53V189.52H662.69V194.2H669.13V195.68H662.69V200.52H669.53V202H661.01ZM682.591 202H680.571L676.911 196.14H676.871L673.211 202H671.291L675.851 194.9L671.411 188.04H673.431L676.931 193.6H676.971L680.551 188.04H682.471L677.991 194.84L682.591 202ZM689.503 187.2H691.103V193.36H691.183C691.449 192.707 691.836 192.227 692.343 191.92C692.863 191.6 693.483 191.44 694.203 191.44C694.843 191.44 695.423 191.567 695.943 191.82C696.463 192.073 696.903 192.433 697.263 192.9C697.636 193.367 697.916 193.933 698.103 194.6C698.303 195.267 698.403 196.013 698.403 196.84C698.403 197.667 698.303 198.413 698.103 199.08C697.916 199.747 697.636 200.313 697.263 200.78C696.903 201.247 696.463 201.607 695.943 201.86C695.423 202.113 694.843 202.24 694.203 202.24C692.803 202.24 691.796 201.6 691.183 200.32H691.103V202H689.503V187.2ZM693.763 200.8C694.669 200.8 695.383 200.52 695.903 199.96C696.423 199.387 696.683 198.64 696.683 197.72V195.96C696.683 195.04 696.423 194.3 695.903 193.74C695.383 193.167 694.669 192.88 693.763 192.88C693.403 192.88 693.056 192.933 692.723 193.04C692.403 193.133 692.123 193.267 691.883 193.44C691.643 193.613 691.449 193.827 691.303 194.08C691.169 194.32 691.103 194.58 691.103 194.86V198.7C691.103 199.033 691.169 199.333 691.303 199.6C691.449 199.853 691.643 200.073 691.883 200.26C692.123 200.433 692.403 200.567 692.723 200.66C693.056 200.753 693.403 200.8 693.763 200.8ZM702.804 202C702.244 202 701.818 201.847 701.524 201.54C701.244 201.22 701.104 200.82 701.104 200.34V187.2H702.704V200.6H704.224V202H702.804ZM712.914 200.32H712.834C712.727 200.56 712.594 200.8 712.434 201.04C712.287 201.267 712.1 201.473 711.874 201.66C711.647 201.833 711.374 201.973 711.054 202.08C710.734 202.187 710.36 202.24 709.934 202.24C708.867 202.24 708.02 201.9 707.394 201.22C706.767 200.527 706.454 199.553 706.454 198.3V191.68H708.054V198.02C708.054 199.873 708.84 200.8 710.414 200.8C710.734 200.8 711.04 200.76 711.334 200.68C711.64 200.6 711.907 200.48 712.134 200.32C712.374 200.16 712.56 199.96 712.694 199.72C712.84 199.467 712.914 199.167 712.914 198.82V191.68H714.514V202H712.914V200.32ZM721.801 202.24C721.094 202.24 720.454 202.113 719.881 201.86C719.321 201.607 718.834 201.247 718.421 200.78C718.021 200.3 717.707 199.733 717.481 199.08C717.267 198.413 717.161 197.667 717.161 196.84C717.161 196.027 717.267 195.287 717.481 194.62C717.707 193.953 718.021 193.387 718.421 192.92C718.834 192.44 719.321 192.073 719.881 191.82C720.454 191.567 721.094 191.44 721.801 191.44C722.494 191.44 723.114 191.567 723.661 191.82C724.207 192.073 724.674 192.427 725.061 192.88C725.447 193.32 725.741 193.847 725.941 194.46C726.154 195.073 726.261 195.747 726.261 196.48V197.24H718.841V197.72C718.841 198.16 718.907 198.573 719.041 198.96C719.187 199.333 719.387 199.66 719.641 199.94C719.907 200.22 720.227 200.44 720.601 200.6C720.987 200.76 721.421 200.84 721.901 200.84C722.554 200.84 723.121 200.687 723.601 200.38C724.094 200.073 724.474 199.633 724.741 199.06L725.881 199.88C725.547 200.587 725.027 201.16 724.321 201.6C723.614 202.027 722.774 202.24 721.801 202.24ZM721.801 192.78C721.361 192.78 720.961 192.86 720.601 193.02C720.241 193.167 719.927 193.38 719.661 193.66C719.407 193.94 719.207 194.273 719.061 194.66C718.914 195.033 718.841 195.447 718.841 195.9V196.04H724.541V195.82C724.541 194.9 724.287 194.167 723.781 193.62C723.287 193.06 722.627 192.78 721.801 192.78ZM728.897 191.68H730.497V193.36H730.577C730.844 192.707 731.231 192.227 731.737 191.92C732.257 191.6 732.877 191.44 733.597 191.44C734.237 191.44 734.817 191.567 735.337 191.82C735.857 192.073 736.297 192.433 736.657 192.9C737.031 193.367 737.311 193.933 737.497 194.6C737.697 195.267 737.797 196.013 737.797 196.84C737.797 197.667 737.697 198.413 737.497 199.08C737.311 199.747 737.031 200.313 736.657 200.78C736.297 201.247 735.857 201.607 735.337 201.86C734.817 202.113 734.237 202.24 733.597 202.24C732.197 202.24 731.191 201.6 730.577 200.32H730.497V206H728.897V191.68ZM733.157 200.8C734.064 200.8 734.777 200.52 735.297 199.96C735.817 199.387 736.077 198.64 736.077 197.72V195.96C736.077 195.04 735.817 194.3 735.297 193.74C734.777 193.167 734.064 192.88 733.157 192.88C732.797 192.88 732.451 192.933 732.117 193.04C731.797 193.133 731.517 193.267 731.277 193.44C731.037 193.613 730.844 193.827 730.697 194.08C730.564 194.32 730.497 194.58 730.497 194.86V198.7C730.497 199.033 730.564 199.333 730.697 199.6C730.844 199.853 731.037 200.073 731.277 200.26C731.517 200.433 731.797 200.567 732.117 200.66C732.451 200.753 732.797 200.8 733.157 200.8ZM740.499 202V191.68H742.099V193.58H742.199C742.385 193.087 742.719 192.647 743.199 192.26C743.679 191.873 744.339 191.68 745.179 191.68H745.799V193.28H744.859C743.992 193.28 743.312 193.447 742.819 193.78C742.339 194.1 742.099 194.507 742.099 195V202H740.499ZM748.643 189.26C748.296 189.26 748.043 189.18 747.883 189.02C747.736 188.847 747.663 188.627 747.663 188.36V188.1C747.663 187.833 747.736 187.62 747.883 187.46C748.043 187.287 748.296 187.2 748.643 187.2C748.989 187.2 749.236 187.287 749.383 187.46C749.543 187.62 749.623 187.833 749.623 188.1V188.36C749.623 188.627 749.543 188.847 749.383 189.02C749.236 189.18 748.989 189.26 748.643 189.26ZM747.843 191.68H749.443V202H747.843V191.68ZM752.843 202V191.68H754.443V193.36H754.523C754.776 192.773 755.129 192.307 755.583 191.96C756.049 191.613 756.669 191.44 757.443 191.44C758.509 191.44 759.349 191.787 759.963 192.48C760.589 193.16 760.903 194.127 760.903 195.38V202H759.303V195.66C759.303 193.807 758.523 192.88 756.963 192.88C756.643 192.88 756.329 192.92 756.023 193C755.729 193.08 755.463 193.2 755.223 193.36C754.983 193.52 754.789 193.727 754.643 193.98C754.509 194.22 754.443 194.507 754.443 194.84V202H752.843ZM766.49 202C765.93 202 765.503 201.847 765.21 201.54C764.93 201.22 764.79 200.807 764.79 200.3V193.08H763.09V191.68H764.05C764.396 191.68 764.63 191.613 764.75 191.48C764.883 191.333 764.95 191.087 764.95 190.74V188.82H766.39V191.68H768.65V193.08H766.39V200.6H768.49V202H766.49ZM783.448 202C782.848 202 782.415 201.84 782.148 201.52C781.895 201.2 781.735 200.8 781.668 200.32H781.568C781.341 200.96 780.968 201.44 780.448 201.76C779.928 202.08 779.308 202.24 778.588 202.24C777.495 202.24 776.641 201.96 776.028 201.4C775.428 200.84 775.128 200.08 775.128 199.12C775.128 198.147 775.481 197.4 776.188 196.88C776.908 196.36 778.021 196.1 779.528 196.1H781.568V195.08C781.568 194.347 781.368 193.787 780.968 193.4C780.568 193.013 779.955 192.82 779.128 192.82C778.501 192.82 777.975 192.96 777.548 193.24C777.135 193.52 776.788 193.893 776.508 194.36L775.548 193.46C775.828 192.9 776.275 192.427 776.888 192.04C777.501 191.64 778.275 191.44 779.208 191.44C780.461 191.44 781.435 191.747 782.128 192.36C782.821 192.973 783.168 193.827 783.168 194.92V200.6H784.348V202H783.448ZM778.848 200.88C779.248 200.88 779.615 200.833 779.948 200.74C780.281 200.647 780.568 200.513 780.808 200.34C781.048 200.167 781.235 199.967 781.368 199.74C781.501 199.513 781.568 199.267 781.568 199V197.3H779.448C778.528 197.3 777.855 197.433 777.428 197.7C777.015 197.967 776.808 198.353 776.808 198.86V199.28C776.808 199.787 776.988 200.18 777.348 200.46C777.721 200.74 778.221 200.88 778.848 200.88ZM786.632 202V191.68H788.232V193.36H788.312C788.565 192.773 788.918 192.307 789.372 191.96C789.838 191.613 790.458 191.44 791.232 191.44C792.298 191.44 793.138 191.787 793.752 192.48C794.378 193.16 794.692 194.127 794.692 195.38V202H793.092V195.66C793.092 193.807 792.312 192.88 790.752 192.88C790.432 192.88 790.118 192.92 789.812 193C789.518 193.08 789.252 193.2 789.012 193.36C788.772 193.52 788.578 193.727 788.432 193.98C788.298 194.22 788.232 194.507 788.232 194.84V202H786.632ZM804.599 200.32H804.519C803.892 201.6 802.885 202.24 801.499 202.24C800.859 202.24 800.279 202.113 799.759 201.86C799.239 201.607 798.792 201.247 798.419 200.78C798.059 200.313 797.779 199.747 797.579 199.08C797.392 198.413 797.299 197.667 797.299 196.84C797.299 196.013 797.392 195.267 797.579 194.6C797.779 193.933 798.059 193.367 798.419 192.9C798.792 192.433 799.239 192.073 799.759 191.82C800.279 191.567 800.859 191.44 801.499 191.44C802.219 191.44 802.832 191.6 803.339 191.92C803.859 192.227 804.252 192.707 804.519 193.36H804.599V187.2H806.199V202H804.599V200.32ZM801.939 200.8C802.299 200.8 802.639 200.753 802.959 200.66C803.292 200.567 803.579 200.433 803.819 200.26C804.059 200.073 804.245 199.853 804.379 199.6C804.525 199.333 804.599 199.033 804.599 198.7V194.86C804.599 194.58 804.525 194.32 804.379 194.08C804.245 193.827 804.059 193.613 803.819 193.44C803.579 193.267 803.292 193.133 802.959 193.04C802.639 192.933 802.299 192.88 801.939 192.88C801.032 192.88 800.319 193.167 799.799 193.74C799.279 194.3 799.019 195.04 799.019 195.96V197.72C799.019 198.64 799.279 199.387 799.799 199.96C800.319 200.52 801.032 200.8 801.939 200.8ZM816.607 202C816.047 202 815.62 201.847 815.327 201.54C815.047 201.22 814.907 200.807 814.907 200.3V193.08H813.207V191.68H814.167C814.514 191.68 814.747 191.613 814.867 191.48C815 191.333 815.067 191.087 815.067 190.74V188.82H816.507V191.68H818.767V193.08H816.507V200.6H818.607V202H816.607ZM821.339 187.2H822.939V193.36H823.019C823.272 192.773 823.625 192.307 824.079 191.96C824.545 191.613 825.165 191.44 825.939 191.44C827.005 191.44 827.845 191.787 828.459 192.48C829.085 193.16 829.399 194.127 829.399 195.38V202H827.799V195.66C827.799 193.807 827.019 192.88 825.459 192.88C825.139 192.88 824.825 192.92 824.519 193C824.225 193.08 823.959 193.2 823.719 193.36C823.479 193.52 823.285 193.727 823.139 193.98C823.005 194.22 822.939 194.507 822.939 194.84V202H821.339V187.2ZM836.586 202.24C835.879 202.24 835.239 202.113 834.666 201.86C834.106 201.607 833.619 201.247 833.206 200.78C832.806 200.3 832.493 199.733 832.266 199.08C832.053 198.413 831.946 197.667 831.946 196.84C831.946 196.027 832.053 195.287 832.266 194.62C832.493 193.953 832.806 193.387 833.206 192.92C833.619 192.44 834.106 192.073 834.666 191.82C835.239 191.567 835.879 191.44 836.586 191.44C837.279 191.44 837.899 191.567 838.446 191.82C838.993 192.073 839.459 192.427 839.846 192.88C840.233 193.32 840.526 193.847 840.726 194.46C840.939 195.073 841.046 195.747 841.046 196.48V197.24H833.626V197.72C833.626 198.16 833.693 198.573 833.826 198.96C833.973 199.333 834.173 199.66 834.426 199.94C834.693 200.22 835.013 200.44 835.386 200.6C835.773 200.76 836.206 200.84 836.686 200.84C837.339 200.84 837.906 200.687 838.386 200.38C838.879 200.073 839.259 199.633 839.526 199.06L840.666 199.88C840.333 200.587 839.813 201.16 839.106 201.6C838.399 202.027 837.559 202.24 836.586 202.24ZM836.586 192.78C836.146 192.78 835.746 192.86 835.386 193.02C835.026 193.167 834.713 193.38 834.446 193.66C834.193 193.94 833.993 194.273 833.846 194.66C833.699 195.033 833.626 195.447 833.626 195.9V196.04H839.326V195.82C839.326 194.9 839.073 194.167 838.566 193.62C838.073 193.06 837.413 192.78 836.586 192.78ZM848.569 202V188.04H850.249V200.52H856.189V202H848.569ZM859.229 189.26C858.882 189.26 858.629 189.18 858.469 189.02C858.322 188.847 858.249 188.627 858.249 188.36V188.1C858.249 187.833 858.322 187.62 858.469 187.46C858.629 187.287 858.882 187.2 859.229 187.2C859.575 187.2 859.822 187.287 859.969 187.46C860.129 187.62 860.209 187.833 860.209 188.1V188.36C860.209 188.627 860.129 188.847 859.969 189.02C859.822 189.18 859.575 189.26 859.229 189.26ZM858.429 191.68H860.029V202H858.429V191.68ZM870.029 200.32H869.949C869.322 201.6 868.315 202.24 866.929 202.24C866.289 202.24 865.709 202.113 865.189 201.86C864.669 201.607 864.222 201.247 863.849 200.78C863.489 200.313 863.209 199.747 863.009 199.08C862.822 198.413 862.729 197.667 862.729 196.84C862.729 196.013 862.822 195.267 863.009 194.6C863.209 193.933 863.489 193.367 863.849 192.9C864.222 192.433 864.669 192.073 865.189 191.82C865.709 191.567 866.289 191.44 866.929 191.44C867.649 191.44 868.262 191.6 868.769 191.92C869.289 192.227 869.682 192.707 869.949 193.36H870.029V191.68H871.629V206H870.029V200.32ZM867.369 200.8C867.729 200.8 868.069 200.753 868.389 200.66C868.722 200.567 869.009 200.433 869.249 200.26C869.489 200.073 869.675 199.853 869.809 199.6C869.955 199.333 870.029 199.033 870.029 198.7V194.86C870.029 194.58 869.955 194.32 869.809 194.08C869.675 193.827 869.489 193.613 869.249 193.44C869.009 193.267 868.722 193.133 868.389 193.04C868.069 192.933 867.729 192.88 867.369 192.88C866.462 192.88 865.749 193.167 865.229 193.74C864.709 194.3 864.449 195.04 864.449 195.96V197.72C864.449 198.64 864.709 199.387 865.229 199.96C865.749 200.52 866.462 200.8 867.369 200.8ZM881.39 200.32H881.31C881.203 200.56 881.07 200.8 880.91 201.04C880.763 201.267 880.577 201.473 880.35 201.66C880.123 201.833 879.85 201.973 879.53 202.08C879.21 202.187 878.837 202.24 878.41 202.24C877.343 202.24 876.497 201.9 875.87 201.22C875.243 200.527 874.93 199.553 874.93 198.3V191.68H876.53V198.02C876.53 199.873 877.317 200.8 878.89 200.8C879.21 200.8 879.517 200.76 879.81 200.68C880.117 200.6 880.383 200.48 880.61 200.32C880.85 200.16 881.037 199.96 881.17 199.72C881.317 199.467 881.39 199.167 881.39 198.82V191.68H882.99V202H881.39V200.32ZM887.197 189.26C886.851 189.26 886.597 189.18 886.437 189.02C886.291 188.847 886.217 188.627 886.217 188.36V188.1C886.217 187.833 886.291 187.62 886.437 187.46C886.597 187.287 886.851 187.2 887.197 187.2C887.544 187.2 887.791 187.287 887.937 187.46C888.097 187.62 888.177 187.833 888.177 188.1V188.36C888.177 188.627 888.097 188.847 887.937 189.02C887.791 189.18 887.544 189.26 887.197 189.26ZM886.397 191.68H887.997V202H886.397V191.68ZM897.997 200.32H897.917C897.291 201.6 896.284 202.24 894.897 202.24C894.257 202.24 893.677 202.113 893.157 201.86C892.637 201.607 892.191 201.247 891.817 200.78C891.457 200.313 891.177 199.747 890.977 199.08C890.791 198.413 890.697 197.667 890.697 196.84C890.697 196.013 890.791 195.267 890.977 194.6C891.177 193.933 891.457 193.367 891.817 192.9C892.191 192.433 892.637 192.073 893.157 191.82C893.677 191.567 894.257 191.44 894.897 191.44C895.617 191.44 896.231 191.6 896.737 191.92C897.257 192.227 897.651 192.707 897.917 193.36H897.997V187.2H899.597V202H897.997V200.32ZM895.337 200.8C895.697 200.8 896.037 200.753 896.357 200.66C896.691 200.567 896.977 200.433 897.217 200.26C897.457 200.073 897.644 199.853 897.777 199.6C897.924 199.333 897.997 199.033 897.997 198.7V194.86C897.997 194.58 897.924 194.32 897.777 194.08C897.644 193.827 897.457 193.613 897.217 193.44C896.977 193.267 896.691 193.133 896.357 193.04C896.037 192.933 895.697 192.88 895.337 192.88C894.431 192.88 893.717 193.167 893.197 193.74C892.677 194.3 892.417 195.04 892.417 195.96V197.72C892.417 198.64 892.677 199.387 893.197 199.96C893.717 200.52 894.431 200.8 895.337 200.8ZM903.799 189.26C903.452 189.26 903.199 189.18 903.039 189.02C902.892 188.847 902.819 188.627 902.819 188.36V188.1C902.819 187.833 902.892 187.62 903.039 187.46C903.199 187.287 903.452 187.2 903.799 187.2C904.145 187.2 904.392 187.287 904.539 187.46C904.699 187.62 904.779 187.833 904.779 188.1V188.36C904.779 188.627 904.699 188.847 904.539 189.02C904.392 189.18 904.145 189.26 903.799 189.26ZM902.999 191.68H904.599V202H902.999V191.68ZM910.279 202C909.719 202 909.292 201.847 908.999 201.54C908.719 201.22 908.579 200.807 908.579 200.3V193.08H906.879V191.68H907.839C908.185 191.68 908.419 191.613 908.539 191.48C908.672 191.333 908.739 191.087 908.739 190.74V188.82H910.179V191.68H912.439V193.08H910.179V200.6H912.279V202H910.279ZM921.371 191.68H922.951L918.331 204.4C918.211 204.707 918.091 204.96 917.971 205.16C917.851 205.373 917.704 205.54 917.531 205.66C917.357 205.78 917.137 205.867 916.871 205.92C916.617 205.973 916.304 206 915.931 206H915.111V204.6H916.731L917.511 202.4L913.651 191.68H915.251L917.731 198.7L918.211 200.38H918.311L918.871 198.7L921.371 191.68ZM925.151 202V188.04H930.711C931.964 188.04 932.924 188.4 933.591 189.12C934.271 189.827 934.611 190.8 934.611 192.04C934.611 193.28 934.271 194.26 933.591 194.98C932.924 195.687 931.964 196.04 930.711 196.04H926.831V202H925.151ZM926.831 194.56H930.711C931.378 194.56 931.891 194.387 932.251 194.04C932.624 193.693 932.811 193.2 932.811 192.56V191.52C932.811 190.88 932.624 190.387 932.251 190.04C931.891 189.693 931.378 189.52 930.711 189.52H926.831V194.56ZM940.629 202.24C939.936 202.24 939.303 202.113 938.729 201.86C938.156 201.607 937.663 201.247 937.249 200.78C936.849 200.3 936.536 199.733 936.309 199.08C936.083 198.413 935.969 197.667 935.969 196.84C935.969 196.027 936.083 195.287 936.309 194.62C936.536 193.953 936.849 193.387 937.249 192.92C937.663 192.44 938.156 192.073 938.729 191.82C939.303 191.567 939.936 191.44 940.629 191.44C941.323 191.44 941.949 191.567 942.509 191.82C943.083 192.073 943.576 192.44 943.989 192.92C944.403 193.387 944.723 193.953 944.949 194.62C945.176 195.287 945.289 196.027 945.289 196.84C945.289 197.667 945.176 198.413 944.949 199.08C944.723 199.733 944.403 200.3 943.989 200.78C943.576 201.247 943.083 201.607 942.509 201.86C941.949 202.113 941.323 202.24 940.629 202.24ZM940.629 200.82C941.496 200.82 942.203 200.553 942.749 200.02C943.296 199.487 943.569 198.673 943.569 197.58V196.1C943.569 195.007 943.296 194.193 942.749 193.66C942.203 193.127 941.496 192.86 940.629 192.86C939.763 192.86 939.056 193.127 938.509 193.66C937.963 194.193 937.689 195.007 937.689 196.1V197.58C937.689 198.673 937.963 199.487 938.509 200.02C939.056 200.553 939.763 200.82 940.629 200.82ZM951.821 202.24C951.127 202.24 950.494 202.113 949.921 201.86C949.347 201.607 948.854 201.247 948.441 200.78C948.041 200.3 947.727 199.733 947.501 199.08C947.274 198.413 947.161 197.667 947.161 196.84C947.161 196.027 947.274 195.287 947.501 194.62C947.727 193.953 948.041 193.387 948.441 192.92C948.854 192.44 949.347 192.073 949.921 191.82C950.494 191.567 951.127 191.44 951.821 191.44C952.514 191.44 953.141 191.567 953.701 191.82C954.274 192.073 954.767 192.44 955.181 192.92C955.594 193.387 955.914 193.953 956.141 194.62C956.367 195.287 956.481 196.027 956.481 196.84C956.481 197.667 956.367 198.413 956.141 199.08C955.914 199.733 955.594 200.3 955.181 200.78C954.767 201.247 954.274 201.607 953.701 201.86C953.141 202.113 952.514 202.24 951.821 202.24ZM951.821 200.82C952.687 200.82 953.394 200.553 953.941 200.02C954.487 199.487 954.761 198.673 954.761 197.58V196.1C954.761 195.007 954.487 194.193 953.941 193.66C953.394 193.127 952.687 192.86 951.821 192.86C950.954 192.86 950.247 193.127 949.701 193.66C949.154 194.193 948.881 195.007 948.881 196.1V197.58C948.881 198.673 949.154 199.487 949.701 200.02C950.247 200.553 950.954 200.82 951.821 200.82ZM960.812 202C960.252 202 959.825 201.847 959.532 201.54C959.252 201.22 959.112 200.82 959.112 200.34V187.2H960.712V200.6H962.232V202H960.812ZM498.116 213.2H499.716V219.36H499.796C500.063 218.707 500.449 218.227 500.956 217.92C501.476 217.6 502.096 217.44 502.816 217.44C503.456 217.44 504.036 217.567 504.556 217.82C505.076 218.073 505.516 218.433 505.876 218.9C506.249 219.367 506.529 219.933 506.716 220.6C506.916 221.267 507.016 222.013 507.016 222.84C507.016 223.667 506.916 224.413 506.716 225.08C506.529 225.747 506.249 226.313 505.876 226.78C505.516 227.247 505.076 227.607 504.556 227.86C504.036 228.113 503.456 228.24 502.816 228.24C501.416 228.24 500.409 227.6 499.796 226.32H499.716V228H498.116V213.2ZM502.376 226.8C503.283 226.8 503.996 226.52 504.516 225.96C505.036 225.387 505.296 224.64 505.296 223.72V221.96C505.296 221.04 505.036 220.3 504.516 219.74C503.996 219.167 503.283 218.88 502.376 218.88C502.016 218.88 501.669 218.933 501.336 219.04C501.016 219.133 500.736 219.267 500.496 219.44C500.256 219.613 500.063 219.827 499.916 220.08C499.783 220.32 499.716 220.58 499.716 220.86V224.7C499.716 225.033 499.783 225.333 499.916 225.6C500.063 225.853 500.256 226.073 500.496 226.26C500.736 226.433 501.016 226.567 501.336 226.66C501.669 226.753 502.016 226.8 502.376 226.8ZM511.418 228C510.858 228 510.431 227.847 510.138 227.54C509.858 227.22 509.718 226.82 509.718 226.34V213.2H511.318V226.6H512.838V228H511.418ZM521.527 226.32H521.447C521.34 226.56 521.207 226.8 521.047 227.04C520.9 227.267 520.713 227.473 520.487 227.66C520.26 227.833 519.987 227.973 519.667 228.08C519.347 228.187 518.973 228.24 518.547 228.24C517.48 228.24 516.633 227.9 516.007 227.22C515.38 226.527 515.067 225.553 515.067 224.3V217.68H516.667V224.02C516.667 225.873 517.453 226.8 519.027 226.8C519.347 226.8 519.653 226.76 519.947 226.68C520.253 226.6 520.52 226.48 520.747 226.32C520.987 226.16 521.173 225.96 521.307 225.72C521.453 225.467 521.527 225.167 521.527 224.82V217.68H523.127V228H521.527V226.32ZM530.414 228.24C529.707 228.24 529.067 228.113 528.494 227.86C527.934 227.607 527.447 227.247 527.034 226.78C526.634 226.3 526.321 225.733 526.094 225.08C525.881 224.413 525.774 223.667 525.774 222.84C525.774 222.027 525.881 221.287 526.094 220.62C526.321 219.953 526.634 219.387 527.034 218.92C527.447 218.44 527.934 218.073 528.494 217.82C529.067 217.567 529.707 217.44 530.414 217.44C531.107 217.44 531.727 217.567 532.274 217.82C532.821 218.073 533.287 218.427 533.674 218.88C534.061 219.32 534.354 219.847 534.554 220.46C534.767 221.073 534.874 221.747 534.874 222.48V223.24H527.454V223.72C527.454 224.16 527.521 224.573 527.654 224.96C527.801 225.333 528.001 225.66 528.254 225.94C528.521 226.22 528.841 226.44 529.214 226.6C529.601 226.76 530.034 226.84 530.514 226.84C531.167 226.84 531.734 226.687 532.214 226.38C532.707 226.073 533.087 225.633 533.354 225.06L534.494 225.88C534.161 226.587 533.641 227.16 532.934 227.6C532.227 228.027 531.387 228.24 530.414 228.24ZM530.414 218.78C529.974 218.78 529.574 218.86 529.214 219.02C528.854 219.167 528.541 219.38 528.274 219.66C528.021 219.94 527.821 220.273 527.674 220.66C527.527 221.033 527.454 221.447 527.454 221.9V222.04H533.154V221.82C533.154 220.9 532.901 220.167 532.394 219.62C531.901 219.06 531.241 218.78 530.414 218.78ZM537.511 217.68H539.111V219.36H539.191C539.457 218.707 539.844 218.227 540.351 217.92C540.871 217.6 541.491 217.44 542.211 217.44C542.851 217.44 543.431 217.567 543.951 217.82C544.471 218.073 544.911 218.433 545.271 218.9C545.644 219.367 545.924 219.933 546.111 220.6C546.311 221.267 546.411 222.013 546.411 222.84C546.411 223.667 546.311 224.413 546.111 225.08C545.924 225.747 545.644 226.313 545.271 226.78C544.911 227.247 544.471 227.607 543.951 227.86C543.431 228.113 542.851 228.24 542.211 228.24C540.811 228.24 539.804 227.6 539.191 226.32H539.111V232H537.511V217.68ZM541.771 226.8C542.677 226.8 543.391 226.52 543.911 225.96C544.431 225.387 544.691 224.64 544.691 223.72V221.96C544.691 221.04 544.431 220.3 543.911 219.74C543.391 219.167 542.677 218.88 541.771 218.88C541.411 218.88 541.064 218.933 540.731 219.04C540.411 219.133 540.131 219.267 539.891 219.44C539.651 219.613 539.457 219.827 539.311 220.08C539.177 220.32 539.111 220.58 539.111 220.86V224.7C539.111 225.033 539.177 225.333 539.311 225.6C539.457 225.853 539.651 226.073 539.891 226.26C540.131 226.433 540.411 226.567 540.731 226.66C541.064 226.753 541.411 226.8 541.771 226.8ZM549.112 228V217.68H550.712V219.58H550.812C550.999 219.087 551.332 218.647 551.812 218.26C552.292 217.873 552.952 217.68 553.792 217.68H554.412V219.28H553.472C552.605 219.28 551.925 219.447 551.432 219.78C550.952 220.1 550.712 220.507 550.712 221V228H549.112ZM557.256 215.26C556.909 215.26 556.656 215.18 556.496 215.02C556.349 214.847 556.276 214.627 556.276 214.36V214.1C556.276 213.833 556.349 213.62 556.496 213.46C556.656 213.287 556.909 213.2 557.256 213.2C557.603 213.2 557.849 213.287 557.996 213.46C558.156 213.62 558.236 213.833 558.236 214.1V214.36C558.236 214.627 558.156 214.847 557.996 215.02C557.849 215.18 557.603 215.26 557.256 215.26ZM556.456 217.68H558.056V228H556.456V217.68ZM561.456 228V217.68H563.056V219.36H563.136C563.389 218.773 563.743 218.307 564.196 217.96C564.663 217.613 565.283 217.44 566.056 217.44C567.123 217.44 567.963 217.787 568.576 218.48C569.203 219.16 569.516 220.127 569.516 221.38V228H567.916V221.66C567.916 219.807 567.136 218.88 565.576 218.88C565.256 218.88 564.943 218.92 564.636 219C564.343 219.08 564.076 219.2 563.836 219.36C563.596 219.52 563.403 219.727 563.256 219.98C563.123 220.22 563.056 220.507 563.056 220.84V228H561.456ZM575.103 228C574.543 228 574.116 227.847 573.823 227.54C573.543 227.22 573.403 226.807 573.403 226.3V219.08H571.703V217.68H572.663C573.01 217.68 573.243 217.613 573.363 217.48C573.496 217.333 573.563 217.087 573.563 216.74V214.82H575.003V217.68H577.263V219.08H575.003V226.6H577.103V228H575.103ZM580.855 228.24C580.428 228.24 580.115 228.133 579.915 227.92C579.728 227.707 579.635 227.427 579.635 227.08V226.82C579.635 226.473 579.728 226.193 579.915 225.98C580.115 225.767 580.428 225.66 580.855 225.66C581.281 225.66 581.588 225.767 581.775 225.98C581.975 226.193 582.075 226.473 582.075 226.82V227.08C582.075 227.427 581.975 227.707 581.775 227.92C581.588 228.133 581.281 228.24 580.855 228.24Z" fill="white"/>
<path d="M497.542 156.436H493.218V133.351H503.538C504.586 133.351 505.526 133.516 506.355 133.847C507.185 134.177 507.885 134.663 508.452 135.302C509.042 135.919 509.49 136.669 509.795 137.551C510.123 138.433 510.287 139.414 510.287 140.494C510.287 142.082 509.927 143.449 509.206 144.596C508.507 145.742 507.447 146.558 506.028 147.043L510.713 156.436H505.897L501.638 147.539H497.542V156.436ZM503.112 143.868C503.942 143.868 504.597 143.647 505.078 143.206C505.558 142.743 505.798 142.093 505.798 141.255V139.734C505.798 138.896 505.558 138.256 505.078 137.815C504.597 137.375 503.942 137.154 503.112 137.154H497.542V143.868H503.112ZM526.973 156.436C526.055 156.436 525.324 156.171 524.778 155.642C524.254 155.091 523.926 154.363 523.795 153.459H523.598C523.314 154.584 522.736 155.433 521.862 156.006C520.988 156.557 519.907 156.833 518.618 156.833C516.871 156.833 515.528 156.37 514.589 155.444C513.649 154.518 513.18 153.283 513.18 151.739C513.18 149.953 513.813 148.631 515.08 147.771C516.347 146.889 518.149 146.448 520.486 146.448H523.402V145.191C523.402 144.221 523.15 143.471 522.648 142.942C522.146 142.413 521.338 142.148 520.224 142.148C519.241 142.148 518.444 142.369 517.832 142.81C517.242 143.229 516.74 143.736 516.325 144.331L513.835 142.082C514.468 141.09 515.309 140.296 516.358 139.701C517.406 139.083 518.793 138.775 520.519 138.775C522.834 138.775 524.592 139.304 525.793 140.362C526.995 141.421 527.595 142.942 527.595 144.926V153.062H529.299V156.436H526.973ZM520.027 153.757C520.967 153.757 521.764 153.547 522.419 153.129C523.074 152.71 523.402 152.092 523.402 151.276V148.994H520.715C518.531 148.994 517.439 149.7 517.439 151.111V151.673C517.439 152.379 517.658 152.908 518.094 153.261C518.553 153.592 519.197 153.757 520.027 153.757ZM531.906 146.117C531.906 144.529 532.049 142.997 532.332 141.52C532.638 140.042 533.042 138.675 533.544 137.419C534.069 136.14 534.68 134.982 535.379 133.946C536.078 132.91 536.843 132.028 537.673 131.3H541.637C540.741 132.138 539.933 133.064 539.212 134.078C538.514 135.092 537.913 136.184 537.41 137.352C536.908 138.499 536.515 139.712 536.231 140.991C535.969 142.269 535.838 143.581 535.838 144.926V147.374C535.838 148.741 535.969 150.075 536.231 151.376C536.515 152.654 536.908 153.878 537.41 155.047C537.935 156.193 538.546 157.274 539.245 158.288C539.966 159.302 540.763 160.206 541.637 161H537.673C536.865 160.316 536.111 159.457 535.412 158.42C534.713 157.384 534.101 156.226 533.577 154.948C533.053 153.647 532.638 152.258 532.332 150.78C532.049 149.281 531.906 147.727 531.906 146.117ZM614.41 146.117C614.41 147.727 614.257 149.281 613.952 150.78C613.668 152.258 613.264 153.647 612.74 154.948C612.215 156.226 611.604 157.384 610.905 158.42C610.206 159.457 609.453 160.316 608.644 161H604.68C605.554 160.206 606.34 159.302 607.039 158.288C607.76 157.274 608.371 156.193 608.874 155.047C609.398 153.878 609.791 152.654 610.053 151.376C610.337 150.075 610.479 148.741 610.479 147.374V144.926C610.479 143.581 610.337 142.269 610.053 140.991C609.791 139.712 609.409 138.499 608.906 137.352C608.404 136.184 607.792 135.092 607.072 134.078C606.373 133.064 605.575 132.138 604.68 131.3H608.644C609.474 132.028 610.239 132.91 610.938 133.946C611.636 134.982 612.237 136.14 612.74 137.419C613.264 138.675 613.668 140.042 613.952 141.52C614.257 142.997 614.41 144.529 614.41 146.117Z" fill="white"/>
<path d="M543.993 133.351H552.314C553.8 133.351 555.143 133.593 556.344 134.078C557.568 134.563 558.605 135.291 559.457 136.261C560.33 137.209 560.996 138.411 561.455 139.866C561.936 141.299 562.176 142.975 562.176 144.893C562.176 146.811 561.936 148.498 561.455 149.953C560.996 151.387 560.33 152.588 559.457 153.558C558.605 154.507 557.568 155.223 556.344 155.708C555.143 156.193 553.8 156.436 552.314 156.436H543.993V133.351ZM552.314 152.566C553.931 152.566 555.209 152.092 556.148 151.144C557.109 150.174 557.589 148.697 557.589 146.712V143.074C557.589 141.09 557.109 139.624 556.148 138.675C555.209 137.705 553.931 137.22 552.314 137.22H548.317V152.566H552.314ZM566.581 156.436V133.351H581.652V137.22H570.906V142.81H580.407V146.679H570.906V152.566H581.652V156.436H566.581ZM604.409 156.436H599.363L594.121 147.572H594.023L588.847 156.436H584.129L591.533 144.596L584.457 133.351H589.502L594.351 141.553H594.449L599.363 133.351H604.081L596.939 144.596L604.409 156.436Z" fill="#00C389"/>
<path d="M478.75 145.616C478.197 145.616 477.673 145.364 477.345 144.93L470.478 135.853H466V132.547H471.364C471.921 132.547 472.443 132.802 472.769 133.232L478.379 140.649L486.942 121.99C487.218 121.389 487.84 121 488.529 121H499.23V124.306H489.662L480.337 144.626C480.087 145.169 479.552 145.544 478.934 145.607C478.872 145.613 478.81 145.616 478.75 145.616Z" fill="#00C389"/>
<path d="M613.431 121H497.827V124.307H613.431V121Z" fill="#00C389"/>
<circle cx="338" cy="434" r="150" fill="url(#paint1_radial_13_398)"/>
<path d="M306.199 428H304.183V411.248H310.279C311.831 411.248 313.015 411.672 313.831 412.52C314.647 413.368 315.055 414.552 315.055 416.072C315.055 417.432 314.703 418.52 313.999 419.336C313.295 420.152 312.271 420.624 310.927 420.752L315.199 428H312.943L308.863 420.848H306.199V428ZM310.231 419.144C311.079 419.144 311.735 418.936 312.199 418.52C312.679 418.088 312.919 417.48 312.919 416.696V415.448C312.919 414.664 312.679 414.064 312.199 413.648C311.735 413.216 311.079 413 310.231 413H306.199V419.144H310.231ZM328.294 428C327.542 428 327.006 427.808 326.686 427.424C326.366 427.04 326.166 426.56 326.086 425.984H325.966C325.694 426.704 325.254 427.272 324.646 427.688C324.054 428.088 323.254 428.288 322.246 428.288C320.95 428.288 319.918 427.952 319.15 427.28C318.382 426.608 317.998 425.688 317.998 424.52C317.998 423.368 318.414 422.48 319.246 421.856C320.094 421.232 321.454 420.92 323.326 420.92H325.966V419.696C325.966 418.784 325.71 418.104 325.198 417.656C324.686 417.192 323.958 416.96 323.014 416.96C322.182 416.96 321.502 417.128 320.974 417.464C320.446 417.784 320.022 418.224 319.702 418.784L318.406 417.824C318.566 417.504 318.782 417.192 319.054 416.888C319.326 416.584 319.662 416.32 320.062 416.096C320.462 415.856 320.918 415.672 321.43 415.544C321.942 415.4 322.51 415.328 323.134 415.328C324.59 415.328 325.742 415.696 326.59 416.432C327.454 417.168 327.886 418.192 327.886 419.504V426.32H329.614V428H328.294ZM322.582 426.68C323.078 426.68 323.526 426.624 323.926 426.512C324.342 426.384 324.702 426.224 325.006 426.032C325.31 425.824 325.542 425.584 325.702 425.312C325.878 425.024 325.966 424.72 325.966 424.4V422.36H323.326C322.174 422.36 321.334 422.52 320.806 422.84C320.278 423.16 320.014 423.624 320.014 424.232V424.736C320.014 425.376 320.238 425.864 320.686 426.2C321.15 426.52 321.782 426.68 322.582 426.68ZM333.085 411.248H337.765C339.813 411.248 341.341 411.952 342.349 413.36C343.357 414.768 343.861 416.856 343.861 419.624C343.861 422.392 343.357 424.48 342.349 425.888C341.341 427.296 339.813 428 337.765 428H333.085V411.248ZM337.669 426.248C339.013 426.248 340.021 425.784 340.693 424.856C341.381 423.928 341.725 422.616 341.725 420.92V418.328C341.725 416.632 341.381 415.32 340.693 414.392C340.021 413.464 339.013 413 337.669 413H335.101V426.248H337.669ZM347.355 428V411.248H357.675V413H349.371V418.64H357.387V420.392H349.371V426.248H357.675V428H347.355ZM373.386 428H371.106L369.114 424.664L366.906 421.016H366.81L364.53 424.664L362.418 428H360.21L365.682 419.456L360.522 411.248H362.802L364.746 414.488L366.834 417.872H366.93L368.994 414.488L371.01 411.248H373.218L368.034 419.432L373.386 428ZM275.354 442.248H281.042C282.482 442.248 283.61 442.64 284.426 443.424C285.242 444.208 285.65 445.256 285.65 446.568C285.65 447.576 285.402 448.368 284.906 448.944C284.426 449.52 283.802 449.928 283.034 450.168V450.24C283.978 450.464 284.754 450.888 285.362 451.512C285.97 452.12 286.274 453.008 286.274 454.176C286.274 454.848 286.162 455.48 285.938 456.072C285.714 456.664 285.394 457.176 284.978 457.608C284.578 458.04 284.098 458.384 283.538 458.64C282.994 458.88 282.402 459 281.762 459H275.354V442.248ZM281.162 457.248C282.09 457.248 282.818 457.04 283.346 456.624C283.874 456.208 284.138 455.568 284.138 454.704V453.72C284.138 452.872 283.874 452.24 283.346 451.824C282.818 451.392 282.09 451.176 281.162 451.176H277.37V457.248H281.162ZM280.826 449.52C281.674 449.52 282.338 449.336 282.818 448.968C283.298 448.584 283.538 448.008 283.538 447.24V446.304C283.538 445.536 283.298 444.96 282.818 444.576C282.338 444.192 281.674 444 280.826 444H277.37V449.52H280.826ZM289.553 457.368H293.873V442.872H289.553V441.24H295.793V457.368H300.113V459H289.553V457.368ZM312.151 456.984H312.055C311.927 457.288 311.767 457.584 311.575 457.872C311.383 458.144 311.143 458.384 310.855 458.592C310.583 458.8 310.255 458.968 309.871 459.096C309.487 459.224 309.039 459.288 308.527 459.288C307.231 459.288 306.191 458.88 305.407 458.064C304.623 457.232 304.231 456.064 304.231 454.56V446.616H306.151V454.224C306.151 455.36 306.399 456.208 306.895 456.768C307.391 457.312 308.119 457.584 309.079 457.584C309.463 457.584 309.839 457.536 310.207 457.44C310.575 457.344 310.903 457.2 311.191 457.008C311.479 456.816 311.711 456.576 311.887 456.288C312.063 455.984 312.151 455.624 312.151 455.208V446.616H314.071V459H312.151V456.984ZM323.83 459.288C322.934 459.288 322.126 459.136 321.406 458.832C320.702 458.528 320.094 458.096 319.582 457.536C319.086 456.96 318.702 456.28 318.43 455.496C318.158 454.696 318.022 453.808 318.022 452.832C318.022 451.84 318.158 450.944 318.43 450.144C318.718 449.344 319.11 448.664 319.606 448.104C320.102 447.528 320.694 447.088 321.382 446.784C322.086 446.48 322.862 446.328 323.71 446.328C324.542 446.328 325.294 446.48 325.966 446.784C326.654 447.088 327.238 447.512 327.718 448.056C328.198 448.584 328.566 449.216 328.822 449.952C329.078 450.688 329.206 451.496 329.206 452.376V453.288H320.038V453.864C320.038 454.408 320.126 454.912 320.302 455.376C320.478 455.84 320.726 456.24 321.046 456.576C321.382 456.912 321.782 457.176 322.246 457.368C322.726 457.544 323.254 457.632 323.83 457.632C324.662 457.632 325.382 457.44 325.99 457.056C326.598 456.672 327.062 456.144 327.382 455.472L328.798 456.432C328.43 457.264 327.814 457.952 326.95 458.496C326.102 459.024 325.062 459.288 323.83 459.288ZM323.71 447.912C323.182 447.912 322.694 448.008 322.246 448.2C321.798 448.392 321.406 448.656 321.07 448.992C320.75 449.328 320.494 449.728 320.302 450.192C320.126 450.64 320.038 451.136 320.038 451.68V451.848H327.142V451.584C327.142 451.04 327.054 450.544 326.878 450.096C326.718 449.648 326.486 449.264 326.182 448.944C325.894 448.608 325.534 448.352 325.102 448.176C324.686 448 324.222 447.912 323.71 447.912ZM333.085 446.616H335.005V448.632H335.101C335.901 447.096 337.173 446.328 338.917 446.328C340.437 446.328 341.621 446.896 342.469 448.032C343.333 449.168 343.765 450.76 343.765 452.808C343.765 454.856 343.333 456.448 342.469 457.584C341.621 458.72 340.437 459.288 338.917 459.288C337.173 459.288 335.901 458.52 335.101 456.984H335.005V463.8H333.085V446.616ZM338.173 457.584C339.293 457.584 340.157 457.248 340.765 456.576C341.389 455.888 341.701 454.984 341.701 453.864V451.752C341.701 450.632 341.389 449.736 340.765 449.064C340.157 448.376 339.293 448.032 338.173 448.032C337.741 448.032 337.333 448.088 336.949 448.2C336.565 448.312 336.229 448.48 335.941 448.704C335.653 448.912 335.421 449.176 335.245 449.496C335.085 449.8 335.005 450.16 335.005 450.576V455.04C335.005 455.456 335.085 455.824 335.245 456.144C335.421 456.448 335.653 456.712 335.941 456.936C336.229 457.144 336.565 457.304 336.949 457.416C337.333 457.528 337.741 457.584 338.173 457.584ZM347.043 457.368H350.667V448.248H347.043V446.616H352.587V449.736H352.707C352.963 448.76 353.443 448 354.147 447.456C354.867 446.896 355.779 446.616 356.883 446.616H358.611V448.536H356.283C355.179 448.536 354.283 448.856 353.595 449.496C352.923 450.136 352.587 450.976 352.587 452.016V457.368H357.387V459H347.043V457.368ZM367.554 443.88C366.994 443.88 366.602 443.768 366.378 443.544C366.154 443.304 366.042 443.008 366.042 442.656V442.272C366.042 441.92 366.154 441.632 366.378 441.408C366.602 441.168 366.994 441.048 367.554 441.048C368.114 441.048 368.506 441.168 368.73 441.408C368.954 441.632 369.066 441.92 369.066 442.272V442.656C369.066 443.008 368.954 443.304 368.73 443.544C368.506 443.768 368.114 443.88 367.554 443.88ZM362.13 457.368H366.594V448.248H362.13V446.616H368.514V457.368H372.69V459H362.13V457.368ZM376.329 459V446.616H378.249V448.632H378.345C378.473 448.328 378.633 448.04 378.825 447.768C379.017 447.48 379.249 447.232 379.521 447.024C379.809 446.816 380.145 446.648 380.529 446.52C380.913 446.392 381.361 446.328 381.873 446.328C383.169 446.328 384.209 446.744 384.993 447.576C385.777 448.392 386.169 449.552 386.169 451.056V459H384.249V451.392C384.249 450.256 384.001 449.416 383.505 448.872C383.009 448.312 382.281 448.032 381.321 448.032C380.937 448.032 380.561 448.08 380.193 448.176C379.825 448.272 379.497 448.416 379.209 448.608C378.921 448.8 378.689 449.048 378.513 449.352C378.337 449.656 378.249 450.008 378.249 450.408V459H376.329ZM396.167 459C395.223 459 394.527 458.736 394.079 458.208C393.647 457.68 393.431 457 393.431 456.168V448.248H389.303V446.616H392.375C392.791 446.616 393.079 446.536 393.239 446.376C393.415 446.2 393.503 445.904 393.503 445.488V442.248H395.351V446.616H400.991V448.248H395.351V457.368H400.991V459H396.167Z" fill="white"/>
<circle cx="743" cy="434" r="150" fill="url(#paint2_radial_13_398)"/>
<path d="M652.341 428V411.248H654.357V426.248H662.301V428H652.341ZM671.82 412.88C671.26 412.88 670.868 412.768 670.644 412.544C670.42 412.304 670.308 412.008 670.308 411.656V411.272C670.308 410.92 670.42 410.632 670.644 410.408C670.868 410.168 671.26 410.048 671.82 410.048C672.38 410.048 672.772 410.168 672.996 410.408C673.22 410.632 673.332 410.92 673.332 411.272V411.656C673.332 412.008 673.22 412.304 672.996 412.544C672.772 412.768 672.38 412.88 671.82 412.88ZM666.396 426.368H670.86V417.248H666.396V415.616H672.78V426.368H676.956V428H666.396V426.368ZM688.442 425.984H688.346C687.546 427.52 686.274 428.288 684.53 428.288C683.01 428.288 681.818 427.72 680.954 426.584C680.106 425.448 679.682 423.856 679.682 421.808C679.682 419.76 680.106 418.168 680.954 417.032C681.818 415.896 683.01 415.328 684.53 415.328C686.274 415.328 687.546 416.096 688.346 417.632H688.442V415.616H690.362V432.8H688.442V425.984ZM685.274 426.584C685.706 426.584 686.114 426.528 686.498 426.416C686.882 426.304 687.218 426.144 687.506 425.936C687.794 425.712 688.018 425.448 688.178 425.144C688.354 424.824 688.442 424.456 688.442 424.04V419.576C688.442 419.16 688.354 418.8 688.178 418.496C688.018 418.176 687.794 417.912 687.506 417.704C687.218 417.48 686.882 417.312 686.498 417.2C686.114 417.088 685.706 417.032 685.274 417.032C684.154 417.032 683.282 417.376 682.658 418.064C682.05 418.736 681.746 419.632 681.746 420.752V422.864C681.746 423.984 682.05 424.888 682.658 425.576C683.282 426.248 684.154 426.584 685.274 426.584ZM702.761 425.984H702.665C702.537 426.288 702.377 426.584 702.185 426.872C701.993 427.144 701.753 427.384 701.465 427.592C701.193 427.8 700.865 427.968 700.481 428.096C700.097 428.224 699.649 428.288 699.137 428.288C697.841 428.288 696.801 427.88 696.017 427.064C695.233 426.232 694.841 425.064 694.841 423.56V415.616H696.761V423.224C696.761 424.36 697.009 425.208 697.505 425.768C698.001 426.312 698.729 426.584 699.689 426.584C700.073 426.584 700.449 426.536 700.817 426.44C701.185 426.344 701.513 426.2 701.801 426.008C702.089 425.816 702.321 425.576 702.497 425.288C702.673 424.984 702.761 424.624 702.761 424.208V415.616H704.681V428H702.761V425.984ZM714.991 412.88C714.431 412.88 714.039 412.768 713.815 412.544C713.591 412.304 713.479 412.008 713.479 411.656V411.272C713.479 410.92 713.591 410.632 713.815 410.408C714.039 410.168 714.431 410.048 714.991 410.048C715.551 410.048 715.943 410.168 716.167 410.408C716.391 410.632 716.503 410.92 716.503 411.272V411.656C716.503 412.008 716.391 412.304 716.167 412.544C715.943 412.768 715.551 412.88 714.991 412.88ZM709.567 426.368H714.031V417.248H709.567V415.616H715.951V426.368H720.127V428H709.567V426.368ZM731.614 425.984H731.518C730.718 427.52 729.446 428.288 727.702 428.288C726.182 428.288 724.99 427.72 724.126 426.584C723.278 425.448 722.854 423.856 722.854 421.808C722.854 419.76 723.278 418.168 724.126 417.032C724.99 415.896 726.182 415.328 727.702 415.328C729.446 415.328 730.718 416.096 731.518 417.632H731.614V410.24H733.534V428H731.614V425.984ZM728.446 426.584C728.878 426.584 729.286 426.528 729.67 426.416C730.054 426.304 730.39 426.144 730.678 425.936C730.966 425.712 731.19 425.448 731.35 425.144C731.526 424.824 731.614 424.456 731.614 424.04V419.576C731.614 419.16 731.526 418.8 731.35 418.496C731.19 418.176 730.966 417.912 730.678 417.704C730.39 417.48 730.054 417.312 729.67 417.2C729.286 417.088 728.878 417.032 728.446 417.032C727.326 417.032 726.454 417.376 725.83 418.064C725.222 418.736 724.918 419.632 724.918 420.752V422.864C724.918 423.984 725.222 424.888 725.83 425.576C726.454 426.248 727.326 426.584 728.446 426.584ZM743.773 412.88C743.213 412.88 742.821 412.768 742.597 412.544C742.373 412.304 742.261 412.008 742.261 411.656V411.272C742.261 410.92 742.373 410.632 742.597 410.408C742.821 410.168 743.213 410.048 743.773 410.048C744.333 410.048 744.725 410.168 744.949 410.408C745.173 410.632 745.285 410.92 745.285 411.272V411.656C745.285 412.008 745.173 412.304 744.949 412.544C744.725 412.768 744.333 412.88 743.773 412.88ZM738.349 426.368H742.813V417.248H738.349V415.616H744.733V426.368H748.909V428H738.349V426.368ZM757.995 428C757.051 428 756.355 427.736 755.907 427.208C755.475 426.68 755.259 426 755.259 425.168V417.248H751.131V415.616H754.203C754.619 415.616 754.907 415.536 755.067 415.376C755.243 415.2 755.331 414.904 755.331 414.488V411.248H757.179V415.616H762.819V417.248H757.179V426.368H762.819V428H757.995ZM775.794 415.616H777.714L771.57 430.712C771.426 431.064 771.266 431.368 771.09 431.624C770.914 431.896 770.706 432.112 770.466 432.272C770.226 432.448 769.938 432.576 769.602 432.656C769.266 432.752 768.866 432.8 768.402 432.8H766.578V431.168H769.458L770.85 427.76L765.858 415.616H767.826L769.914 420.8L771.762 425.504H771.858L773.706 420.8L775.794 415.616ZM781.137 428V411.248H787.233C788.785 411.248 789.969 411.672 790.785 412.52C791.601 413.368 792.009 414.552 792.009 416.072C792.009 417.592 791.601 418.776 790.785 419.624C789.969 420.472 788.785 420.896 787.233 420.896H783.153V428H781.137ZM783.153 419.144H787.185C788.033 419.144 788.689 418.936 789.153 418.52C789.633 418.088 789.873 417.48 789.873 416.696V415.448C789.873 414.664 789.633 414.064 789.153 413.648C788.689 413.216 788.033 413 787.185 413H783.153V419.144ZM800.567 428.288C799.703 428.288 798.919 428.136 798.215 427.832C797.527 427.528 796.935 427.096 796.439 426.536C795.959 425.96 795.591 425.28 795.335 424.496C795.079 423.696 794.951 422.8 794.951 421.808C794.951 420.832 795.079 419.944 795.335 419.144C795.591 418.344 795.959 417.664 796.439 417.104C796.935 416.528 797.527 416.088 798.215 415.784C798.919 415.48 799.703 415.328 800.567 415.328C801.431 415.328 802.207 415.48 802.895 415.784C803.599 416.088 804.191 416.528 804.671 417.104C805.167 417.664 805.543 418.344 805.799 419.144C806.055 419.944 806.183 420.832 806.183 421.808C806.183 422.8 806.055 423.696 805.799 424.496C805.543 425.28 805.167 425.96 804.671 426.536C804.191 427.096 803.599 427.528 802.895 427.832C802.207 428.136 801.431 428.288 800.567 428.288ZM800.567 426.632C801.639 426.632 802.503 426.312 803.159 425.672C803.815 425.032 804.143 424.04 804.143 422.696V420.92C804.143 419.576 803.815 418.584 803.159 417.944C802.503 417.304 801.639 416.984 800.567 416.984C799.495 416.984 798.631 417.304 797.975 417.944C797.319 418.584 796.991 419.576 796.991 420.92V422.696C796.991 424.04 797.319 425.032 797.975 425.672C798.631 426.312 799.495 426.632 800.567 426.632ZM814.958 428.288C814.094 428.288 813.31 428.136 812.606 427.832C811.918 427.528 811.326 427.096 810.83 426.536C810.35 425.96 809.982 425.28 809.726 424.496C809.47 423.696 809.342 422.8 809.342 421.808C809.342 420.832 809.47 419.944 809.726 419.144C809.982 418.344 810.35 417.664 810.83 417.104C811.326 416.528 811.918 416.088 812.606 415.784C813.31 415.48 814.094 415.328 814.958 415.328C815.822 415.328 816.598 415.48 817.286 415.784C817.99 416.088 818.582 416.528 819.062 417.104C819.558 417.664 819.934 418.344 820.19 419.144C820.446 419.944 820.574 420.832 820.574 421.808C820.574 422.8 820.446 423.696 820.19 424.496C819.934 425.28 819.558 425.96 819.062 426.536C818.582 427.096 817.99 427.528 817.286 427.832C816.598 428.136 815.822 428.288 814.958 428.288ZM814.958 426.632C816.03 426.632 816.894 426.312 817.55 425.672C818.206 425.032 818.534 424.04 818.534 422.696V420.92C818.534 419.576 818.206 418.584 817.55 417.944C816.894 417.304 816.03 416.984 814.958 416.984C813.886 416.984 813.022 417.304 812.366 417.944C811.71 418.584 811.382 419.576 811.382 420.92V422.696C811.382 424.04 811.71 425.032 812.366 425.672C813.022 426.312 813.886 426.632 814.958 426.632ZM824.068 426.368H828.388V411.872H824.068V410.24H830.308V426.368H834.628V428H824.068V426.368ZM680.354 442.248H686.042C687.482 442.248 688.61 442.64 689.426 443.424C690.242 444.208 690.65 445.256 690.65 446.568C690.65 447.576 690.402 448.368 689.906 448.944C689.426 449.52 688.802 449.928 688.034 450.168V450.24C688.978 450.464 689.754 450.888 690.362 451.512C690.97 452.12 691.274 453.008 691.274 454.176C691.274 454.848 691.162 455.48 690.938 456.072C690.714 456.664 690.394 457.176 689.978 457.608C689.578 458.04 689.098 458.384 688.538 458.64C687.994 458.88 687.402 459 686.762 459H680.354V442.248ZM686.162 457.248C687.09 457.248 687.818 457.04 688.346 456.624C688.874 456.208 689.138 455.568 689.138 454.704V453.72C689.138 452.872 688.874 452.24 688.346 451.824C687.818 451.392 687.09 451.176 686.162 451.176H682.37V457.248H686.162ZM685.826 449.52C686.674 449.52 687.338 449.336 687.818 448.968C688.298 448.584 688.538 448.008 688.538 447.24V446.304C688.538 445.536 688.298 444.96 687.818 444.576C687.338 444.192 686.674 444 685.826 444H682.37V449.52H685.826ZM694.553 457.368H698.873V442.872H694.553V441.24H700.793V457.368H705.113V459H694.553V457.368ZM717.151 456.984H717.055C716.927 457.288 716.767 457.584 716.575 457.872C716.383 458.144 716.143 458.384 715.855 458.592C715.583 458.8 715.255 458.968 714.871 459.096C714.487 459.224 714.039 459.288 713.527 459.288C712.231 459.288 711.191 458.88 710.407 458.064C709.623 457.232 709.231 456.064 709.231 454.56V446.616H711.151V454.224C711.151 455.36 711.399 456.208 711.895 456.768C712.391 457.312 713.119 457.584 714.079 457.584C714.463 457.584 714.839 457.536 715.207 457.44C715.575 457.344 715.903 457.2 716.191 457.008C716.479 456.816 716.711 456.576 716.887 456.288C717.063 455.984 717.151 455.624 717.151 455.208V446.616H719.071V459H717.151V456.984ZM728.83 459.288C727.934 459.288 727.126 459.136 726.406 458.832C725.702 458.528 725.094 458.096 724.582 457.536C724.086 456.96 723.702 456.28 723.43 455.496C723.158 454.696 723.022 453.808 723.022 452.832C723.022 451.84 723.158 450.944 723.43 450.144C723.718 449.344 724.11 448.664 724.606 448.104C725.102 447.528 725.694 447.088 726.382 446.784C727.086 446.48 727.862 446.328 728.71 446.328C729.542 446.328 730.294 446.48 730.966 446.784C731.654 447.088 732.238 447.512 732.718 448.056C733.198 448.584 733.566 449.216 733.822 449.952C734.078 450.688 734.206 451.496 734.206 452.376V453.288H725.038V453.864C725.038 454.408 725.126 454.912 725.302 455.376C725.478 455.84 725.726 456.24 726.046 456.576C726.382 456.912 726.782 457.176 727.246 457.368C727.726 457.544 728.254 457.632 728.83 457.632C729.662 457.632 730.382 457.44 730.99 457.056C731.598 456.672 732.062 456.144 732.382 455.472L733.798 456.432C733.43 457.264 732.814 457.952 731.95 458.496C731.102 459.024 730.062 459.288 728.83 459.288ZM728.71 447.912C728.182 447.912 727.694 448.008 727.246 448.2C726.798 448.392 726.406 448.656 726.07 448.992C725.75 449.328 725.494 449.728 725.302 450.192C725.126 450.64 725.038 451.136 725.038 451.68V451.848H732.142V451.584C732.142 451.04 732.054 450.544 731.878 450.096C731.718 449.648 731.486 449.264 731.182 448.944C730.894 448.608 730.534 448.352 730.102 448.176C729.686 448 729.222 447.912 728.71 447.912ZM738.085 446.616H740.005V448.632H740.101C740.901 447.096 742.173 446.328 743.917 446.328C745.437 446.328 746.621 446.896 747.469 448.032C748.333 449.168 748.765 450.76 748.765 452.808C748.765 454.856 748.333 456.448 747.469 457.584C746.621 458.72 745.437 459.288 743.917 459.288C742.173 459.288 740.901 458.52 740.101 456.984H740.005V463.8H738.085V446.616ZM743.173 457.584C744.293 457.584 745.157 457.248 745.765 456.576C746.389 455.888 746.701 454.984 746.701 453.864V451.752C746.701 450.632 746.389 449.736 745.765 449.064C745.157 448.376 744.293 448.032 743.173 448.032C742.741 448.032 742.333 448.088 741.949 448.2C741.565 448.312 741.229 448.48 740.941 448.704C740.653 448.912 740.421 449.176 740.245 449.496C740.085 449.8 740.005 450.16 740.005 450.576V455.04C740.005 455.456 740.085 455.824 740.245 456.144C740.421 456.448 740.653 456.712 740.941 456.936C741.229 457.144 741.565 457.304 741.949 457.416C742.333 457.528 742.741 457.584 743.173 457.584ZM752.043 457.368H755.667V448.248H752.043V446.616H757.587V449.736H757.707C757.963 448.76 758.443 448 759.147 447.456C759.867 446.896 760.779 446.616 761.883 446.616H763.611V448.536H761.283C760.179 448.536 759.283 448.856 758.595 449.496C757.923 450.136 757.587 450.976 757.587 452.016V457.368H762.387V459H752.043V457.368ZM772.554 443.88C771.994 443.88 771.602 443.768 771.378 443.544C771.154 443.304 771.042 443.008 771.042 442.656V442.272C771.042 441.92 771.154 441.632 771.378 441.408C771.602 441.168 771.994 441.048 772.554 441.048C773.114 441.048 773.506 441.168 773.73 441.408C773.954 441.632 774.066 441.92 774.066 442.272V442.656C774.066 443.008 773.954 443.304 773.73 443.544C773.506 443.768 773.114 443.88 772.554 443.88ZM767.13 457.368H771.594V448.248H767.13V446.616H773.514V457.368H777.69V459H767.13V457.368ZM781.329 459V446.616H783.249V448.632H783.345C783.473 448.328 783.633 448.04 783.825 447.768C784.017 447.48 784.249 447.232 784.521 447.024C784.809 446.816 785.145 446.648 785.529 446.52C785.913 446.392 786.361 446.328 786.873 446.328C788.169 446.328 789.209 446.744 789.993 447.576C790.777 448.392 791.169 449.552 791.169 451.056V459H789.249V451.392C789.249 450.256 789.001 449.416 788.505 448.872C788.009 448.312 787.281 448.032 786.321 448.032C785.937 448.032 785.561 448.08 785.193 448.176C784.825 448.272 784.497 448.416 784.209 448.608C783.921 448.8 783.689 449.048 783.513 449.352C783.337 449.656 783.249 450.008 783.249 450.408V459H781.329ZM801.167 459C800.223 459 799.527 458.736 799.079 458.208C798.647 457.68 798.431 457 798.431 456.168V448.248H794.303V446.616H797.375C797.791 446.616 798.079 446.536 798.239 446.376C798.415 446.2 798.503 445.904 798.503 445.488V442.248H800.351V446.616H805.991V448.248H800.351V457.368H805.991V459H801.167Z" fill="white"/>
<defs>
<radialGradient id="paint0_radial_13_398" cx="0" cy="0" r="1" gradientUnits="userSpaceOnUse" gradientTransform="translate(540 360) rotate(146.31) scale(648.999 599.076)">
<stop stop-color="#434343"/>
<stop offset="1"/>
</radialGradient>
<radialGradient id="paint1_radial_13_398" cx="0" cy="0" r="1" gradientUnits="userSpaceOnUse" gradientTransform="translate(338 434) rotate(90) scale(150)">
<stop stop-color="#004E92"/>
<stop offset="1" stop-color="#000428"/>
</radialGradient>
<radialGradient id="paint2_radial_13_398" cx="0" cy="0" r="1" gradientUnits="userSpaceOnUse" gradientTransform="translate(743 434) rotate(90) scale(150)">
<stop stop-color="#004E92"/>
<stop offset="1" stop-color="#000428"/>
</radialGradient>
</defs>
</svg>
