<svg width="640" height="320" viewBox="0 0 640 320" fill="none" xmlns="http://www.w3.org/2000/svg">
<rect width="640" height="320" fill="#003057"/>
<path d="M200.393 186H191.153V137.14H213.203C215.443 137.14 217.45 137.49 219.223 138.19C220.996 138.89 222.49 139.917 223.703 141.27C224.963 142.577 225.92 144.163 226.573 146.03C227.273 147.897 227.623 149.973 227.623 152.26C227.623 155.62 226.853 158.513 225.313 160.94C223.82 163.367 221.556 165.093 218.523 166.12L228.533 186H218.243L209.143 167.17H200.393V186ZM212.293 159.4C214.066 159.4 215.466 158.933 216.493 158C217.52 157.02 218.033 155.643 218.033 153.87V150.65C218.033 148.877 217.52 147.523 216.493 146.59C215.466 145.657 214.066 145.19 212.293 145.19H200.393V159.4H212.293ZM263.274 186C261.314 186 259.751 185.44 258.584 184.32C257.464 183.153 256.764 181.613 256.484 179.7H256.064C255.457 182.08 254.221 183.877 252.354 185.09C250.487 186.257 248.177 186.84 245.424 186.84C241.691 186.84 238.821 185.86 236.814 183.9C234.807 181.94 233.804 179.327 233.804 176.06C233.804 172.28 235.157 169.48 237.864 167.66C240.571 165.793 244.421 164.86 249.414 164.86H255.644V162.2C255.644 160.147 255.107 158.56 254.034 157.44C252.961 156.32 251.234 155.76 248.854 155.76C246.754 155.76 245.051 156.227 243.744 157.16C242.484 158.047 241.411 159.12 240.524 160.38L235.204 155.62C236.557 153.52 238.354 151.84 240.594 150.58C242.834 149.273 245.797 148.62 249.484 148.62C254.431 148.62 258.187 149.74 260.754 151.98C263.321 154.22 264.604 157.44 264.604 161.64V178.86H268.244V186H263.274ZM248.434 180.33C250.441 180.33 252.144 179.887 253.544 179C254.944 178.113 255.644 176.807 255.644 175.08V170.25H249.904C245.237 170.25 242.904 171.743 242.904 174.73V175.92C242.904 177.413 243.371 178.533 244.304 179.28C245.284 179.98 246.661 180.33 248.434 180.33ZM273.815 164.16C273.815 160.8 274.119 157.557 274.725 154.43C275.379 151.303 276.242 148.41 277.315 145.75C278.435 143.043 279.742 140.593 281.235 138.4C282.729 136.207 284.362 134.34 286.135 132.8H294.605C292.692 134.573 290.965 136.533 289.425 138.68C287.932 140.827 286.649 143.137 285.575 145.61C284.502 148.037 283.662 150.603 283.055 153.31C282.495 156.017 282.215 158.793 282.215 161.64V166.82C282.215 169.713 282.495 172.537 283.055 175.29C283.662 177.997 284.502 180.587 285.575 183.06C286.695 185.487 288.002 187.773 289.495 189.92C291.035 192.067 292.739 193.98 294.605 195.66H286.135C284.409 194.213 282.799 192.393 281.305 190.2C279.812 188.007 278.505 185.557 277.385 182.85C276.265 180.097 275.379 177.157 274.725 174.03C274.119 170.857 273.815 167.567 273.815 164.16ZM450.093 164.16C450.093 167.567 449.766 170.857 449.113 174.03C448.506 177.157 447.643 180.097 446.523 182.85C445.403 185.557 444.096 188.007 442.603 190.2C441.11 192.393 439.5 194.213 437.773 195.66H429.303C431.17 193.98 432.85 192.067 434.343 189.92C435.883 187.773 437.19 185.487 438.263 183.06C439.383 180.587 440.223 177.997 440.783 175.29C441.39 172.537 441.693 169.713 441.693 166.82V161.64C441.693 158.793 441.39 156.017 440.783 153.31C440.223 150.603 439.406 148.037 438.333 145.61C437.26 143.137 435.953 140.827 434.413 138.68C432.92 136.533 431.216 134.573 429.303 132.8H437.773C439.546 134.34 441.18 136.207 442.673 138.4C444.166 140.593 445.45 143.043 446.523 145.75C447.643 148.41 448.506 151.303 449.113 154.43C449.766 157.557 450.093 160.8 450.093 164.16Z" fill="white"/>
<path d="M299.639 137.14H317.419C320.593 137.14 323.463 137.653 326.029 138.68C328.643 139.707 330.859 141.247 332.679 143.3C334.546 145.307 335.969 147.85 336.949 150.93C337.976 153.963 338.489 157.51 338.489 161.57C338.489 165.63 337.976 169.2 336.949 172.28C335.969 175.313 334.546 177.857 332.679 179.91C330.859 181.917 328.643 183.433 326.029 184.46C323.463 185.487 320.593 186 317.419 186H299.639V137.14ZM317.419 177.81C320.873 177.81 323.603 176.807 325.609 174.8C327.663 172.747 328.689 169.62 328.689 165.42V157.72C328.689 153.52 327.663 150.417 325.609 148.41C323.603 146.357 320.873 145.33 317.419 145.33H308.879V177.81H317.419ZM347.901 186V137.14H380.101V145.33H357.141V157.16H377.441V165.35H357.141V177.81H380.101V186H347.901ZM428.724 186H417.944L406.744 167.24H406.534L395.474 186H385.394L401.214 160.94L386.094 137.14H396.874L407.234 154.5H407.444L417.944 137.14H428.024L412.764 160.94L428.724 186Z" fill="#00C389"/>
<path d="M160.241 163.1C159.06 163.1 157.94 162.566 157.24 161.649L142.567 142.436H133V135.439H144.46C145.65 135.439 146.766 135.978 147.462 136.89L159.45 152.587L177.744 113.095C178.334 111.822 179.664 111 181.135 111H204V117.997H183.555L163.632 161.005C163.099 162.155 161.955 162.947 160.634 163.08C160.503 163.093 160.371 163.1 160.241 163.1Z" fill="#00C389"/>
<rect x="201" y="111" width="247" height="7" fill="#00C389"/>
</svg>
